<?xml version="1.0" standalone="no"?>
<!DOCTYPE svg PUBLIC "-//W3C//DTD SVG 1.1//EN" "http://www.w3.org/Graphics/SVG/1.1/DTD/svg11.dtd" >
<svg xmlns="http://www.w3.org/2000/svg">
<metadata>
This is a custom SVG webfont generated by Font Squirrel.
Copyright   : Copyright c Mrten Nettelbladt 2006 All rights reserved
Designer    : Mrten Nettelbladt
Foundry     : Mrten Nettelbladt
Foundry URL : httpmartennettelbladtsemiso
</metadata>
<defs>
<font id="MisoRegular" horiz-adv-x="851" >
<font-face units-per-em="2048" ascent="1638" descent="-410" />
<missing-glyph horiz-adv-x="393" />
<glyph unicode=" "  horiz-adv-x="393" />
<glyph unicode="&#x09;" horiz-adv-x="393" />
<glyph unicode="&#xa0;" horiz-adv-x="393" />
<glyph unicode="!" horiz-adv-x="409" d="M119 78q0 35 25.5 60.5t60.5 25.5t60.5 -25.5t25.5 -60.5t-25.5 -60.5t-60.5 -25.5t-60.5 25.5t-25.5 60.5zM139 385v819q0 27 19.5 46.5t46.5 19.5q29 0 47 -18.5t18 -47.5v-819q0 -29 -18.5 -47.5t-46.5 -18.5q-27 0 -46.5 19.5t-19.5 46.5z" />
<glyph unicode="&#x22;" horiz-adv-x="720" d="M131 1040v205q0 29 18.5 47.5t47 18.5t47 -18.5t18.5 -47.5v-205q0 -29 -18.5 -47t-47 -18t-47 18.5t-18.5 46.5zM459 1040v205q0 29 18.5 47.5t47 18.5t47 -18.5t18.5 -47.5v-205q0 -29 -18.5 -47t-47 -18t-47 18.5t-18.5 46.5z" />
<glyph unicode="#" horiz-adv-x="937" d="M39 508q0 27 17.5 44t43.5 17h144v203h-144q-27 0 -44 18.5t-17 45t17.5 44t43.5 17.5h144v348q0 27 17.5 44.5t44 17.5t45 -17.5t18.5 -44.5v-348h202v348q0 27 17.5 44.5t44 17.5t45 -17.5t18.5 -44.5v-348h142q27 0 45 -17.5t18 -44t-18 -45t-45 -18.5h-142v-203h142 q27 0 45 -17t18 -44t-18.5 -45.5t-44.5 -18.5h-142v-387q0 -27 -18.5 -45t-45 -18t-44 18.5t-17.5 44.5v387h-202v-387q0 -27 -18.5 -45t-45 -18t-44 18.5t-17.5 44.5v387h-144q-27 0 -44 18.5t-17 45.5zM369 569h202v203h-202v-203z" />
<glyph unicode="$" d="M146 272.5q8 26.5 30 40.5q23 12 49.5 5t40.5 -29q39 -70 117 -82q8 -2 27 -2h2q61 0 108 41q59 49 60 129q-4 80 -64 127l-256 211q-106 88 -106 221q-4 139 102 225q51 45 123 62v106q0 29 19.5 47.5t46 18.5t46 -19.5t19.5 -46.5v-106q123 -29 186 -138q12 -23 5 -49 t-29.5 -40.5t-49 -6.5t-40.5 31q-35 66 -111 78q-8 2 -27 2h-2q-57 0 -102 -39q-59 -49 -55 -123q0 -76 57 -121l258 -211q106 -86 111 -229q0 -139 -107 -230q-49 -45 -127 -65v-105q0 -27 -19.5 -46t-46 -19t-46 18.5t-19.5 46.5v107q-127 25 -194 141q-14 23 -6 49.5z " />
<glyph unicode="%" horiz-adv-x="1214" d="M78 1061q0 100 71.5 172t172 72t172 -72t71.5 -172t-71.5 -172t-172 -72t-172 70.5t-71.5 173.5zM197 1061q0 -53 36.5 -89t88 -36t88 36t36.5 89t-36.5 89t-88 36t-88 -36t-36.5 -89zM259 35.5q-9 25.5 3 50.5l574 1188q12 25 37.5 33t50.5 -2q25 -12 33 -38t-3 -50 l-573 -1188q-12 -25 -38 -34t-50.5 3t-33.5 37.5zM651 242q0 100 72 171.5t172 71.5t172 -71.5t72 -172t-72 -172t-172 -71.5t-172 70.5t-72 173.5zM770 241.5q0 -53.5 37 -89t88 -35.5t88 35.5t37 89t-37 89.5t-88 36t-88 -36t-37 -89.5z" />
<glyph unicode="&#x26;" horiz-adv-x="1009" d="M102 254q-18 135 62 240l164 213l-140 180l-2 2v2h-2v2q-41 63 -44 138t34 140q37 68 102.5 106t143.5 34t140.5 -45t95 -111t24.5 -144.5t-55 -136.5l-131 -167l155 -203l51 -68l64 105q14 25 40.5 31t49.5 -8.5t30 -40t-7 -50.5l-91 -147l162 -207q16 -20 12 -49 t-24 -43q-20 -16 -48 -13t-44 23l-129 168l-37 -62q-68 -113 -201 -145q-127 -29 -241 47q-111 76 -134 209zM233 274q10 -74 76 -120q61 -43 140 -27q73 16 116 84l64 104l-84 109l-133 174l-144 -184q-47 -63 -35 -140zM289 1108q-39 -71 4 -143l119 -152l108 141 q53 70 16.5 146t-120.5 80q-82 4 -127 -72z" />
<glyph unicode="'" horiz-adv-x="393" d="M131 1040v205q0 29 18.5 47.5t47.5 18.5q27 0 46 -19.5t19 -46.5v-205q0 -27 -19.5 -46t-45.5 -19q-29 0 -47.5 18.5t-18.5 46.5z" />
<glyph unicode="(" horiz-adv-x="548" d="M114.5 651q0.5 217 69.5 418q66 201 205 381q16 20 44 23.5t48 -13.5q23 -16 26 -42.5t-13 -49.5q-119 -147 -187 -342q-61 -182 -61 -374.5t61 -375.5q68 -195 187 -342q16 -23 13 -49t-26 -43q-20 -16 -47.5 -13t-44.5 24q-137 174 -205 380q-70 201 -69.5 418z" />
<glyph unicode=")" horiz-adv-x="550" d="M42 -94.5q-3 26.5 13 49.5q119 147 187 342q61 182 61 374.5t-61 375.5q-68 195 -187 342q-16 23 -13 49t23.5 42.5t49 13.5t43.5 -24q137 -178 207 -380q69 -201 69 -418t-69 -418q-72 -209 -207 -381q-14 -20 -43 -23.5t-49.5 13t-23.5 43z" />
<glyph unicode="*" d="M99 799.5q7 25.5 30 38.5l172 100l-172 100q-23 12 -30 38t7 46q12 23 38 30t46 -7l175 -98v198q0 27 17 44.5t44 17.5t45 -17.5t18 -44.5v-198l173 98q20 14 45.5 7t37.5 -30q14 -20 7 -45.5t-29 -38.5l-172 -100l172 -100q23 -12 30 -38t-8 -46q-12 -23 -37.5 -30 t-45.5 7l-173 98v-198q0 -27 -18 -45.5t-45 -18.5t-44 18.5t-17 45.5v198l-175 -98q-20 -14 -45.5 -7t-38.5 30q-14 20 -7 45.5z" />
<glyph unicode="+" d="M115 589.5q0 28.5 18.5 47t46.5 18.5h180v181q0 29 18.5 47t47.5 18q27 0 46.5 -19.5t19.5 -45.5v-181h180q27 0 46 -19.5t19 -46t-19.5 -46t-45.5 -19.5h-180v-180q0 -27 -19.5 -46t-46.5 -19q-29 0 -47.5 18t-18.5 47v180h-180q-29 0 -47 18.5t-18 47z" />
<glyph unicode="," horiz-adv-x="393" d="M102 98.5q0 26.5 17.5 44t44.5 17.5h65q27 0 45.5 -17.5t18.5 -44.5v-98q0 -51 -28.5 -93t-76.5 -63q-25 -10 -48 0.5t-34 32.5q-10 25 0 48.5t33 33.5q29 10 29 41v35h-4q-27 0 -44.5 18.5t-17.5 45z" />
<glyph unicode="-" d="M115 589.5q0 28.5 18.5 47t46.5 18.5h492q27 0 46 -19.5t19 -46t-19.5 -46t-45.5 -19.5h-492q-29 0 -47 18.5t-18 47z" />
<glyph unicode="." horiz-adv-x="393" d="M111 78q0 35 25.5 60.5t60 25.5t60.5 -25.5t26 -60.5t-26 -60.5t-60.5 -25.5t-60 25.5t-25.5 60.5z" />
<glyph unicode="/" d="M119 -2l491 1352q10 25 34.5 36t49.5 3q27 -8 38 -33t1 -51l-491 -1352q-8 -27 -33 -38t-51 -1q-25 10 -36 33.5t-3 50.5z" />
<glyph unicode="0" d="M115 303v696q0 129 91 220.5t220 91.5q127 0 219 -91.5t92 -220.5v-696q0 -129 -92 -220t-219 -91q-129 0 -220 91t-91 220zM246 303q0 -76 52 -128t128 -52q74 0 127 52t53 128v696q0 74 -53 127.5t-127 53.5q-76 0 -128 -53.5t-52 -127.5v-696z" />
<glyph unicode="1" d="M164 999q0 27 18 48l246 245q29 29 72 15q41 -16 41 -62v-1188q0 -27 -19.5 -46t-46.5 -19q-29 0 -47 18.5t-18 46.5v1030l-136 -135q-18 -18 -44.5 -18t-47.5 18q-18 20 -18 47z" />
<glyph unicode="2" d="M125 1106q-8 27 6 49q63 113 186 143q121 35 234 -26.5t147 -181.5q37 -121 -22 -236q-301 -573 -379 -723h350q27 0 46.5 -19.5t19.5 -46t-19.5 -46t-46.5 -19.5h-459q-39 0 -55 31q-20 35 -2 65l430 819q35 66 12 136q-23 74 -86 106q-63 35 -135 17q-74 -23 -106 -84 q-14 -23 -41 -31t-49.5 6t-30.5 41z" />
<glyph unicode="3" d="M96 196.5q8 26.5 31 41.5q23 12 49.5 5t40.5 -30q31 -53 87.5 -75.5t115.5 -8.5q59 16 96 64.5t37 109.5v123q0 74 -53.5 127t-126.5 53q-29 0 -47.5 18.5t-18.5 47t18.5 47t47.5 18.5q74 0 127 52.5t53 128.5v81q0 61 -37 109.5t-96 65.5q-59 14 -115.5 -8.5 t-87.5 -75.5q-14 -23 -40.5 -31t-49.5 6t-31 41t6 49q53 90 151.5 131t199.5 14q102 -27 166.5 -110.5t64.5 -190.5v-81q0 -152 -121 -246q121 -94 121 -246v-123q0 -106 -64.5 -190t-166.5 -111q-102 -29 -199.5 12t-151.5 133q-14 23 -6 49.5z" />
<glyph unicode="4" d="M88 365l287 901q10 25 33.5 37t50.5 4q45 -14 45 -62q0 -14 -4 -20q-215 -676 -258 -815h254v221q0 29 18 47t47 18t47.5 -18.5t18.5 -46.5v-221h98q29 0 47.5 -18.5t18.5 -47.5t-18.5 -47t-47.5 -18h-98v-222q0 -29 -18.5 -47t-47.5 -18t-47 18.5t-18 46.5v222h-344 q-33 0 -53.5 26.5t-10.5 59.5z" />
<glyph unicode="5" d="M145 651v586q0 29 19.5 47.5t46.5 18.5h426q27 0 46 -18.5t19 -47.5t-19 -47.5t-46 -18.5h-361v-368q106 57 228 26q102 -27 166.5 -110.5t64.5 -190.5v-225q0 -106 -64.5 -190t-166.5 -111q-102 -29 -199.5 12t-150.5 133q-12 23 -5 49.5t29 41.5q23 12 49.5 5t40.5 -30 q31 -53 87.5 -75.5t115.5 -8.5q59 16 96 64.5t37 109.5v225q0 61 -37 109.5t-96 64.5q-59 14 -115.5 -8t-87.5 -76q-24 -45 -73.5 -30.5t-49.5 63.5z" />
<glyph unicode="6" d="M133 303v696q0 106 64.5 189.5t167.5 111.5q100 27 198.5 -14t151.5 -131q14 -23 6 -49.5t-30.5 -40.5t-49.5 -6t-41 31q-29 53 -86 75.5t-117 8.5q-59 -16 -96 -64.5t-37 -110.5v-237q80 57 180 57q129 0 220.5 -91t91.5 -220v-205q0 -129 -91.5 -220t-220.5 -91 t-220 91t-91 220zM264 303q0 -76 53.5 -128t126.5 -52q76 0 128.5 52t52.5 128v205q0 74 -52.5 127t-128.5 53q-74 0 -127 -53t-53 -127v-205z" />
<glyph unicode="7" d="M109 1073v164q0 27 19 46.5t46 19.5h492q31 0 51 -25q20 -29 12 -57l-287 -1180q-6 -27 -28.5 -40t-48.5 -7q-23 4 -37.5 22.5t-14.5 40.5q0 2 1 7.5t1 9.5q233 956 269 1097h-344v-98q0 -29 -19.5 -47t-46.5 -18t-46 19.5t-19 45.5z" />
<glyph unicode="8" d="M115 303v123q0 152 121 246q-121 94 -121 246v81q0 129 92 220.5t219 91.5q129 0 220 -91.5t91 -220.5v-81q0 -152 -119 -246q119 -94 119 -246v-123q0 -129 -91 -220t-220 -91q-127 0 -219 91t-92 220zM246 303q0 -76 53 -128t127 -52q76 0 128 52t52 128v123 q0 74 -52 127t-128 53q-74 0 -127 -53t-53 -127v-123zM246 918q0 -76 53 -128.5t127 -52.5q76 0 128 52.5t52 128.5v81q0 74 -52 127.5t-128 53.5q-74 0 -127 -53.5t-53 -127.5v-81z" />
<glyph unicode="9" d="M96 795v204q0 129 92.5 220.5t219.5 91.5q129 0 220 -91.5t91 -220.5v-696q0 -106 -63.5 -189t-166 -112t-201 12t-149.5 133q-14 23 -7 49.5t30 41.5q57 29 90 -25q31 -53 88 -75.5t115 -8.5q59 14 96 63.5t37 110.5v238q-76 -58 -180 -58q-127 0 -219.5 91.5 t-92.5 220.5zM227 795q0 -76 53.5 -128.5t127.5 -52.5q76 0 128 52.5t52 128.5v204q0 74 -52 127.5t-128 53.5q-74 0 -127.5 -53.5t-53.5 -127.5v-204z" />
<glyph unicode=":" horiz-adv-x="393" d="M111 78q0 35 25.5 60.5t60.5 25.5q37 0 61.5 -25.5t24.5 -60.5t-25 -60.5t-61 -25.5q-35 0 -60.5 25.5t-25.5 60.5zM111 856q0 35 25.5 60.5t60.5 25.5q37 0 61.5 -25.5t24.5 -60.5t-25 -60.5t-61 -25.5q-35 0 -60.5 25.5t-25.5 60.5z" />
<glyph unicode=";" horiz-adv-x="393" d="M102 98.5q0 26.5 17.5 44t44.5 17.5h65q27 0 45.5 -17.5t18.5 -44.5v-98q0 -51 -28.5 -93t-76.5 -63q-25 -10 -48 0.5t-34 32.5q-10 25 0.5 48.5t32.5 33.5q29 10 29 41v35h-4q-27 0 -44.5 18.5t-17.5 45zM111 856q0 35 25.5 60.5t60 25.5t60.5 -25.5t26 -60.5t-26 -60.5 t-60.5 -25.5t-60 25.5t-25.5 60.5z" />
<glyph unicode="&#x3c;" d="M98 590q0 29 23 51l491 410q20 16 48 13t44.5 -23.5t16.5 -41.5q0 -29 -25 -51q-338 -281 -430 -358l430 -359q25 -23 25 -51q0 -22 -16.5 -42.5t-43 -22.5t-49.5 14l-491 410q-23 18 -23 51z" />
<glyph unicode="=" d="M115 426q0 27 19.5 46.5t45.5 19.5h492q29 0 47 -18.5t18 -47.5t-18.5 -47.5t-46.5 -18.5h-492q-27 0 -46 19.5t-19 46.5zM115 753.5q0 26.5 19.5 46t45.5 19.5h492q29 0 47 -18.5t18 -47t-18.5 -47t-46.5 -18.5h-492q-27 0 -46 19.5t-19 46z" />
<glyph unicode="&#x3e;" d="M131 180q0 29 23 51q340 281 432 359l-432 358q-23 23 -23 51q0 25 14 41q18 20 45 23.5t48 -12.5l491 -410q25 -23 25 -51q0 -33 -25 -51l-491 -410q-20 -16 -47 -14t-46 22q-14 16 -14 43z" />
<glyph unicode="?" horiz-adv-x="731" d="M60 1106q-7 27 8 49q70 121 207 149.5t249 -57.5q113 -88 123 -225q10 -141 -90 -242l-102 -104q-53 -53 -54 -127v-164q0 -29 -18 -47.5t-47 -18.5q-27 0 -46.5 19.5t-19.5 46.5v164q0 125 90 219l105 104q57 57 51 140q-7 84 -70 131q-66 49 -145.5 32.5t-120.5 -85.5 q-14 -23 -39.5 -31t-50.5 6q-23 14 -30 41zM250 78q0 35 25.5 60.5t60.5 25.5t60.5 -25.5t25.5 -60.5t-25.5 -60.5t-60.5 -25.5t-60.5 25.5t-25.5 60.5z" />
<glyph unicode="@" horiz-adv-x="1564" d="M127 283v368q0 266 192 463q197 193 463 193q268 0 465 -193q190 -195 191 -463v-381q0 -111 -78 -188.5t-189 -77.5h-409q-109 0 -187.5 78t-78.5 188q0 109 78.5 188t187.5 79h143v139q0 92 -88 127q-88 37 -155 -31q-18 -16 -44 -16t-45 18q-16 18 -16 44t18 42 q57 57 135 71.5t152 -13.5q76 -29 121 -95.5t45 -146.5v-549h143q59 0 101.5 42t42.5 101v381q0 219 -156 375q-154 158 -377 158q-221 0 -374 -158q-158 -154 -158 -375v-368q0 -223 158 -377q156 -156 374 -156h226q27 0 44 -18.5t17 -42.5q0 -27 -17.5 -44.5t-43.5 -17.5 h-226q-268 0 -463 191q-193 197 -192 465zM618 270q0 -59 42 -101t102 -42h143v287h-143q-57 0 -100.5 -43.5t-43.5 -100.5z" />
<glyph unicode="A" horiz-adv-x="884" d="M51 74l328 1188q14 49 63.5 49t63.5 -49l328 -1188q3 -10 3 -19q1 -17 -9 -31q-14 -22 -42 -30q-10 -3 -19 -3q-15 0 -29 8q-22 13 -31 40q-27 100 -66 240h-397l-66 -240q-8 -27 -32 -40q-15 -8 -30 -8q-10 0 -20 3q-26 8 -40 30q-8 14 -8 31q0 9 3 19zM281 410h323 q-33 119 -93 341t-69 248q-8 -27 -68 -248.5t-93 -340.5z" />
<glyph unicode="B" horiz-adv-x="876" d="M139 66v1171q0 29 18.5 47.5t47.5 18.5h246q129 0 220 -91.5t91 -220.5v-73q0 -152 -121 -246q121 -94 121 -246v-115q0 -129 -91 -220t-220 -91h-246q-29 0 -47.5 18.5t-18.5 47.5zM270 131h181q74 0 127 52.5t53 127.5v115q0 74 -53.5 127t-126.5 53h-181v-475z M270 737h181q74 0 127 52.5t53 128.5v73q0 74 -53.5 127t-126.5 53h-181v-434z" />
<glyph unicode="C" horiz-adv-x="788" d="M115 303v696q0 106 64.5 190.5t166.5 110.5q40 11 79 10q59 0 119 -24q98 -41 152 -131q8 -15 8 -30q0 -9 -3 -19q-7 -26 -29.5 -40.5t-49 -6.5t-40.5 31q-32 54 -88 76q-35 14 -70 13q-22 0 -45 -5q-59 -16 -96 -64.5t-37 -110.5v-696q0 -61 36.5 -109.5t96.5 -64.5 q23 -5 45 -5q36 0 70 14q56 22 88 75q14 23 40.5 30t49.5 -5q23 -14 30 -41q2 -9 2 -18q0 -17 -8 -32q-52 -92 -150 -133q-57 -24 -116 -24q-41 0 -84 12q-102 27 -166.5 111t-64.5 190z" />
<glyph unicode="D" horiz-adv-x="876" d="M139 66v1171q0 29 18.5 47.5t47.5 18.5h246q129 0 220 -91.5t91 -220.5v-680q0 -129 -91 -220t-220 -91h-246q-29 0 -47.5 18.5t-18.5 47.5zM270 131h181q76 0 128 52.5t52 127.5v680q0 74 -52.5 127t-127.5 53h-181v-1040z" />
<glyph unicode="E" horiz-adv-x="753" d="M139 66v1171q0 29 18.5 47.5t47.5 18.5h409q29 0 47.5 -18.5t18.5 -47.5t-18.5 -47.5t-47.5 -18.5h-344v-434h303q29 0 47.5 -18.5t18.5 -47t-18.5 -47t-47.5 -18.5h-303v-475h344q29 0 47.5 -18.5t18.5 -47t-18.5 -47t-47.5 -18.5h-409q-29 0 -47.5 18.5t-18.5 47.5z " />
<glyph unicode="F" horiz-adv-x="737" d="M139 66v1171q0 27 19.5 46.5t46.5 19.5h409q29 0 47.5 -18.5t18.5 -47.5t-18.5 -47.5t-47.5 -18.5h-344v-434h303q29 0 47.5 -18.5t18.5 -47t-18.5 -47t-47.5 -18.5h-303v-540q0 -29 -18 -47.5t-47 -18.5q-27 0 -46.5 19.5t-19.5 46.5z" />
<glyph unicode="G" horiz-adv-x="843" d="M115 303v696q0 106 64.5 189.5t166.5 111.5q40 11 79 11q60 0 119 -25q99 -41 152 -131q14 -23 7 -49.5t-31 -40.5q-23 -14 -49.5 -6t-40.5 31q-29 51 -86 76q-34 14 -69 14q-23 0 -46 -6q-59 -14 -97 -63.5t-38 -111.5v-696q0 -76 53 -128t127 -52q76 0 128 52t52 128 v262h-139q-27 0 -46.5 19.5t-19.5 46t19.5 46t46.5 19.5h205q29 0 47 -18.5t18 -46.5v-328q0 -129 -91 -220t-220 -91t-220 91t-91 220z" />
<glyph unicode="H" horiz-adv-x="901" d="M139 57v1188q0 27 19.5 46.5t46.5 19.5q29 0 47 -18.5t18 -47.5v-508h361v508q0 27 19.5 46.5t45.5 19.5q29 0 47.5 -18.5t18.5 -47.5v-1188q0 -29 -18.5 -47t-47.5 -18q-27 0 -46 19.5t-19 45.5v549h-361v-549q0 -29 -18.5 -47t-46.5 -18q-27 0 -46.5 19.5t-19.5 45.5z " />
<glyph unicode="I" horiz-adv-x="409" d="M139 57v1188q0 27 19.5 46.5t46.5 19.5q29 0 47 -18.5t18 -47.5v-1188q0 -29 -18 -47t-47 -18q-27 0 -46.5 19.5t-19.5 45.5z" />
<glyph unicode="J" horiz-adv-x="681" d="M52 74q-2 8 -2 16q0 17 10 32q14 23 39.5 31.5t50.5 -6.5q44 -26 89 -26.5t91 26.5q90 49 90 156v942q0 29 19.5 47.5t46 18.5t46 -19.5t19.5 -46.5v-942q0 -82 -42 -155.5t-113.5 -114.5t-155.5 -41t-156 41q-25 14 -32 41z" />
<glyph unicode="K" horiz-adv-x="862" d="M139 57v1188q0 27 19.5 46.5t46.5 19.5q29 0 47 -18.5t18 -47.5v-543l414 582q16 20 44 25.5t48 -11.5q23 -16 27 -42q1 -5 1 -11q0 -21 -13 -39l-318 -446l324 -674q7 -14 7 -29q0 -11 -4 -21q-9 -26 -34 -38q-14 -7 -29 -7q-11 0 -21 4q-26 9 -36 34l-295 608 l-115 -160v-420q0 -29 -18.5 -47t-46.5 -18q-27 0 -46.5 19.5t-19.5 45.5z" />
<glyph unicode="L" horiz-adv-x="712" d="M139 66v1179q0 29 18.5 47.5t47.5 18.5q27 0 46 -19.5t19 -46.5v-1114h344q27 0 46.5 -19.5t19.5 -46t-19.5 -46t-46.5 -19.5h-409q-29 0 -47.5 18.5t-18.5 47.5z" />
<glyph unicode="M" horiz-adv-x="1064" d="M139 57v1188q0 53 51 64q9 2 17 2q37 0 57 -37q188 -401 268 -572q268 571 269 572q16 37 55 37q9 0 18 -2q23 -4 37.5 -22.5t14.5 -41.5v-1188q0 -27 -19.5 -46t-46.5 -19q-29 0 -47 18.5t-18 46.5v895l-203 -432q-20 -37 -60 -37q-43 0 -59 37q-109 229 -203 432v-895 q0 -27 -19 -46t-46 -19q-29 0 -47.5 18.5t-18.5 46.5z" />
<glyph unicode="N" horiz-adv-x="983" d="M139 57v1188q0 53 51 64q9 2 17 2q37 0 57 -37q295 -614 449 -930v901q0 29 18.5 47.5t47 18.5t47 -18.5t18.5 -47.5v-1188q0 -53 -51 -63q-10 -3 -20 -3q-33 0 -54 38q-297 614 -449 929v-901q0 -29 -18.5 -47t-47 -18t-47 18.5t-18.5 46.5z" />
<glyph unicode="O" d="M115 303v696q0 129 91 220.5t220 91.5t220 -91.5t91 -220.5v-696q0 -129 -91 -220t-220 -91t-220 91t-91 220zM246 303q0 -76 52 -128t128 -52q74 0 127 52t53 128v696q0 74 -53 127.5t-127 53.5q-76 0 -128 -53.5t-52 -127.5v-696z" />
<glyph unicode="P" horiz-adv-x="819" d="M139 57v1180q0 29 18.5 47.5t47.5 18.5h246q129 0 220 -91.5t91 -220.5v-114q0 -129 -91 -220.5t-220 -91.5h-181v-508q0 -29 -18.5 -47t-47 -18t-47 18.5t-18.5 46.5zM270 696h181q74 0 127 52.5t53 128.5v114q0 74 -53.5 127t-126.5 53h-181v-475z" />
<glyph unicode="Q" d="M115 303v696q0 129 91 220.5t220 91.5t220 -91.5t91 -220.5v-696q0 -139 -102 -231l94 -162q9 -15 9 -31q0 -9 -3 -19q-8 -26 -30 -40q-15 -8 -30 -8q-10 0 -19 3q-27 7 -42 29l-92 162q-53 -14 -96 -14q-129 0 -220 91t-91 220zM246 303q0 -76 53 -128t127 -52 q76 0 128 52t52 128v696q0 74 -52 127.5t-128 53.5q-74 0 -127 -53.5t-53 -127.5v-696z" />
<glyph unicode="R" d="M139 57v1180q0 27 19.5 46.5t46.5 19.5h246q129 0 220 -91.5t91 -220.5v-114q0 -96 -53.5 -174t-139.5 -115l189 -508q5 -12 5 -23q-1 -13 -7 -27q-12 -26 -37 -34q-12 -5 -24 -5q-13 0 -27 6q-26 11 -33 38l-197 530h-168v-508q0 -29 -18.5 -47t-46.5 -18 q-27 0 -46.5 19.5t-19.5 45.5zM270 696h181q76 0 128 52.5t52 128.5v114q0 74 -52.5 127t-127.5 53h-181v-475z" />
<glyph unicode="S" horiz-adv-x="782" d="M98 152q-10 20 -10 37q0 32 35 53q23 14 49.5 7t40.5 -32q41 -74 127 -90q20 -4 39 -4q61 0 113 39q70 51 75 137q1 8 1 16q0 77 -54 131l-328 336q-87 91 -87 210q0 15 1 30q10 141 123 225q85 65 183 65q33 0 67 -8q137 -28 207 -149q14 -23 7 -49.5t-32 -40.5 q-23 -14 -49 -6t-39 31q-41 70 -121 86q-20 4 -38 4q-57 0 -107 -37q-63 -47 -70 -129q-1 -8 0 -15q0 -71 50 -125l327 -337q91 -93 91 -222q0 -13 -1 -26q-12 -145 -127 -232q-88 -66 -190 -66q-33 0 -68 7q-141 29 -215 154z" />
<glyph unicode="T" horiz-adv-x="778" d="M57 1237q0 27 19.5 46.5t46.5 19.5h532q29 0 47.5 -18.5t18.5 -47.5t-18.5 -47.5t-47.5 -18.5h-200v-1114q0 -29 -18.5 -47t-47.5 -18q-27 0 -46 19.5t-19 45.5v1114h-201q-27 0 -46.5 19.5t-19.5 46.5z" />
<glyph unicode="U" horiz-adv-x="868" d="M123 303v942q0 29 18.5 47.5t46.5 18.5q27 0 46.5 -19.5t19.5 -46.5v-942q0 -76 52 -128t128 -52q74 0 127 52t53 128v942q0 29 18.5 47.5t47.5 18.5q27 0 46 -19.5t19 -46.5v-942q0 -129 -92 -220t-219 -91q-129 0 -220 91t-91 220z" />
<glyph unicode="V" horiz-adv-x="917" d="M70 1227q-3 10 -3 20q0 16 8 30q13 23 40 32q8 2 16 2q18 1 34 -9q23 -14 30 -40q182 -659 266 -959l264 959q5 27 29 40q16 9 34 9q8 0 17 -2q27 -8 40 -32q8 -15 8 -30q0 -10 -3 -20l-328 -1188q-4 -20 -22.5 -33.5t-38.5 -13.5q-50 0 -64 47z" />
<glyph unicode="W" horiz-adv-x="1429" d="M78 1229q-2 9 -2 18q0 17 9 33q13 22 40 28.5t50.5 -8t29.5 -40.5q145 -604 223 -924l223 924q10 51 64 51q49 0 63 -51q145 -604 223 -924q223 924 224 924q6 27 28.5 41t48.5 8q28 -6 42 -30q10 -17 10 -35q0 -7 -2 -15l-287 -1188q-14 -49 -64 -49q-53 0 -63 49 q-147 606 -223 926l-223 -926q-14 -49 -64 -49q-53 0 -63 49z" />
<glyph unicode="X" horiz-adv-x="864" d="M62 36q-4 10 -4 20q0 15 8 30l292 586l-272 545q-12 23 -3 49t34 39q12 5 26 5q11 0 23 -4q26 -8 39 -32l227 -455l227 455q12 25 38 33q12 4 23 4q14 0 28 -6q25 -12 32.5 -39t-2.5 -49l-272 -545l293 -586q6 -14 6 -28q0 -10 -4 -22q-8 -26 -33 -38q-14 -7 -29 -7 q-11 0 -21 4q-26 9 -38 34l-248 495l-248 -495q-12 -25 -38 -34q-11 -4 -23 -4q-14 0 -27 7q-25 12 -34 38z" />
<glyph unicode="Y" horiz-adv-x="823" d="M63 1266q9 26 33 39q12 5 26 5q11 0 24 -4q26 -8 38 -32l228 -455l227 455q12 25 37 33q12 4 23 4q14 0 28 -6q25 -12 34 -39q4 -12 4 -22q0 -14 -7 -27l-281 -562v-598q0 -29 -19.5 -47t-46 -18t-46 18t-19.5 47v598l-280 562q-7 13 -7 27q0 11 4 22z" />
<glyph unicode="Z" horiz-adv-x="786" d="M82 66q0 12 6 24q387 926 453 1081h-394q-29 0 -47 18.5t-18 47.5t18.5 47.5t46.5 18.5h492q37 0 55 -29q10 -20 11 -37q0 -8 -5 -25q-389 -928 -454 -1081h393q29 0 47.5 -18.5t18.5 -47t-18.5 -47t-47.5 -18.5h-492q-37 0 -55 29q-10 21 -10 37z" />
<glyph unicode="[" horiz-adv-x="524" d="M139 -98v1499q0 29 18.5 47t47.5 18h205q29 0 47 -18t18 -47t-18.5 -47.5t-46.5 -18.5h-140v-1368h140q29 0 47 -18.5t18 -47t-18.5 -47t-46.5 -18.5h-205q-29 0 -47.5 18.5t-18.5 47.5z" />
<glyph unicode="\" d="M119 1305q-8 27 3 50t36 34q27 8 50.5 -3t33.5 -36l491 -1352q10 -27 -1 -51.5t-38 -32.5q-25 -10 -50.5 1t-33.5 38z" />
<glyph unicode="]" horiz-adv-x="524" d="M49 -98.5q0 28.5 18.5 47t47.5 18.5h139v1368h-139q-29 0 -47.5 18.5t-18.5 47.5t18.5 47t47.5 18h204q27 0 46.5 -19.5t19.5 -45.5v-1499q0 -27 -19.5 -46.5t-46.5 -19.5h-204q-29 0 -47.5 18.5t-18.5 47z" />
<glyph unicode="^" horiz-adv-x="1024" d="M124 872q-1 27 15 48l324 368q18 23 49 23t49 -23l324 -368q16 -20 15 -47t-21 -46q-23 -18 -49.5 -16t-45.5 23q-201 231 -272 311l-272 -311q-18 -20 -45 -22.5t-50 15.5q-20 18 -21 45z" />
<glyph unicode="_" horiz-adv-x="1024" d="M-66 -229.5q0 28.5 18.5 47t47.5 18.5h1024q27 0 46.5 -19.5t19.5 -46t-19.5 -46t-46.5 -19.5h-1024q-29 0 -47.5 18.5t-18.5 47z" />
<glyph unicode="`" horiz-adv-x="1024" d="M345.5 1282q-1.5 27 14.5 47q18 20 46 22.5t49 -16.5l204 -184q20 -18 21.5 -45t-17 -47.5t-45 -22.5t-47.5 17l-204 184q-20 18 -21.5 45z" />
<glyph unicode="a" horiz-adv-x="720" d="M61 270.5q0 110.5 78 188.5t189 78h143v139q0 92 -86 129q-31 12 -59 12q-52 0 -93 -43q-18 -18 -43.5 -18t-44 18.5t-18.5 44t18 41.5q57 56 135 72q26 5 52 6q51 0 100 -20q74 -30 118 -96t44 -146v-610q0 -27 -18.5 -44.5t-43.5 -17.5h-204q-111 0 -189 78t-78 188.5z M184 270.5q0 -59.5 42 -101.5t102 -42h143v287h-143q-59 0 -101.5 -42t-42.5 -101.5z" />
<glyph unicode="b" horiz-adv-x="794" d="M143 66v1220q0 27 17.5 44.5t44.5 17.5q25 0 43 -17.5t18 -44.5v-356h144q109 0 187.5 -78t78.5 -188v-394q0 -111 -79 -188.5t-187 -77.5h-205q-27 0 -44.5 17.5t-17.5 44.5zM266 127h144q59 0 101 42t42 101v394q0 59 -42 101t-101 42h-144v-680z" />
<glyph unicode="c" horiz-adv-x="671" d="M119 262v410q0 82 44 148q43 68 119 98q51 20 103 20q25 0 51 -5q78 -15 137 -73q17 -19 17 -45q0 -25 -17 -43q-18 -16 -43.5 -16t-44.5 16q-44 45 -97 45q-28 0 -58 -12q-39 -16 -63.5 -53t-24.5 -80v-410q0 -43 24.5 -80t63.5 -53q31 -13 59 -13q52 0 96 44 q18 18 44 18t44 -18q17 -17 17 -43q0 -25 -17 -43q-59 -56 -137 -72q-26 -5 -52 -6q-52 0 -102 20q-76 30 -119.5 97t-43.5 149z" />
<glyph unicode="d" horiz-adv-x="794" d="M119 270v394q0 111 77.5 188.5t188.5 77.5h143v356q0 27 17.5 44.5t44.5 17.5q25 0 43 -17.5t18 -44.5v-1220q0 -27 -18.5 -44.5t-42.5 -17.5h-205q-111 0 -188.5 78t-77.5 188zM242 270q0 -59 42 -101t101 -42h143v680h-143q-59 0 -101 -42t-42 -101v-394z" />
<glyph unicode="e" horiz-adv-x="753" d="M119 262v410q0 111 77.5 188.5t188.5 77.5t188.5 -78t77.5 -188v-205q0 -27 -17.5 -44t-43.5 -17h-348v-144q0 -43 24.5 -80t63.5 -53q31 -13 59 -13q52 0 96 44q18 18 44 18t44 -18q18 -16 18.5 -42t-18.5 -44q-57 -56 -136 -72q-27 -5 -53 -6q-52 0 -102 20 q-76 30 -119.5 97t-43.5 149zM242 528h286v144q0 59 -42 101t-101 42t-101 -42t-42 -101v-144z" />
<glyph unicode="f" horiz-adv-x="606" d="M53 868.5q0 26.5 17.5 44t44.5 17.5h102v151q0 111 78 189t188 78q27 0 44.5 -17.5t17.5 -44t-17.5 -44t-44.5 -17.5q-59 0 -101 -42t-42 -102v-151h143q27 0 44.5 -17.5t17.5 -44t-17.5 -44t-44.5 -17.5h-143v-750q0 -27 -17.5 -44t-44 -17t-44 17.5t-17.5 43.5v750 h-102q-27 0 -44.5 17.5t-17.5 44z" />
<glyph unicode="g" horiz-adv-x="786" d="M119 270v394q0 111 77.5 188.5t188.5 77.5h205q27 0 44 -17.5t17 -44.5v-1015q0 -82 -44 -148.5t-119 -97.5q-51 -21 -102 -21q-26 0 -52 6q-78 15 -137 72q-18 18 -18.5 44t18.5 42q18 18 43.5 18.5t44.5 -18.5q44 -44 96 -44q28 0 59 13q39 16 63.5 53.5t24.5 80.5v151 h-143q-111 0 -188.5 78t-77.5 188zM242 270q0 -59 42 -101t101 -42h143v680h-143q-59 0 -101 -42t-42 -101v-394z" />
<glyph unicode="h" horiz-adv-x="802" d="M143 57v1229q0 27 18.5 44.5t43.5 17.5q27 0 44 -17.5t17 -44.5v-356h144q111 0 188.5 -78t77.5 -188v-607q0 -27 -17.5 -44t-44.5 -17q-25 0 -43 17.5t-18 43.5v607q0 59 -42 101t-101 42h-144v-750q0 -27 -17 -44t-44 -17q-25 0 -43.5 17.5t-18.5 43.5z" />
<glyph unicode="i" horiz-adv-x="409" d="M123 1184q0 33 24.5 57.5t57.5 24.5t57.5 -24.5t24.5 -57.5t-24.5 -57.5t-57.5 -24.5t-57.5 24.5t-24.5 57.5zM143 57v820q0 27 18.5 44t43.5 17q27 0 44 -17.5t17 -43.5v-820q0 -27 -17.5 -44t-43.5 -17q-25 0 -43.5 17.5t-18.5 43.5z" />
<glyph unicode="j" horiz-adv-x="425" d="M-45 -352.5q0 26.5 18.5 44t42.5 17.5q59 0 101.5 42t42.5 102v1024q0 27 18.5 44t42.5 17q27 0 44.5 -17.5t17.5 -43.5v-1024q0 -111 -78 -189t-189 -78q-25 0 -43 17.5t-18 44zM139 1184q0 33 24.5 57.5t57.5 24.5t57.5 -24.5t24.5 -57.5t-24.5 -57.5t-57.5 -24.5 t-57.5 24.5t-24.5 57.5z" />
<glyph unicode="k" horiz-adv-x="778" d="M143 57v1229q0 27 17.5 44.5t44.5 17.5q25 0 43 -17.5t18 -44.5v-751l342 383q16 18 42 19t46 -15q20 -17 20 -46q0 -23 -16 -40l-249 -279l258 -471q8 -13 8 -27q0 -9 -3 -18q-7 -25 -30 -37q-20 -12 -46 -5t-38 28l-235 432l-99 -109v-293q0 -27 -18.5 -44t-42.5 -17 q-27 0 -44.5 17.5t-17.5 43.5z" />
<glyph unicode="l" horiz-adv-x="409" d="M137 199v1087q0 27 18.5 44.5t43.5 17.5q27 0 44 -17.5t17 -44.5v-1087q0 -57 51 -88q23 -12 30 -38q2 -9 2 -17q0 -16 -9 -29q-12 -23 -36 -29q-8 -2 -17 -2q-16 0 -31 8q-113 68 -113 195z" />
<glyph unicode="m" horiz-adv-x="1212" d="M143 57v811q0 27 17.5 44.5t44.5 17.5h614q109 0 187.5 -78t78.5 -188v-607q0 -27 -18 -44t-43 -17q-27 0 -44 17.5t-17 43.5v607q0 59 -42 101t-102 42h-143v-750q0 -27 -18.5 -44t-43.5 -17q-27 0 -44 17.5t-17 43.5v750h-287v-750q0 -27 -18.5 -44t-42.5 -17 q-27 0 -44.5 17.5t-17.5 43.5z" />
<glyph unicode="n" horiz-adv-x="802" d="M143 57v811q0 27 17.5 44.5t44.5 17.5h205q109 0 187.5 -78t78.5 -188v-607q0 -27 -18.5 -44t-43.5 -17q-27 0 -44 17.5t-17 43.5v607q0 59 -42 101t-101 42h-144v-750q0 -27 -18 -44t-43 -17q-27 0 -44.5 17.5t-17.5 43.5z" />
<glyph unicode="o" horiz-adv-x="770" d="M119 262v410q0 111 77.5 188.5t188.5 77.5q109 0 187.5 -78t78.5 -188v-410q0 -111 -78.5 -188.5t-187.5 -77.5q-111 0 -188.5 78t-77.5 188zM242 262q0 -59 42 -101t101 -42t101 42t42 101v410q0 59 -42 101t-101 42t-101 -42t-42 -101v-410z" />
<glyph unicode="p" horiz-adv-x="794" d="M143 -352v1220q0 27 17.5 44.5t44.5 17.5h205q109 0 187.5 -78t78.5 -188v-394q0 -111 -79 -188.5t-187 -77.5h-144v-356q0 -27 -18 -44.5t-43 -17.5q-27 0 -44.5 17.5t-17.5 44.5zM266 127h144q59 0 101 42t42 101v394q0 59 -42 101t-101 42h-144v-680z" />
<glyph unicode="q" horiz-adv-x="794" d="M119 270v394q0 111 77.5 188.5t188.5 77.5h205q25 0 43 -17.5t18 -44.5v-1220q0 -27 -18.5 -44.5t-42.5 -17.5q-27 0 -44.5 17.5t-17.5 44.5v356h-143q-111 0 -188.5 78t-77.5 188zM242 270q0 -59 42 -101t101 -42h143v680h-143q-59 0 -101 -42t-42 -101v-394z" />
<glyph unicode="r" horiz-adv-x="612" d="M143 57v811q0 27 17.5 44.5t44.5 17.5h205q70 0 133 -35q23 -13 29 -37q2 -8 2 -16q0 -16 -8 -31q-12 -23 -38 -30t-47 7q-35 18 -71 19h-144v-750q0 -27 -17.5 -44t-44 -17t-44 17.5t-17.5 43.5z" />
<glyph unicode="s" horiz-adv-x="673" d="M99 169q7 26 27.5 38t46.5 5t38 -28q33 -53 94 -63q11 -2 22 -2q47 0 87 35q42 38 42 90q0 7 -1 14q-4 61 -56 98l-190 136q-94 66 -105 184v16q0 110 80 180q72 67 165 67q19 0 38 -3q119 -20 176 -121q12 -20 5 -46t-27.5 -38t-46 -5t-37.5 28q-29 49 -89 59 q-12 2 -22 2q-45 0 -80 -33q-39 -36 -39 -88v-10q4 -59 54 -92l190 -133q100 -72 107 -193q1 -12 1 -23q0 -106 -83 -180q-73 -68 -168 -68q-20 0 -41 3q-121 18 -183 125q-8 13 -8 28q0 8 3 18z" />
<glyph unicode="t" horiz-adv-x="606" d="M53 868.5q0 26.5 17.5 44t44.5 17.5h102v356q0 27 17.5 44.5t44 17.5t44 -17.5t17.5 -44.5v-356h143q27 0 44.5 -17.5t17.5 -44t-17.5 -44t-44.5 -17.5h-143v-545q0 -59 42 -101t101 -42q27 0 44.5 -17.5t17.5 -44t-17.5 -44t-44.5 -17.5q-111 0 -188.5 78t-77.5 188v545 h-102q-27 0 -44.5 17.5t-17.5 44z" />
<glyph unicode="u" horiz-adv-x="802" d="M127 270v607q0 27 17.5 44t44 17t44 -17.5t17.5 -43.5v-607q0 -59 42 -101t101 -42h144v750q0 27 17 44t44 17t44 -17.5t17 -43.5v-811q0 -27 -17 -44.5t-44 -17.5h-205q-111 0 -188.5 78t-77.5 188z" />
<glyph unicode="v" horiz-adv-x="757" d="M74 858q-2 8 -2 16q0 16 8 32q12 22 37 30q8 2 15 2q15 0 30 -8q22 -12 31 -35q119 -397 186 -625l186 625q9 23 31 35q15 8 31 8q8 0 16 -2q25 -8 37 -30q7 -14 7 -28q0 -10 -3 -20l-246 -819q-14 -43 -59.5 -43t-59.5 43z" />
<glyph unicode="w" horiz-adv-x="1101" d="M80 862q-2 8 -2 15q0 15 9 31q13 22 38 28t46.5 -7.5t27.5 -37.5q86 -340 145 -580l145 580q14 47 60 47q49 0 59 -47q86 -340 146 -580l145 580q6 25 27.5 38t48.5 7q25 -6 37 -28q8 -14 8 -30q0 -8 -2 -16l-205 -819q-10 -47 -59 -47q-45 0 -60 47q-84 340 -145 580 l-146 -580q-10 -47 -59 -47q-45 0 -59 47z" />
<glyph unicode="x" horiz-adv-x="737" d="M81 41q-3 9 -3 18q0 15 8 27l213 389l-205 371q-12 23 -5 47.5t30 36.5q13 8 27 8q8 0 18 -3q26 -7 39 -30l166 -303l168 303q13 23 37 30q9 3 17 3q15 0 29 -8q22 -12 29.5 -37t-4.5 -47l-205 -371l213 -389q8 -15 7 -29q0 -9 -2 -17q-8 -24 -30 -36q-15 -8 -30 -8 q-8 0 -16 2q-24 6 -37 29l-176 319l-174 -319q-12 -19 -38 -27q-10 -3 -19 -3q-15 0 -27 7q-23 12 -30 37z" />
<glyph unicode="y" horiz-adv-x="755" d="M41 -352.5q0 26.5 17.5 44t43.5 17.5q47 0 85 29t53 74l73 245l-239 801q-8 25 4 47.5t37 30.5q8 2 16 2q16 0 30 -8q21 -12 29 -35l187 -625l188 625q6 23 29 35q14 8 31 8q8 0 16 -2q25 -8 37 -30q7 -14 7 -28q0 -10 -3 -20l-246 -819l-78 -262q-29 -88 -96 -137 q-72 -54 -160 -54q-27 0 -44 17.5t-17 44z" />
<glyph unicode="z" horiz-adv-x="704" d="M86 66q0 12 6 28q291 571 365 713h-310q-27 0 -44 17.5t-17 44t17.5 44t43.5 17.5h410q35 0 51 -29q10 -16 10 -33q0 -8 -8 -28q-291 -571 -362 -713h309q25 0 43 -17.5t18 -44t-18 -44t-43 -17.5h-410q-37 0 -53 29q-8 15 -8 33z" />
<glyph unicode="{" horiz-adv-x="524" d="M33 671.5q0 28.5 18.5 47t46.5 18.5q41 0 70 29t29 70v409q0 94 67.5 162t161.5 68q29 0 47.5 -18.5t18.5 -47.5t-18.5 -47.5t-47.5 -18.5q-41 0 -69.5 -28.5t-28.5 -69.5v-409q0 -98 -70 -164q70 -66 70 -164v-451q0 -41 28.5 -69.5t69.5 -28.5q29 0 47.5 -18.5 t18.5 -47t-18.5 -47t-47.5 -18.5q-94 0 -161.5 67.5t-67.5 161.5v451q0 41 -29 69.5t-70 28.5q-29 0 -47 18.5t-18 47z" />
<glyph unicode="|" horiz-adv-x="425" d="M158 -352v2048q0 29 19.5 47t46 18t46 -18.5t19.5 -46.5v-2048q0 -29 -19.5 -47.5t-46 -18.5t-46 18.5t-19.5 47.5z" />
<glyph unicode="}" horiz-adv-x="524" d="M33 -106.5q0 28.5 18.5 47t46.5 18.5q41 0 70 28.5t29 69.5v451q0 100 67 164q-68 63 -67 164v409q0 41 -29 69.5t-70 28.5q-29 0 -47 18.5t-18 47.5t18.5 47.5t46.5 18.5q94 0 162 -68t68 -162v-409q0 -41 28.5 -70t69.5 -29q27 0 46.5 -19.5t19.5 -46t-19.5 -46 t-46.5 -19.5q-41 0 -69.5 -28.5t-28.5 -69.5v-451q0 -94 -67.5 -161.5t-162.5 -67.5q-29 0 -47 18.5t-18 47z" />
<glyph unicode="~" d="M90.5 484q-6.5 26 7.5 46q57 90 164 107q104 18 191 -45l24 -19q41 -33 94 -22q51 10 80 53q14 20 40 25.5t46.5 -9t26.5 -40t-8 -45.5q-57 -90 -164 -107q-104 -18 -191 45l-24 19q-41 33 -94 22q-51 -10 -80 -53q-14 -23 -39 -27t-47 10q-20 14 -26.5 40z" />
<glyph unicode="&#xa1;" horiz-adv-x="409" d="M119 856q0 35 25.5 60.5t60.5 25.5t60.5 -25.5t25.5 -60.5t-25.5 -60.5t-60.5 -25.5t-60.5 25.5t-25.5 60.5zM139 -270v819q0 27 19.5 46t46.5 19q29 0 47 -18t18 -47v-819q0 -29 -18.5 -47.5t-46.5 -18.5q-27 0 -46.5 19.5t-19.5 46.5z" />
<glyph unicode="&#xa2;" d="M184 262v410q0 82 45 149.5t121 100.5q25 8 39 12v106q0 29 18.5 47.5t47.5 18.5q27 0 46 -19.5t19 -46.5v-106q78 -20 125 -72q18 -18 18.5 -44.5t-18.5 -47.5q-20 -18 -47 -18t-45 18q-41 41 -96 41h-2h-2q-25 0 -52 -10q-86 -37 -86 -129v-410q0 -92 86 -129 q27 -10 52 -10h2h2q55 0 96 41q18 18 45 18t47 -18q18 -20 18.5 -47t-18.5 -45q-47 -51 -125 -72v-106q0 -27 -19.5 -46.5t-45.5 -19.5q-29 0 -47.5 18.5t-18.5 47.5v106q-20 2 -39 12q-76 33 -121 100.5t-45 149.5z" />
<glyph unicode="&#xa3;" d="M74 671.5q0 26.5 19.5 46t45.5 19.5h99v303q0 92 56 165t144 95q88 25 173 -10t132 -114q12 -23 5 -49.5t-29.5 -41t-49 -6.5t-40.5 31q-23 41 -67 59.5t-89 6.5q-47 -12 -75.5 -50.5t-28.5 -85.5v-303h180q29 0 47 -18.5t18 -47t-18 -47t-47 -18.5h-180v-309 q0 -90 -47 -166h391q29 0 47 -18.5t18 -47t-18.5 -47t-46.5 -18.5h-574q-23 0 -42 15.5t-21 39.5q-10 53 43 72q53 20 86 66.5t33 103.5v309h-99q-27 0 -46 19.5t-19 46z" />
<glyph unicode="&#xa4;" horiz-adv-x="1433" d="M80 322v608q0 2 2 4v2q0 2 2 4v2l248 426q10 20 33 10l743 -370l2 -2h2l248 -181q10 -6 10 -20v-606q0 -14 -14 -23l-123 -61l-248 -125l-125 -62l-2 -2h-2q-2 -2 -6 -2q-6 0 -6 2h-2q-2 0 -4 2l-744 371q-14 8 -14 23zM131 336l694 -346v553l-694 346v-553zM139 940 l701 -350l223 385l-701 348zM295 453v252q0 12 12 22q10 6 25 0l299 -149q14 -8 14 -23v-252q0 -16 -12 -22q-8 -4 -12.5 -4.5t-12.5 4.5l-299 149q-14 8 -14 23zM346 467l250 -125v199l-250 125v-199zM874 -10l74 37v591q0 16 15 23l247 125q8 6 25 -2q10 -6 10 -21l2 -567 l74 37v580l-217 155l-230 -397v-561zM997 51l201 101l-2 550l-199 -98v-553z" />
<glyph unicode="&#xa5;" d="M77 1266q9 26 34 39q23 10 49 1.5t39 -32.5l227 -455l227 455q12 25 38 33t50 -2q25 -12 33 -39t-2 -49l-240 -480h148q29 0 47 -18.5t18 -47t-18 -47t-47 -18.5h-188v-196h188q29 0 47 -18.5t18 -47.5t-18 -47t-47 -18h-188v-222q0 -29 -18.5 -47t-47.5 -18t-47.5 18 t-18.5 47v222h-172q-29 0 -47 18t-18 47t18.5 47.5t46.5 18.5h172v196h-172q-29 0 -47 18.5t-18 47t18.5 47t46.5 18.5h131l-239 480q-12 23 -3 49z" />
<glyph unicode="&#xa6;" horiz-adv-x="425" d="M147 -352v819q0 29 18.5 47t47.5 18t47.5 -18t18.5 -47v-819q0 -29 -18.5 -47.5t-47.5 -18.5t-47.5 18.5t-18.5 47.5zM147 877v819q0 29 18.5 47t47.5 18t47.5 -18.5t18.5 -46.5v-819q0 -29 -18.5 -47.5t-47.5 -18.5t-47.5 18.5t-18.5 47.5z" />
<glyph unicode="&#xa7;" d="M170 758q16 86 78 141q-55 66 -60 158q0 121 88 192q86 78 205 58q117 -20 174 -121q14 -23 7 -49.5t-31 -40.5q-23 -14 -48.5 -6t-39.5 30q-29 47 -84 58q-53 10 -97 -27q-43 -33 -43 -92q4 -57 46 -90l229 -185q55 -43 79.5 -107.5t10.5 -131.5q-14 -82 -78 -142 q57 -68 58 -157q4 -119 -86 -193q-90 -76 -205 -57q-117 20 -174 121q-14 23 -7 49.5t31 40.5q23 12 48.5 5t39.5 -30q29 -47 84 -57q53 -10 97 27q45 37 40 92q0 57 -43 90l-229 182h-2q-117 98 -88 242zM297 735q-12 -71 43 -114l164 -132q45 31 51 78q14 70 -41 115 l-164 131q-43 -31 -53 -78z" />
<glyph unicode="&#xa8;" horiz-adv-x="1024" d="M262 1184q0 35 25.5 60.5t60.5 25.5t60.5 -25.5t25.5 -60.5t-25.5 -60.5t-60.5 -25.5t-60.5 25.5t-25.5 60.5zM590 1184q0 35 25.5 60.5t60.5 25.5t60.5 -25.5t25.5 -60.5t-25.5 -60.5t-60.5 -25.5t-60.5 25.5t-25.5 60.5z" />
<glyph unicode="&#xa9;" horiz-adv-x="1470" d="M80 651.5q0 272.5 192 464.5q190 190 463 191q274 0 465 -191q193 -192 193 -464.5t-192.5 -465t-465.5 -192.5q-270 0 -462.5 192.5t-192.5 465zM205 651q0 -221 155.5 -376.5t374.5 -155.5q221 0 377 155.5t156 376.5q0 219 -156 375t-377 156q-219 0 -374.5 -156 t-155.5 -375zM510 508v287q0 76 47 137t121 81.5t144.5 -10t109.5 -96.5q14 -20 7 -45.5t-30 -38.5q-23 -14 -47 -7t-39 30q-16 29 -48 42t-64.5 5t-54 -36t-21.5 -62v-287q0 -35 21.5 -62.5t54 -36t64.5 5t48 42.5q14 23 39 30t47 -8q23 -12 30 -37.5t-7 -46.5 q-39 -68 -109.5 -97.5t-144.5 -9t-121 82t-47 137.5z" />
<glyph unicode="&#xaa;" horiz-adv-x="624" d="M111 815q0 84 59 143.5t143 59.5h84v84q0 66 -61.5 82t-95.5 -39q-12 -23 -35 -29t-45 6q-20 12 -27.5 36t4.5 44q35 59 98.5 85.5t131.5 8.5q66 -16 107.5 -70.5t41.5 -123.5v-430q0 -25 -17.5 -42.5t-41.5 -17.5h-144q-84 0 -143 59.5t-59 143.5zM229 815 q0 -35 25 -59.5t59 -24.5h84v168h-84q-35 0 -59.5 -24.5t-24.5 -59.5z" />
<glyph unicode="&#xab;" horiz-adv-x="858" d="M106 565q-16 33 0 64l132 237q14 25 39.5 33t50.5 -6q33 -20 32 -57q0 -20 -8 -31q-86 -160 -112 -207l120 -223q8 -14 9 -31q0 -37 -33 -57q-25 -14 -50.5 -6t-39.5 32zM475 565q-16 33 0 64l131 237q14 25 40 33t50 -6q33 -20 33 -57q0 -20 -8 -31q-86 -160 -113 -207 l121 -223q8 -14 8 -31q0 -37 -32 -57q-25 -14 -50.5 -6t-40.5 32z" />
<glyph unicode="&#xac;" d="M115 589.5q0 26.5 19.5 46t45.5 19.5h492q29 0 47 -18.5t18 -46.5v-246q0 -29 -18.5 -47t-46.5 -18q-27 0 -46.5 19t-19.5 46v180h-426q-27 0 -46 19.5t-19 46z" />
<glyph unicode="&#xad;" d="M115 589.5q0 28.5 18.5 47t46.5 18.5h492q27 0 46 -19.5t19 -46t-19.5 -46t-45.5 -19.5h-492q-29 0 -47 18.5t-18 47z" />
<glyph unicode="&#xae;" horiz-adv-x="1470" d="M80 651.5q0 272.5 192 464.5q190 190 463 191q274 0 465 -191q193 -193 193 -465t-192.5 -464.5t-465.5 -192.5q-270 0 -462.5 192.5t-192.5 465zM205 651q0 -221 155.5 -376.5t374.5 -155.5q221 0 377 155.5t156 376.5q0 219 -156 375t-377 156q-219 0 -374.5 -156 t-155.5 -375zM530 344v606q0 27 18.5 44.5t43.5 17.5h164q94 0 160.5 -65.5t66.5 -160.5q0 -66 -35 -120t-92 -82l119 -209q12 -23 6 -47.5t-29 -38.5q-23 -12 -48 -5t-38 29l-141 246h-70v-215q0 -27 -18 -45t-45 -18q-25 0 -43.5 18t-18.5 45zM655 684h101q43 0 72.5 30.5 t29.5 71.5t-29.5 71t-72.5 30h-101v-203z" />
<glyph unicode="&#xaf;" horiz-adv-x="1024" d="M-66 1532q0 29 18.5 47t47.5 18h1024q27 0 46.5 -19t19.5 -46t-19.5 -46.5t-46.5 -19.5h-1024q-29 0 -47.5 18.5t-18.5 47.5z" />
<glyph unicode="&#xb0;" horiz-adv-x="641" d="M78 1061q0 100 71.5 172t172 72t172 -72t71.5 -172t-71.5 -172t-172 -72t-172 70.5t-71.5 173.5zM197 1061q0 -53 36.5 -89t88 -36t88 36t36.5 89t-36.5 89t-88 36t-88 -36t-36.5 -89z" />
<glyph unicode="&#xb1;" d="M115 65.5q0 26.5 19.5 46t45.5 19.5h492q29 0 47 -18.5t18 -47t-18.5 -47t-46.5 -18.5h-492q-27 0 -46 19.5t-19 46zM115 589.5q0 26.5 19.5 46t45.5 19.5h180v181q0 27 19.5 46t46.5 19q29 0 47.5 -18.5t18.5 -46.5v-181h180q29 0 47 -18.5t18 -47t-18.5 -47 t-46.5 -18.5h-180v-180q0 -29 -18.5 -47t-47.5 -18q-27 0 -46.5 19t-19.5 46v180h-180q-27 0 -46 19.5t-19 46z" />
<glyph unicode="&#xb2;" horiz-adv-x="608" d="M113.5 1158q-7.5 24 5.5 44q43 74 125 96q84 18 155 -24q74 -41 93 -127q18 -84 -27 -154q-119 -190 -186 -295h159q25 0 42.5 -17t17.5 -42t-17.5 -42t-42.5 -17h-268q-35 0 -51 30q-18 33 2 60l246 387q20 29 10 63q-6 33 -39 54q-29 20 -64 10q-33 -8 -53 -39 q-12 -23 -34.5 -29t-45.5 6q-20 12 -27.5 36z" />
<glyph unicode="&#xb3;" horiz-adv-x="606" d="M111.5 1158q-7.5 24 5.5 44q59 102 176 103q119 0 174 -103q59 -100 0 -201q-13 -25 -31 -43q59 -59 60 -143v-41q0 -70 -42 -124t-108 -70q-68 -18 -131 8t-98 86q-12 20 -5 43.5t27 36.5q23 12 45.5 6t34.5 -29q35 -55 96.5 -38.5t61.5 81.5v41q0 35 -24.5 59.5 t-59.5 24.5q-25 0 -42.5 17.5t-17.5 42t17.5 42t42.5 17.5q47 0 74 41q23 43 0 86q-27 41 -74 41t-74 -41q-12 -23 -34.5 -29t-45.5 6q-20 12 -27.5 36z" />
<glyph unicode="&#xb4;" horiz-adv-x="1024" d="M345 1106q1 27 22 45l204 184q20 18 47 16.5t45.5 -22t17.5 -47.5t-22 -45l-204 -184q-20 -18 -48 -16.5t-45 22.5q-18 20 -17 47z" />
<glyph unicode="&#xb5;" horiz-adv-x="819" d="M143 -352v1229q0 27 17.5 44t44 17t44 -17.5t17.5 -43.5v-615q0 -59 42 -101t101.5 -42t101.5 42t42 101v615q0 27 17.5 44t44 17t44 -17.5t17.5 -43.5v-820q0 -27 -17.5 -44t-44.5 -17q-45 0 -59 43q-66 -43 -145.5 -43t-143.5 41v-389q0 -27 -17.5 -44.5t-44 -17.5 t-44 17.5t-17.5 44.5z" />
<glyph unicode="&#xb6;" horiz-adv-x="983" d="M70 991q0 127 90 217t217 90h512q27 0 45 -17t18 -44t-18.5 -45t-44.5 -18h-80v-1280q0 -27 -18.5 -45.5t-45 -18.5t-44 18.5t-17.5 45.5v1280h-162v-1280q0 -27 -18.5 -45.5t-45 -18.5t-44 18.5t-17.5 45.5v788h-20q-127 0 -217 91t-90 218zM195 991q0 -76 53 -130 t129 -54h20v367h-20q-76 0 -129 -53.5t-53 -129.5z" />
<glyph unicode="&#xb7;" horiz-adv-x="393" d="M111 794.5q0 34.5 25.5 60.5t60 26t60.5 -26t26 -60.5t-26 -60t-60.5 -25.5t-60 25.5t-25.5 60z" />
<glyph unicode="&#xb8;" horiz-adv-x="1024" d="M377 -244q-29 57 24 90q49 29 50 86v125q0 29 18 47.5t47 18.5t47.5 -18.5t18.5 -47.5v-125q0 -133 -115 -198q-23 -14 -49.5 -7t-40.5 29z" />
<glyph unicode="&#xb9;" horiz-adv-x="479" d="M55 1062.5q0 24.5 17 43.5l182 180q24 28 63 14q37 -16 37 -55v-614q0 -25 -17.5 -42.5t-42 -17.5t-41.5 17.5t-17 42.5v473l-80 -82q-18 -16 -43 -16t-41.5 16t-16.5 40.5z" />
<glyph unicode="&#xba;" horiz-adv-x="624" d="M111 815v287q0 84 59 143.5t143 59.5t143.5 -60.5t59.5 -142.5v-287q0 -84 -59.5 -143.5t-143.5 -59.5t-143 59.5t-59 143.5zM229 815q0 -35 25 -59.5t59.5 -24.5t59 24.5t24.5 59.5v287q0 35 -24.5 59.5t-59 24.5t-59.5 -24.5t-25 -59.5v-287z" />
<glyph unicode="&#xbb;" horiz-adv-x="858" d="M121 344q0 10 8 31q96 174 123 223l-115 207q-8 16 -8 31q0 39 35 57q23 14 49.5 6t38.5 -33l131 -237q18 -31 0 -64l-139 -252q-12 -25 -39 -33t-49 7q-35 18 -35 57zM489 344q0 10 9 31q96 174 123 223l-115 207q-8 16 -8 31q0 39 34 57q23 14 49.5 6t39.5 -33 l131 -237q18 -31 0 -64l-140 -252q-12 -25 -38.5 -33t-49.5 7q-35 18 -35 57z" />
<glyph unicode="&#xbc;" horiz-adv-x="1224" d="M55 1062.5q0 24.5 17 43.5l182 180q25 29 63 14q37 -16 37 -55v-614q0 -25 -17.5 -42.5t-42 -17.5t-41.5 17.5t-17 42.5v473l-80 -82q-18 -16 -43 -16t-41.5 16t-16.5 40.5zM232.5 35.5q-9.5 25.5 3.5 50.5l573 1188q12 25 37.5 33t50.5 -2q25 -12 33 -38t-2 -50 l-574 -1188q-12 -25 -37.5 -34t-50 3t-34 37.5zM672 244l182 450q10 23 32.5 32t45.5 1q37 -16 37 -55q0 -6 -4 -23q-106 -260 -152 -368h119v63q0 25 17.5 42t42 17t42 -17t17.5 -42v-63h47q25 0 42 -17.5t17 -42t-17.5 -42t-41.5 -17.5h-47v-105q0 -25 -17.5 -42t-42 -17 t-42 17.5t-17.5 41.5v105h-205q-33 0 -49 26q-18 27 -6 56z" />
<glyph unicode="&#xbd;" horiz-adv-x="1220" d="M55 1062.5q0 24.5 17 43.5l182 180q25 29 63 14q37 -16 37 -55v-614q0 -25 -17.5 -42.5t-42 -17.5t-41.5 17.5t-17 42.5v473l-80 -82q-18 -16 -43 -16t-41.5 16t-16.5 40.5zM232.5 35.5q-9.5 25.5 3.5 50.5l573 1188q12 25 37.5 33t50.5 -2q25 -12 33 -38t-2 -50 l-574 -1188q-12 -25 -37.5 -34t-50 3t-34 37.5zM769.5 584.5q-7.5 23.5 4.5 44.5q43 74 125 96q84 18 156 -25q74 -41 92 -127q18 -83 -27 -153q-119 -190 -186 -295h160q25 0 42 -17.5t17 -42t-17.5 -42t-41.5 -17.5h-269q-35 0 -51 31q-18 33 2 59l246 387q20 29 10 64 q-6 33 -39 53q-29 20 -63 10q-33 -8 -53 -39q-12 -23 -35 -28.5t-45 6.5q-20 12 -27.5 35.5z" />
<glyph unicode="&#xbe;" horiz-adv-x="1286" d="M73 717.5q7 23.5 27 36.5q23 12 45.5 6t34.5 -29q35 -55 96.5 -38.5t61.5 81.5v41q0 35 -24.5 59.5t-59.5 24.5q-25 0 -42 17.5t-17 42t17 42t42 17.5q47 0 74 41q23 43 0 86q-27 41 -74 41t-74 -41q-12 -23 -34.5 -29t-45.5 6q-20 12 -27 36t5 44q59 102 176 103 q119 0 174 -103q59 -100 0 -201q-12 -25 -31 -43q59 -59 60 -143v-41q0 -70 -42 -124t-108 -70q-68 -18 -131 8t-98 86q-12 20 -5 43.5zM294 35.5q-9 25.5 3 50.5l573 1188q12 25 37.5 33t50.5 -2q25 -12 33 -38t-2 -50l-573 -1188q-12 -25 -38 -34t-50.5 3t-33.5 37.5z M733 244l182 450q10 23 33 32t45 1q37 -16 37 -55q0 -6 -4 -23q-106 -260 -152 -368h119v63q0 25 17.5 42t42 17t42 -17t17.5 -42v-63h47q25 0 42.5 -17.5t17.5 -42t-17.5 -42t-42.5 -17.5h-47v-105q0 -25 -17.5 -42t-42 -17t-42 17.5t-17.5 41.5v105h-205q-33 0 -49 26 q-18 27 -6 56z" />
<glyph unicode="&#xbf;" horiz-adv-x="731" d="M84 -88q-10 141 88 242l104 104q51 55 52 127v164q0 27 19.5 46t45.5 19q29 0 47.5 -18t18.5 -47v-164q0 -129 -90 -219l-103 -105q-57 -57 -51 -139q4 -82 69.5 -131t145.5 -32.5t121 85.5q12 23 38.5 30t49.5 -5q25 -14 32 -41t-7 -49q-72 -125 -209 -150 q-135 -28 -250 58q-111 86 -121 225zM307 856q0 35 25.5 60.5t60.5 25.5t60.5 -25.5t25.5 -60.5t-25.5 -60.5t-60.5 -25.5t-60.5 25.5t-25.5 60.5z" />
<glyph unicode="&#xc0;" horiz-adv-x="884" d="M51 74l328 1188q14 49 63.5 49t63.5 -49l328 -1188q8 -27 -6.5 -49.5t-41 -30.5t-49 5t-30.5 40q-27 100 -66 240h-397l-66 -240q-8 -27 -31.5 -40t-50 -5t-40 30.5t-5.5 49.5zM274.5 1691.5q-2.5 26.5 16 47t45 22.5t47.5 -16l205 -184q20 -18 22 -45t-16.5 -47.5 t-45 -22.5t-46.5 16l-205 185q-20 18 -22.5 44.5zM281 410h323q-33 119 -93 341t-69 248q-8 -27 -68 -248.5t-93 -340.5z" />
<glyph unicode="&#xc1;" horiz-adv-x="884" d="M51 74l328 1188q14 49 63.5 49t63.5 -49l328 -1188q8 -27 -6.5 -49.5t-41 -30.5t-49 5t-30.5 40q-27 100 -66 240h-397l-66 -240q-8 -27 -31.5 -40t-50 -5t-40 30.5t-5.5 49.5zM274 1515.5q2 26.5 23 45.5l205 184q20 18 46.5 16t45 -22.5t16.5 -47t-22 -44.5l-205 -185 q-20 -18 -47 -16t-45.5 22.5t-16.5 47zM281 410h323q-33 119 -93 341t-69 248q-8 -27 -68 -248.5t-93 -340.5z" />
<glyph unicode="&#xc2;" horiz-adv-x="884" d="M51 74l328 1188q14 49 63.5 49t63.5 -49l328 -1188q8 -27 -6.5 -49.5t-41 -30.5t-49 5t-30.5 40q-27 100 -66 240h-397l-66 -240q-8 -27 -31.5 -40t-50 -5t-40 30.5t-5.5 49.5zM196 1519.5q3 26.5 23 41.5l184 143q39 33 78 0l185 -143q20 -16 23 -41t-13 -47 q-14 -20 -41 -23.5t-47 12.5q-96 76 -146 113l-145 -113q-20 -16 -47 -13t-41 24q-16 20 -13 46.5zM281 410h323q-33 119 -93 341t-69 248q-8 -27 -68 -248.5t-93 -340.5z" />
<glyph unicode="&#xc3;" horiz-adv-x="884" d="M51 74l328 1188q14 49 63.5 49t63.5 -49l328 -1188q8 -27 -6.5 -49.5t-41 -30.5t-49 5t-30.5 40q-27 100 -66 240h-397l-66 -240q-8 -27 -31.5 -40t-50 -5t-40 30.5t-5.5 49.5zM198 1557.5q-5 25.5 9 46.5q45 68 123 79q80 12 143 -34l16 -13q20 -16 46 -10q25 2 40 27 q14 23 39 26.5t48 -10.5q20 -14 26 -39.5t-8 -46.5q-45 -68 -123 -80q-80 -12 -143 35l-17 12q-23 12 -47 11q-25 -4 -39 -27q-37 -51 -88 -16q-20 14 -25 39.5zM281 410h323q-33 119 -93 341t-69 248q-8 -27 -68 -248.5t-93 -340.5z" />
<glyph unicode="&#xc4;" horiz-adv-x="884" d="M51 74l328 1188q14 49 63.5 49t63.5 -49l328 -1188q8 -27 -6.5 -49.5t-41 -30.5t-49 5t-30.5 40q-27 100 -66 240h-397l-66 -240q-8 -27 -31.5 -40t-50 -5t-40 30.5t-5.5 49.5zM193 1593.5q0 34.5 25.5 60t60 25.5t60.5 -25.5t26 -60t-26 -60.5t-60.5 -26t-60 26 t-25.5 60.5zM281 410h323q-33 119 -93 341t-69 248q-8 -27 -68 -248.5t-93 -340.5zM520 1593.5q0 34.5 25.5 60t60.5 25.5t60.5 -25.5t25.5 -60t-25.5 -60.5t-60.5 -26t-60.5 26t-25.5 60.5z" />
<glyph unicode="&#xc5;" horiz-adv-x="884" d="M51 74l328 1188q14 49 63.5 49t63.5 -49l328 -1188q8 -27 -6.5 -49.5t-41 -30.5t-49 5t-30.5 40q-27 100 -66 240h-397l-66 -240q-8 -27 -31.5 -40t-50 -5t-40 30.5t-5.5 49.5zM268 1614q0 72 51.5 123t122.5 51q74 0 125 -51t51 -123t-51 -124t-125 -52q-72 0 -123 52 t-51 124zM281 410h323q-33 119 -93 341t-69 248q-8 -27 -68 -248.5t-93 -340.5zM373 1613.5q0 -28.5 20.5 -50t49 -21.5t50 21.5t21.5 50t-21.5 49t-50 20.5t-49 -20.5t-20.5 -49z" />
<glyph unicode="&#xc6;" horiz-adv-x="1263" d="M38 33.5q-9 25.5 1 50.5l528 1180q16 39 62 39h493q29 0 47.5 -18.5t18.5 -47.5t-18.5 -47.5t-47.5 -18.5h-344v-434h303q29 0 47.5 -18.5t18.5 -47t-18.5 -47t-47.5 -18.5h-303v-475h344q29 0 47.5 -18.5t18.5 -47t-18.5 -47t-47.5 -18.5h-409q-27 0 -46.5 19.5 t-19.5 46.5v213h-377l-110 -248q-12 -25 -38 -34t-50.5 1t-33.5 35.5zM330 410h317v712q-25 -55 -76 -169.5t-124.5 -281.5t-116.5 -261z" />
<glyph unicode="&#xc7;" horiz-adv-x="806" d="M115 303v696q0 106 63.5 189.5t165.5 111.5q100 27 198.5 -14t151.5 -131l21 -35q14 -25 7 -50.5t-32 -39.5q-23 -14 -48.5 -7t-39.5 32l-20 35q-31 53 -88.5 75.5t-114.5 8.5q-59 -14 -96 -63.5t-37 -111.5v-696q0 -61 36.5 -110.5t96.5 -63.5q57 -14 114.5 8.5 t88.5 75.5l20 35q14 25 40 32t48 -8q25 -14 32 -39.5t-7 -50.5l-21 -35q-70 -119 -202 -149v-70q0 -131 -117 -198q-23 -14 -48.5 -7t-39.5 29q-14 25 -7 50.5t31 39.5q49 31 49 86v70q-4 2 -8 2t-8 2q-102 29 -165.5 112t-63.5 189z" />
<glyph unicode="&#xc8;" horiz-adv-x="753" d="M139 66v1171q0 29 18.5 47.5t47.5 18.5h409q27 0 46.5 -19.5t19.5 -46.5t-19.5 -46.5t-46.5 -19.5h-344v-434h303q27 0 46.5 -19.5t19.5 -46t-19.5 -46t-46.5 -19.5h-303v-475h344q27 0 46.5 -19.5t19.5 -46t-19.5 -46t-46.5 -19.5h-409q-29 0 -47.5 18.5t-18.5 47.5z M241 1691.5q-1 26.5 17 47t45 22.5t47 -16l205 -184q20 -18 21.5 -45t-17.5 -48q-16 -20 -44 -22t-48 16l-205 185q-20 18 -21 44.5z" />
<glyph unicode="&#xc9;" horiz-adv-x="753" d="M139 66v1171q0 29 18.5 47.5t47.5 18.5h409q27 0 46.5 -19.5t19.5 -46.5t-19.5 -46.5t-46.5 -19.5h-344v-434h303q27 0 46.5 -19.5t19.5 -46t-19.5 -46t-46.5 -19.5h-303v-475h344q27 0 46.5 -19.5t19.5 -46t-19.5 -46t-46.5 -19.5h-409q-29 0 -47.5 18.5t-18.5 47.5z M241 1516q1 27 21 45l205 184q20 18 48 16t44 -22q18 -20 17 -47t-21 -45l-205 -185q-20 -18 -47 -16t-45 22.5t-17 47.5z" />
<glyph unicode="&#xca;" horiz-adv-x="753" d="M139 66v1171q0 29 18.5 47.5t47.5 18.5h409q27 0 46.5 -19.5t19.5 -46.5t-19.5 -46.5t-46.5 -19.5h-344v-434h303q27 0 46.5 -19.5t19.5 -46t-19.5 -46t-46.5 -19.5h-303v-475h344q27 0 46.5 -19.5t19.5 -46t-19.5 -46t-46.5 -19.5h-409q-29 0 -47.5 18.5t-18.5 47.5z M163 1520q3 24 23 41l185 143q39 31 75 0l185 -143q20 -14 24 -41t-12 -47.5t-42 -23.5t-46 13q-98 76 -145 113l-148 -113q-20 -16 -46 -12.5t-40 23.5q-16 23 -13 47z" />
<glyph unicode="&#xcb;" horiz-adv-x="753" d="M139 66v1171q0 29 18.5 47.5t47.5 18.5h409q29 0 47.5 -18.5t18.5 -47.5t-18.5 -47.5t-47.5 -18.5h-344v-434h303q29 0 47.5 -18.5t18.5 -47t-18.5 -47t-47.5 -18.5h-303v-475h344q29 0 47.5 -18.5t18.5 -47t-18.5 -47t-47.5 -18.5h-409q-29 0 -47.5 18.5t-18.5 47.5z M160 1593.5q0 34.5 25.5 60t60.5 25.5t60.5 -25.5t25.5 -60t-25.5 -60.5t-60.5 -26t-60.5 26t-25.5 60.5zM487 1593.5q0 34.5 26 60t60.5 25.5t60 -25.5t25.5 -60t-25.5 -60.5t-60 -26t-60.5 26t-26 60.5z" />
<glyph unicode="&#xcc;" horiz-adv-x="409" d="M37 1691.5q-2 26.5 16.5 47t45 22.5t46.5 -16l205 -184q20 -18 22.5 -45t-16 -47.5t-45 -22.5t-47.5 16l-205 185q-20 18 -22 44.5zM139 57v1188q0 29 18.5 47.5t47 18.5t47 -18.5t18.5 -47.5v-1188q0 -29 -18.5 -47t-47 -18t-47 18.5t-18.5 46.5z" />
<glyph unicode="&#xcd;" horiz-adv-x="409" d="M37 1515.5q2 26.5 22 45.5l205 184q20 18 47 16t45.5 -22.5t16.5 -47t-23 -44.5l-205 -185q-20 -18 -46.5 -16t-45 22.5t-16.5 47zM139 57v1188q0 29 18.5 47.5t47 18.5t47 -18.5t18.5 -47.5v-1188q0 -29 -18.5 -47t-47 -18t-47 18.5t-18.5 46.5z" />
<glyph unicode="&#xce;" horiz-adv-x="409" d="M-42 1519.5q3 26.5 24 41.5l184 143q39 33 78 0l184 -143q20 -14 23 -41t-13 -47q-14 -20 -40.5 -23.5t-47.5 12.5q-98 76 -145 113q-145 -113 -146 -113q-20 -16 -46.5 -13t-41.5 24q-16 20 -13 46.5zM139 57v1188q0 29 18.5 47.5t47 18.5t47 -18.5t18.5 -47.5v-1188 q0 -29 -18.5 -47t-47 -18t-47 18.5t-18.5 46.5z" />
<glyph unicode="&#xcf;" horiz-adv-x="409" d="M-45 1593.5q0 34.5 25.5 60t60.5 25.5t60.5 -25.5t25.5 -60t-25.5 -60.5t-60.5 -26t-60.5 26t-25.5 60.5zM139 57v1188q0 29 18.5 47.5t47 18.5t47 -18.5t18.5 -47.5v-1188q0 -29 -18.5 -47t-47 -18t-47 18.5t-18.5 46.5zM283 1593.5q0 34.5 25.5 60t60 25.5t60.5 -25.5 t26 -60t-26 -60.5t-60.5 -26t-60 26t-25.5 60.5z" />
<glyph unicode="&#xd0;" horiz-adv-x="903" d="M6 671.5q0 26.5 18.5 44t43.5 17.5h98v504q0 27 19.5 46.5t45.5 19.5h246q129 0 220 -91.5t91 -220.5v-680q0 -129 -91 -220t-220 -91h-246q-27 0 -46 19.5t-19 46.5v542h-98q-25 0 -43.5 18.5t-18.5 45zM297 131h180q76 0 128 52.5t52 127.5v680q0 74 -52 127t-128 53 h-180v-438h139q27 0 45.5 -17.5t18.5 -44t-18.5 -45t-45.5 -18.5h-139v-477z" />
<glyph unicode="&#xd1;" horiz-adv-x="983" d="M139 57v1188q0 23 14 41.5t37 22.5q53 10 74 -35q297 -614 449 -930v901q0 27 19.5 46.5t45.5 19.5q29 0 47.5 -18.5t18.5 -47.5v-1188q0 -53 -51 -63q-47 -14 -74 35q-295 614 -449 929v-901q0 -29 -18.5 -47t-46.5 -18q-27 0 -46.5 19.5t-19.5 45.5zM246 1556.5 q-4 24.5 10 47.5q41 68 123 79q80 14 141 -34l17 -13q23 -16 47 -10q25 2 41 27q14 23 38.5 26.5t47.5 -10.5q20 -14 26 -39.5t-8 -46.5q-45 -68 -123 -80q-80 -12 -143 35l-17 12q-23 12 -47 11q-25 -4 -39 -27q-16 -23 -40.5 -27t-47 10.5t-26.5 39z" />
<glyph unicode="&#xd2;" d="M115 303v696q0 129 91 220.5t220 91.5t220 -91.5t91 -220.5v-696q0 -129 -91 -220t-220 -91t-220 91t-91 220zM246 303q0 -76 53 -128t127 -52q76 0 128 52t52 128v696q0 74 -52 127.5t-128 53.5q-74 0 -127 -53.5t-53 -127.5v-696zM259.5 1692q-1.5 27 14.5 47 q18 20 46 22t49 -16l204 -184q20 -18 21.5 -45t-17 -47.5t-45 -22.5t-47.5 16l-204 185q-20 18 -21.5 45z" />
<glyph unicode="&#xd3;" d="M115 303v696q0 129 92 220.5t219 91.5q129 0 220 -91.5t91 -220.5v-696q0 -129 -91 -220t-220 -91q-127 0 -219 91t-92 220zM246 303q0 -76 53 -128t127 -52q76 0 128 52t52 128v696q0 74 -52 127.5t-128 53.5q-74 0 -127 -53.5t-53 -127.5v-696zM259 1515q1 27 22 46 l204 184q20 18 47 16t45.5 -22.5t17.5 -47t-22 -44.5l-204 -185q-20 -18 -48.5 -16t-44.5 22q-18 20 -17 47z" />
<glyph unicode="&#xd4;" d="M115 303v696q0 129 92 220.5t219 91.5q129 0 220 -91.5t91 -220.5v-696q0 -129 -91 -220t-220 -91q-127 0 -219 91t-92 220zM180 1519.5q4 26.5 25 41.5l184 143q37 31 76 0l184 -143q20 -14 24.5 -41t-12 -47.5t-42 -23.5t-46.5 13q-98 76 -147 113l-145 -113 q-20 -16 -46 -13t-42.5 23.5t-12.5 47zM246 303q0 -76 53 -128t127 -52q76 0 128 52t52 128v696q0 74 -52 127.5t-128 53.5q-74 0 -127 -53.5t-53 -127.5v-696z" />
<glyph unicode="&#xd5;" d="M115 303v696q0 129 91 220.5t220 91.5q127 0 219 -91.5t92 -220.5v-696q0 -129 -92 -220t-219 -91q-129 0 -220 91t-91 220zM180.5 1558q-6.5 26 7.5 46q45 68 123 79q80 12 144 -34l16 -13q23 -16 47 -10q25 4 39 27q37 51 88 16q20 -14 25.5 -39.5t-8.5 -46.5 q-45 -68 -123 -80q-80 -12 -144 35l-16 12q-20 14 -45 11q-25 -2 -41 -27q-14 -23 -39 -27t-47 11q-20 14 -26.5 40zM246 303q0 -76 52 -128t128 -52q74 0 127 52t53 128v696q0 74 -53 127.5t-127 53.5q-76 0 -128 -53.5t-52 -127.5v-696z" />
<glyph unicode="&#xd6;" d="M115 303v696q0 129 91 220.5t220 91.5q127 0 219 -91.5t92 -220.5v-696q0 -129 -92 -220t-219 -91q-129 0 -220 91t-91 220zM176 1593.5q0 34.5 24.5 60t61.5 25.5q35 0 60.5 -25.5t25.5 -60t-25.5 -60.5t-60.5 -26q-37 0 -61.5 26t-24.5 60.5zM246 303q0 -76 52 -128 t128 -52q74 0 127 52t53 128v696q0 74 -53 127.5t-127 53.5q-76 0 -128 -53.5t-52 -127.5v-696zM504 1593.5q0 34.5 24.5 60t61.5 25.5q35 0 60.5 -25.5t25.5 -60t-25.5 -60.5t-60.5 -26q-37 0 -61.5 26t-24.5 60.5z" />
<glyph unicode="&#xd7;" d="M156 385q0 27 18 47l160 158l-160 158q-18 20 -18 46.5t18 47.5q20 18 47 18t47 -18l158 -160l158 160q20 18 47 18t47 -18q18 -20 18 -47t-18 -47l-160 -158l160 -158q18 -20 18 -47t-18 -47q-20 -18 -47 -18.5t-47 18.5l-158 160l-158 -160q-20 -18 -46.5 -18.5 t-47.5 18.5q-18 20 -18 47z" />
<glyph unicode="&#xd8;" horiz-adv-x="872" d="M7 -42q-7 26 5 48l121 221q-8 33 -8 76v696q0 129 91 220.5t220 91.5q137 0 232 -105l82 152q12 23 36.5 30t47 -5.5t30.5 -38t-4 -48.5l-123 -221q10 -41 11 -76v-696q0 -129 -91.5 -220t-220.5 -91q-141 0 -231 104l-82 -151q-14 -23 -39 -30t-47.5 5t-29.5 38z M256 451l342 628q-51 101 -162 101q-76 0 -128 -53.5t-52 -127.5v-548zM274 223q49 -100 162 -100q74 0 127 52t53 128v549z" />
<glyph unicode="&#xd9;" horiz-adv-x="868" d="M123 303v942q0 29 18.5 47.5t47 18.5t47 -18.5t18.5 -47.5v-942q0 -76 52 -128t128 -52q74 0 127 52t53 128v942q0 29 18.5 47.5t47.5 18.5t47 -18.5t18 -47.5v-942q0 -129 -91 -220t-220 -91t-220 91t-91 220zM265.5 1691.5q-1.5 26.5 17 47t45.5 22.5t47 -16l205 -184 q20 -18 21 -45t-15 -48q-18 -20 -46 -22t-48 16l-205 185q-20 18 -21.5 44.5z" />
<glyph unicode="&#xda;" horiz-adv-x="868" d="M123 303v942q0 29 18.5 47.5t47 18.5t47 -18.5t18.5 -47.5v-942q0 -76 52 -128t128 -52q74 0 127 52t53 128v942q0 29 18.5 47.5t47.5 18.5t47 -18.5t18 -47.5v-942q0 -129 -91 -220t-220 -91t-220 91t-91 220zM266 1515.5q2 26.5 23 45.5l205 184q20 18 46.5 16 t45 -22.5t16.5 -47t-22 -44.5l-205 -185q-20 -18 -47 -16t-45.5 22.5t-16.5 47z" />
<glyph unicode="&#xdb;" horiz-adv-x="868" d="M123 303v942q0 27 19.5 46.5t45.5 19.5q29 0 47.5 -18.5t18.5 -47.5v-942q0 -76 53 -128t127 -52q76 0 128 52t52 128v942q0 27 19.5 46.5t46.5 19.5q29 0 47 -18.5t18 -47.5v-942q0 -129 -91 -220t-220 -91q-127 0 -219 91t-92 220zM188.5 1519.5q4.5 26.5 24.5 41.5 l184 143q37 31 76 0l184 -143q20 -16 23.5 -41t-12.5 -47q-14 -20 -40 -23.5t-46 12.5q-98 76 -148 113l-145 -113q-20 -16 -46 -13t-42.5 23.5t-12 47z" />
<glyph unicode="&#xdc;" horiz-adv-x="868" d="M123 303v942q0 27 19.5 46.5t45.5 19.5q29 0 47.5 -18.5t18.5 -47.5v-942q0 -76 53 -128t127 -52q76 0 128 52t52 128v942q0 27 19.5 46.5t46.5 19.5q29 0 47 -18.5t18 -47.5v-942q0 -129 -91 -220t-220 -91q-127 0 -219 91t-92 220zM184 1593.5q0 34.5 26 60t60 25.5 q37 0 61.5 -25.5t24.5 -60t-24.5 -60.5t-61.5 -26q-35 0 -60.5 26t-25.5 60.5zM512 1593.5q0 34.5 25.5 60t60.5 25.5q37 0 61.5 -25.5t24.5 -60t-24.5 -60.5t-61.5 -26q-35 0 -60.5 26t-25.5 60.5z" />
<glyph unicode="&#xdd;" horiz-adv-x="823" d="M64 1266q8 26 32 39q25 10 50.5 1.5t37.5 -32.5l228 -455l229 455q12 25 38 33t50 -2q23 -12 32 -39t-3 -49l-281 -562v-598q0 -29 -19.5 -47t-46 -18t-46 19.5t-19.5 45.5v598l-278 562q-12 23 -4 49zM245 1515q1 27 21 46l205 184q20 18 47 16t45.5 -22.5t17.5 -47 t-22 -44.5l-205 -185q-20 -18 -47.5 -16t-46.5 22q-16 20 -15 47z" />
<glyph unicode="&#xde;" horiz-adv-x="819" d="M139 57v1180q0 29 18.5 47.5t47.5 18.5q27 0 46 -19.5t19 -46.5v-193h181q127 0 219 -91t92 -220v-123q0 -129 -92 -220t-219 -91h-181v-242q0 -27 -19.5 -46t-45.5 -19q-29 0 -47.5 18.5t-18.5 46.5zM270 430h181q74 0 127 52.5t53 127.5v123q0 74 -53.5 127t-126.5 53 h-181v-483z" />
<glyph unicode="&#xdf;" horiz-adv-x="876" d="M143 57v1024q0 74 38 137.5t104 98.5q141 74 272 -14q119 -80 119 -222q0 -16 -2 -26q-10 -92 -72 -158q72 -41 114 -111.5t42 -154.5v-328q0 -127 -90 -217t-217 -90q-27 0 -44.5 17.5t-17.5 44t17.5 44t44.5 17.5q78 0 131 53t53 131v328q0 78 -53.5 131t-130.5 53 q-23 0 -40.5 14.5t-21.5 34.5q-6 49 37 70l39 14q78 33 88 119q6 86 -64 133q-72 49 -147 8q-76 -43 -76 -127v-1024q0 -27 -18.5 -44t-42.5 -17q-27 0 -44.5 17.5t-17.5 43.5z" />
<glyph unicode="&#xe0;" horiz-adv-x="720" d="M61 270.5q0 110.5 78 188.5t189 78h143v139q0 92 -86 129q-90 35 -152 -31q-18 -18 -43.5 -18t-44 18.5t-18.5 44t18 41.5q57 57 135 72.5t152 -15t118 -96t44 -145.5v-610q0 -27 -18.5 -44.5t-43.5 -17.5h-204q-111 0 -189 78t-78 188.5zM184 270.5q0 -59.5 42 -101.5 t102 -42h143v287h-143q-59 0 -101.5 -42t-42.5 -101.5zM204 1283q-1 26 15.5 44.5t42 19t45.5 -15.5l205 -184q18 -16 19 -42t-15 -44.5t-41.5 -19.5t-44.5 16l-205 184q-20 16 -21 42z" />
<glyph unicode="&#xe1;" horiz-adv-x="720" d="M61 270.5q0 110.5 78 188.5t189 78h143v139q0 92 -86 129q-90 35 -152 -31q-18 -18 -43.5 -18t-44.5 18q-16 18 -16 44t16 42q57 57 135 72.5t152 -15t118 -96t44 -145.5v-610q0 -27 -18.5 -44.5t-43.5 -17.5h-204q-111 0 -189 78t-78 188.5zM184 270.5 q0 -59.5 42 -101.5t102 -42h143v287h-143q-59 0 -101.5 -42t-42.5 -101.5zM204 1104.5q1 25.5 21 42.5l205 184q18 16 44 15.5t42 -19t15 -44.5t-19 -42l-205 -184q-45 -39 -88 4q-16 18 -15 43.5z" />
<glyph unicode="&#xe2;" horiz-adv-x="720" d="M61 270.5q0 110.5 78 188.5t189 78h143v139q0 92 -86 129q-90 35 -152 -31q-18 -18 -43.5 -18t-44.5 18q-16 18 -16 44t16 42q57 57 135 72.5t152 -15t118 -96t44 -145.5v-610q0 -27 -18.5 -44.5t-43.5 -17.5h-204q-111 0 -189 78t-78 188.5zM126 1109q3 24 21 38 l185 143q37 27 71 0l185 -143q20 -14 23 -38t-13 -44q-14 -18 -37.5 -21.5t-44.5 11.5q-100 80 -147 116q-150 -117 -150 -116q-18 -14 -42.5 -11t-39.5 21q-14 20 -11 44zM184 270.5q0 -59.5 42 -101.5t102 -42h143v287h-143q-59 0 -101.5 -42t-42.5 -101.5z" />
<glyph unicode="&#xe3;" horiz-adv-x="720" d="M61 270.5q0 110.5 78 188.5t189 78h143v139q0 92 -86 129q-90 35 -152 -31q-18 -18 -43.5 -18t-44.5 18q-16 18 -16 44t16 42q57 57 135 72.5t152 -15t118 -96t44 -145.5v-610q0 -27 -17.5 -44.5t-44.5 -17.5h-204q-111 0 -189 78t-78 188.5zM127.5 1147.5 q-4.5 23.5 7.5 44.5q45 66 121 78q78 12 139 -33l17 -12q23 -18 49 -13q27 2 43 29q14 20 38 24t44 -8q20 -14 24 -37.5t-8 -43.5q-45 -66 -121 -78q-78 -12 -139 32l-16 13q-23 16 -50 12q-27 -2 -43 -29q-14 -20 -37.5 -24t-43.5 8q-20 14 -24.5 37.5zM184 270.5 q0 -59.5 42 -101.5t102 -42h143v287h-143q-59 0 -101.5 -42t-42.5 -101.5z" />
<glyph unicode="&#xe4;" horiz-adv-x="720" d="M61 270.5q0 110.5 78 188.5t189 78h143v139q0 92 -86 129q-90 35 -152 -31q-18 -18 -43.5 -18t-44.5 18q-16 18 -16 44t16 42q57 57 135 72.5t152 -15t118 -96t44 -145.5v-610q0 -27 -18.5 -44.5t-43.5 -17.5h-204q-111 0 -189 78t-78 188.5zM123 1184q0 33 24.5 57.5 t57.5 24.5t57.5 -24.5t24.5 -57.5t-24.5 -57.5t-57.5 -24.5t-57.5 24.5t-24.5 57.5zM184 270.5q0 -59.5 42 -101.5t102 -42h143v287h-143q-59 0 -101.5 -42t-42.5 -101.5zM451 1184q0 33 24.5 57.5t57 24.5t57 -24.5t24.5 -57.5t-24.5 -57.5t-57 -24.5t-57 24.5t-24.5 57.5z " />
<glyph unicode="&#xe5;" horiz-adv-x="720" d="M61 270.5q0 110.5 78 188.5t189 78h143v139q0 92 -86 129q-88 35 -152 -31q-18 -18 -43.5 -18t-42.5 18q-18 18 -18 44t18 42q55 57 133 72.5t152 -15t118 -96t44 -145.5v-610q0 -27 -17.5 -44.5t-44.5 -17.5h-204q-111 0 -189 78t-78 188.5zM184 270.5 q0 -59.5 42 -101.5t102 -42h143v287h-143q-59 0 -101.5 -42t-42.5 -101.5zM197 1204.5q0 69.5 51 120.5t120.5 51t121 -51t51.5 -120.5t-51.5 -121t-121 -51.5t-120.5 51.5t-51 121zM295 1204.5q0 -30.5 21.5 -52.5t52 -22t52 22t21.5 52.5t-21.5 52t-52 21.5t-52 -21.5 t-21.5 -52z" />
<glyph unicode="&#xe6;" horiz-adv-x="1107" d="M67.5 210q-16.5 79 16.5 155q31 74 97.5 118.5t148.5 44.5h143v144q0 43 -24.5 79.5t-63.5 53.5q-94 35 -158 -33q-16 -16 -41.5 -16t-44.5 16q-18 18 -18 44t18 44q57 57 136 72.5t153 -14.5q63 -25 105 -76q80 96 204 96q109 0 188 -78t79 -188v-205q0 -27 -18.5 -44 t-43.5 -17h-348v-144q0 -43 24.5 -80t63.5 -53q88 -37 156 31q18 18 43.5 18t44.5 -18q16 -16 16 -42t-16 -44q-59 -57 -137 -72.5t-154 14.5q-61 25 -102 76q-41 -51 -105 -76q-74 -31 -152.5 -15.5t-136 73t-74 136.5zM197 317q-36 -87 30 -157q68 -68 158 -31 q39 16 63.5 53t24.5 80v144h-143q-96 0 -133 -89zM596 528h287v144q0 59 -42 101t-101.5 42t-101.5 -42t-42 -101v-144z" />
<glyph unicode="&#xe7;" horiz-adv-x="677" d="M119 262v410q0 82 45 148.5t119 97.5q76 31 154.5 15.5t135.5 -73.5q18 -18 18.5 -43.5t-18.5 -44.5q-18 -16 -43.5 -16t-42.5 16q-63 68 -157 33q-39 -16 -63.5 -53t-24.5 -80v-410q0 -43 24.5 -80t63.5 -53q31 -10 53 -10h2h2q55 0 100 41q16 18 42 18t44 -18 q18 -16 18.5 -42t-18.5 -44q-51 -51 -127 -72v-70q0 -59 -30.5 -112t-81.5 -84q-20 -12 -46 -5t-38 27q-12 23 -6 47.5t28 36.5q51 29 52 90v70q-23 6 -41 14q-74 31 -119 97.5t-45 148.5z" />
<glyph unicode="&#xe8;" horiz-adv-x="753" d="M119 262v410q0 111 78.5 188.5t187.5 77.5q111 0 188.5 -78t77.5 -188v-205q0 -27 -17.5 -44t-43.5 -17h-348v-144q0 -43 24.5 -80t63.5 -53q90 -37 157 31q16 18 42 18t44 -18q18 -16 18 -42t-18 -44q-57 -57 -136 -72.5t-154 14.5q-74 31 -119 97.5t-45 148.5z M222.5 1283q-1.5 26 15 44.5t42.5 19t44 -15.5l204 -184q20 -16 21.5 -42t-17.5 -44q-16 -18 -41.5 -19.5t-44.5 15.5l-204 184q-18 16 -19.5 42zM242 528h286v144q0 59 -42 101t-101 42t-101 -42t-42 -101v-144z" />
<glyph unicode="&#xe9;" horiz-adv-x="753" d="M119 262v410q0 111 78.5 188.5t187.5 77.5q111 0 188.5 -78t77.5 -188v-205q0 -27 -17.5 -44t-43.5 -17h-348v-144q0 -43 24.5 -80t63.5 -53q90 -37 157 31q16 18 42 18t44 -18q18 -16 18.5 -42t-18.5 -44q-57 -57 -135.5 -73t-152.5 15q-76 31 -121 97.5t-45 148.5z M222 1104.5q1 25.5 20 42.5l204 184q45 39 89 -4q16 -18 15 -44t-22 -42l-204 -184q-18 -16 -44 -15.5t-42.5 19t-15.5 44zM242 528h286v144q0 59 -42 101t-101 42t-101 -42t-42 -101v-144z" />
<glyph unicode="&#xea;" horiz-adv-x="753" d="M119 262v410q0 111 78.5 188.5t187.5 77.5q111 0 188.5 -78t77.5 -188v-205q0 -27 -17.5 -44t-43.5 -17h-348v-144q0 -96 90 -133q88 -37 155 31q18 18 44 18t42 -18q18 -16 18.5 -42t-18.5 -44q-57 -57 -135.5 -73t-152.5 15q-76 31 -121 97.5t-45 148.5zM142.5 1109 q2.5 24 23.5 38l184 143q35 29 72 0l184 -143q18 -14 21.5 -38t-11.5 -44q-14 -18 -38.5 -21.5t-42.5 11.5q-102 80 -150 116l-147 -116q-20 -14 -44 -11t-38 21q-16 20 -13.5 44zM242 528h286v144q0 59 -42 101t-101 42t-101 -42t-42 -101v-144z" />
<glyph unicode="&#xeb;" horiz-adv-x="753" d="M119 262v410q0 111 78.5 188.5t187.5 77.5q111 0 188.5 -78t77.5 -188v-205q0 -27 -17.5 -44t-43.5 -17h-348v-144q0 -96 90 -133q88 -37 155 31q18 18 44 18t42 -18q18 -16 18.5 -42t-18.5 -44q-57 -57 -136 -72.5t-152 14.5q-76 31 -121 97.5t-45 148.5zM139 1184 q0 33 24.5 57.5t57.5 24.5t57.5 -24.5t24.5 -57.5t-24.5 -57.5t-57.5 -24.5t-57.5 24.5t-24.5 57.5zM242 528h286v144q0 59 -42 101t-101 42t-101 -42t-42 -101v-144zM467 1184q0 33 24.5 57.5t57.5 24.5t57.5 -24.5t24.5 -57.5t-24.5 -57.5t-57.5 -24.5t-57.5 24.5 t-24.5 57.5z" />
<glyph unicode="&#xec;" horiz-adv-x="409" d="M1 1283q-1 26 15.5 44.5t42 19.5t45.5 -16l205 -184q18 -16 19.5 -42t-15 -44.5t-42 -19.5t-46.5 16l-205 184q-18 16 -19 42zM143 57v820q0 27 18.5 44t43.5 17q27 0 44 -17.5t17 -43.5v-820q0 -27 -17.5 -44t-43.5 -17q-25 0 -43.5 17.5t-18.5 43.5z" />
<glyph unicode="&#xed;" horiz-adv-x="409" d="M81 1104.5q1 25.5 21 42.5l205 184q18 16 44 15.5t42.5 -19t15.5 -44.5t-20 -42l-205 -184q-20 -16 -45.5 -15.5t-42 19t-15.5 44zM143 57v820q0 27 17.5 44t44.5 17q25 0 43 -17.5t18 -43.5v-820q0 -27 -18.5 -44t-42.5 -17q-27 0 -44.5 17.5t-17.5 43.5z" />
<glyph unicode="&#xee;" horiz-adv-x="409" d="M-36 1109q3 24 22 38l184 143q35 29 72 0l184 -143q20 -14 23.5 -38t-13.5 -44q-35 -43 -82 -10q-102 80 -147 116q-150 -117 -150 -116q-18 -14 -43 -11t-39 21q-14 20 -11 44zM145 57v820q0 27 17.5 44t44.5 17q25 0 43 -17t18 -44v-820q0 -27 -18.5 -44t-42.5 -17 q-27 0 -44.5 17.5t-17.5 43.5z" />
<glyph unicode="&#xef;" horiz-adv-x="409" d="M-41 1184q0 33 24.5 57.5t57.5 24.5t57.5 -24.5t24.5 -57.5t-24.5 -57.5t-57.5 -24.5t-57.5 24.5t-24.5 57.5zM143 57v820q0 27 17.5 44t44.5 17q25 0 43 -17.5t18 -43.5v-820q0 -27 -18.5 -44t-42.5 -17q-27 0 -44.5 17.5t-17.5 43.5zM287 1184q0 33 24.5 57.5t57 24.5 t57.5 -24.5t25 -57.5t-25 -57.5t-57.5 -24.5t-57 24.5t-24.5 57.5z" />
<glyph unicode="&#xf0;" horiz-adv-x="770" d="M119 262v410q0 111 77.5 188.5t188.5 77.5q53 0 96 -18q-37 92 -98 172l-88 -60q-20 -12 -44 -8t-38 25q-12 20 -8 43.5t24 37.5l72 48q-23 20 -76 57q-20 14 -25 38.5t9 47.5q14 20 38.5 25.5t47.5 -9.5q55 -37 111 -90l69 47q20 12 44 8t38 -24.5t9 -44t-25 -37.5 l-56 -37q43 -57 72 -110q94 -176 94 -377v-410q0 -111 -77.5 -188.5t-188.5 -77.5t-188.5 78t-77.5 188zM242 262q0 -59 42 -101t101 -42t101 42t42 101v410q0 59 -42 101t-101 42t-101 -42t-42 -101v-410z" />
<glyph unicode="&#xf1;" horiz-adv-x="802" d="M143 57v811q0 27 17.5 44.5t44.5 17.5h205q109 0 187.5 -78t78.5 -188v-607q0 -27 -18.5 -44t-43.5 -17q-27 0 -44 17.5t-17 43.5v607q0 59 -42 101t-101 42h-144v-750q0 -27 -18.5 -44t-42.5 -17q-27 0 -44.5 17.5t-17.5 43.5zM167.5 1147.5q-5.5 23.5 8.5 44.5 q43 66 121 78q74 12 139 -33l17 -12q22 -18 49 -13q27 2 43 29q31 45 82 16q20 -14 24 -37.5t-8 -43.5q-45 -66 -121 -78q-78 -12 -139 32l-16 13q-23 16 -51.5 12t-41.5 -29q-14 -20 -37.5 -24t-43.5 8q-20 14 -25.5 37.5z" />
<glyph unicode="&#xf2;" horiz-adv-x="770" d="M119 262v410q0 111 77.5 188.5t188.5 77.5t188.5 -77.5t77.5 -188.5v-410q0 -111 -77.5 -188.5t-188.5 -77.5t-188.5 78t-77.5 188zM220.5 1283q-1.5 26 17.5 44q16 18 41.5 19.5t44.5 -15.5l204 -184q18 -16 19.5 -42t-15 -44.5t-42.5 -19t-44 15.5l-204 184 q-20 16 -21.5 42zM242 262q0 -59 42 -101t101 -42t101 42t42 101v410q0 59 -42 101t-101 42t-101 -42t-42 -101v-410z" />
<glyph unicode="&#xf3;" horiz-adv-x="770" d="M119 262v410q0 111 77.5 188.5t188.5 77.5t188.5 -78t77.5 -188v-410q0 -111 -77.5 -188.5t-188.5 -77.5t-188.5 78t-77.5 188zM222 1104.5q1 25.5 20 42.5l204 184q18 16 44 15.5t42.5 -19t15.5 -44.5t-20 -42l-204 -184q-18 -16 -44 -15.5t-42.5 19t-15.5 44zM242 262 q0 -59 42 -101t101 -42t101 42t42 101v410q0 59 -42 101t-101 42t-101 -42t-42 -101v-410z" />
<glyph unicode="&#xf4;" horiz-adv-x="770" d="M119 262v410q0 111 77.5 188.5t188.5 77.5t188.5 -78t77.5 -188v-410q0 -111 -77.5 -188.5t-188.5 -77.5t-188.5 77.5t-77.5 188.5zM142.5 1109q2.5 24 21.5 38l184 143q37 27 72 0l184 -143q20 -14 23.5 -38t-13.5 -44q-14 -18 -37.5 -21.5t-44.5 11.5q-100 80 -147 116 l-149 -116q-18 -14 -43 -11t-39 21q-14 20 -11.5 44zM242 262q0 -59 42 -101t101 -42t101 42t42 101v410q0 59 -42 101t-101 42t-101 -42t-42 -101v-410z" />
<glyph unicode="&#xf5;" horiz-adv-x="770" d="M119 262v410q0 111 77.5 188.5t188.5 77.5t188.5 -77.5t77.5 -188.5v-410q0 -111 -77.5 -188.5t-188.5 -77.5t-188.5 78t-77.5 188zM143.5 1147.5q-4.5 23.5 8.5 44.5q45 66 120 78q78 12 140 -33l16 -12q23 -18 49 -13q31 4 43 29q14 20 38 24.5t44 -8.5 q20 -14 25.5 -37.5t-9.5 -43.5q-45 -66 -120 -78q-78 -12 -140 32l-16 13q-23 16 -49 12q-27 -2 -43 -29q-14 -20 -38 -24t-44 8q-20 14 -24.5 37.5zM242 262q0 -59 42 -101t101 -42t101 42t42 101v410q0 59 -42 101t-101 42t-101 -42t-42 -101v-410z" />
<glyph unicode="&#xf6;" horiz-adv-x="770" d="M119 262v410q0 111 77.5 188.5t188.5 77.5t188.5 -78t77.5 -188v-410q0 -111 -77.5 -188.5t-188.5 -77.5t-188.5 78t-77.5 188zM139 1184q0 33 24.5 57.5t57.5 24.5t57.5 -24.5t24.5 -57.5t-24.5 -57.5t-57.5 -24.5t-57.5 24.5t-24.5 57.5zM242 262q0 -59 42 -101 t101 -42t101 42t42 101v410q0 59 -42 101t-101 42t-101 -42t-42 -101v-410zM467 1184q0 33 24.5 57.5t57.5 24.5t57.5 -24.5t24.5 -57.5t-24.5 -57.5t-57.5 -24.5t-57.5 24.5t-24.5 57.5z" />
<glyph unicode="&#xf7;" d="M115 589.5q0 28.5 18.5 47t46.5 18.5h492q27 0 46 -19.5t19 -46t-19.5 -46t-45.5 -19.5h-492q-29 0 -47 18.5t-18 47zM340 323.5q0 34.5 24.5 60.5t61.5 26q35 0 60.5 -26t25.5 -60.5t-25.5 -60t-60.5 -25.5q-37 0 -61.5 25.5t-24.5 60zM340 856q0 35 24.5 60.5 t61.5 25.5q35 0 60.5 -25.5t25.5 -60.5t-25.5 -60.5t-60.5 -25.5q-37 0 -61.5 25.5t-24.5 60.5z" />
<glyph unicode="&#xf8;" horiz-adv-x="790" d="M52 -39.5q-7 23.5 5 43.5l93 156q-20 47 -21 102v410q0 111 78 188.5t188 77.5q98 0 170 -61l66 110q12 20 35.5 26.5t44.5 -3.5q20 -12 26 -36t-4 -44l-92 -158q20 -51 21 -100v-410q0 -111 -78 -188.5t-189 -77.5q-98 0 -170 61l-65 -110q-12 -20 -36 -27.5t-44.5 5 t-27.5 36zM252 338l250 428q-44 49 -107 49q-59 0 -101 -42t-42 -101v-334zM289 168q38 -49 106 -49q59 0 101.5 42t42.5 101v334z" />
<glyph unicode="&#xf9;" horiz-adv-x="802" d="M127 270v607q0 27 18.5 44t42.5 17q27 0 44.5 -17.5t17.5 -43.5v-607q0 -59 42 -101t101 -42h144v750q0 27 18 44t43 17q27 0 44 -17.5t17 -43.5v-811q0 -27 -17 -44.5t-44 -17.5h-205q-109 0 -187.5 78t-78.5 188zM230.5 1283q-1.5 26 15 44.5t42 19.5t44.5 -16 l205 -184q20 -16 21 -42t-15 -44q-43 -43 -88 -4l-205 184q-18 16 -19.5 42z" />
<glyph unicode="&#xfa;" horiz-adv-x="802" d="M127 270v607q0 27 18.5 44t42.5 17q27 0 44.5 -17.5t17.5 -43.5v-607q0 -59 42 -101t101 -42h144v750q0 27 18 44t43 17q27 0 44 -17.5t17 -43.5v-811q0 -27 -17 -44.5t-44 -17.5h-205q-109 0 -187.5 78t-78.5 188zM230 1104.5q1 25.5 20 42.5l205 184q20 16 45.5 15.5 t42 -19t15.5 -44.5t-21 -42l-205 -184q-18 -16 -44 -15.5t-42.5 19t-15.5 44z" />
<glyph unicode="&#xfb;" horiz-adv-x="802" d="M127 270v607q0 27 18.5 44t42.5 17q27 0 44.5 -17.5t17.5 -43.5v-607q0 -59 42 -101t101 -42h144v750q0 27 18 44t43 17q27 0 44 -17.5t17 -43.5v-811q0 -27 -17 -44.5t-44 -17.5h-205q-109 0 -187.5 78t-78.5 188zM153 1109q3 24 21 38l184 143q35 29 72 0l184 -143 q18 -14 21.5 -38t-10.5 -44q-14 -18 -39 -21.5t-43 11.5q-102 80 -150 116l-147 -116q-47 -33 -82 10q-14 20 -11 44z" />
<glyph unicode="&#xfc;" horiz-adv-x="802" d="M127 270v607q0 27 18.5 44t42.5 17q27 0 44.5 -17.5t17.5 -43.5v-607q0 -59 42 -101t101 -42h144v750q0 27 18 44t43 17q27 0 44 -17.5t17 -43.5v-811q0 -27 -17 -44.5t-44 -17.5h-205q-109 0 -187.5 78t-78.5 188zM147 1184q0 33 25 57.5t57 24.5q35 0 58.5 -23.5 t23.5 -58.5t-23.5 -58.5t-58.5 -23.5q-33 0 -57.5 24.5t-24.5 57.5zM475 1184q0 33 24.5 57.5t57.5 24.5q35 0 58.5 -23.5t23.5 -58.5t-23.5 -58.5t-58.5 -23.5q-33 0 -57.5 24.5t-24.5 57.5z" />
<glyph unicode="&#xfd;" horiz-adv-x="755" d="M41 -352.5q0 26.5 18.5 44t42.5 17.5q47 0 85 29t53 74l73 245l-239 801q-8 25 4 47.5t37 30.5q25 6 47 -6t28 -35l189 -625l186 625q8 23 29.5 35t46.5 6q25 -8 37 -30.5t4 -47.5l-246 -819l-78 -262q-25 -86 -96 -137q-72 -53 -160 -54q-25 0 -43 17.5t-18 44z M214 1104.5q1 25.5 19 42.5l205 184q20 16 46 15.5t42.5 -19t15.5 -44.5t-20 -42l-205 -184q-20 -16 -45.5 -15.5t-42 19t-15.5 44z" />
<glyph unicode="&#xfe;" horiz-adv-x="794" d="M143 -352v1638q0 27 17.5 44.5t44 17.5t44 -17.5t17.5 -44.5v-348h144q111 0 188.5 -78t77.5 -188v-410q0 -111 -78 -188.5t-188 -77.5h-144v-348q0 -27 -17.5 -44.5t-44 -17.5t-44 17.5t-17.5 44.5zM266 119h144q59 0 101 42t42 101v410q0 59 -42 101t-101 42h-144v-696 z" />
<glyph unicode="&#xff;" horiz-adv-x="755" d="M41 -352.5q0 26.5 18.5 44t42.5 17.5q47 0 85 29t53 74l73 245l-239 801q-8 25 4 47.5t37 30.5q25 6 47 -6t28 -35l189 -625l186 625q8 23 29.5 35t46.5 6q25 -8 37 -30.5t4 -47.5l-246 -819l-78 -262q-25 -86 -96 -137q-72 -53 -160 -54q-25 0 -43 17.5t-18 44z M133 1184q0 33 23.5 57.5t58.5 24.5t58.5 -24.5t23.5 -57.5t-23.5 -57.5t-58.5 -24.5t-58.5 24.5t-23.5 57.5zM461 1184q0 33 23.5 57.5t58.5 24.5t58.5 -24.5t23.5 -57.5t-23.5 -57.5t-58.5 -24.5t-58.5 24.5t-23.5 57.5z" />
<glyph unicode="&#x152;" horiz-adv-x="1220" d="M115 303v696q0 129 91 220.5t220 91.5q100 0 182 -60q4 23 22.5 37.5t41.5 14.5h409q27 0 46.5 -19.5t19.5 -46.5t-19.5 -46.5t-46.5 -19.5h-344v-213v-221h303q27 0 46.5 -19.5t19.5 -46t-19.5 -46t-46.5 -19.5h-303v-262v-213h344q27 0 46.5 -19.5t19.5 -46t-19.5 -46 t-46.5 -19.5h-409q-23 0 -41.5 14.5t-22.5 36.5q-82 -59 -182 -59q-129 0 -220 91t-91 220zM246 303q0 -76 52 -128t128 -52q74 0 127 52t53 128v41v614v41q0 74 -53 127.5t-127 53.5q-76 0 -128 -53.5t-52 -127.5v-696z" />
<glyph unicode="&#x153;" horiz-adv-x="1163" d="M119 262v410q0 111 77.5 188.5t188.5 77.5q125 0 205 -96q80 96 205 96q109 0 187.5 -78t78.5 -188v-205q0 -27 -18.5 -44t-43.5 -17h-348v-144q0 -43 24.5 -80t63.5 -53q88 -37 156 31q18 18 44 18t44 -18q16 -16 16 -42t-16 -44q-59 -57 -137 -72.5t-154 14.5 q-61 25 -102 76q-80 -96 -205 -96q-111 0 -188.5 78t-77.5 188zM242 262q0 -59 42 -101t101 -42t101 42t42 101v410q0 59 -42 101t-101 42t-101 -42t-42 -101v-410zM651 528h287v144q0 59 -42 101t-101.5 42t-101.5 -42t-42 -101v-144z" />
<glyph unicode="&#x178;" horiz-adv-x="823" d="M62 1266q8 26 32 39q25 10 50.5 1.5t37.5 -32.5l228 -455l229 455q12 25 37.5 33t50.5 -2q23 -12 32 -39t-3 -49l-281 -562v-598q0 -29 -18.5 -47t-46.5 -18q-27 0 -46.5 19.5t-19.5 45.5v598l-278 562q-12 23 -4 49zM160 1593.5q0 34.5 25.5 60t60.5 25.5 q37 0 61.5 -25.5t24.5 -60t-24.5 -60.5t-61.5 -26q-35 0 -60.5 26t-25.5 60.5zM487 1593.5q0 34.5 26 60t60 25.5q37 0 61.5 -25.5t24.5 -60t-24.5 -60.5t-61.5 -26q-35 0 -60.5 26t-25.5 60.5z" />
<glyph unicode="&#x2c6;" horiz-adv-x="1024" d="M263 1110.5q3 26.5 26 42.5l184 143q39 31 80 0l184 -143q20 -16 24.5 -44t-12 -48.5t-44 -23.5t-48.5 14q-96 74 -145 110l-143 -110q-20 -16 -48 -13.5t-45 23.5q-16 23 -13 49.5z" />
<glyph unicode="&#x2dc;" horiz-adv-x="1024" d="M264.5 1146q-6.5 28 7.5 50q43 66 125 82q82 12 146 -35l16 -12q20 -14 45 -12q25 6 37 24q14 23 42 29t50 -10q23 -14 29 -41t-10 -50q-43 -66 -125 -81q-82 -12 -146 34l-16 13q-18 16 -45 12q-27 -8 -37 -27q-14 -20 -42 -26t-50 8q-20 14 -26.5 42z" />
<glyph unicode="&#x2000;" horiz-adv-x="894" />
<glyph unicode="&#x2001;" horiz-adv-x="1788" />
<glyph unicode="&#x2002;" horiz-adv-x="894" />
<glyph unicode="&#x2003;" horiz-adv-x="1788" />
<glyph unicode="&#x2004;" horiz-adv-x="596" />
<glyph unicode="&#x2005;" horiz-adv-x="447" />
<glyph unicode="&#x2006;" horiz-adv-x="298" />
<glyph unicode="&#x2007;" horiz-adv-x="298" />
<glyph unicode="&#x2008;" horiz-adv-x="223" />
<glyph unicode="&#x2009;" horiz-adv-x="357" />
<glyph unicode="&#x200a;" horiz-adv-x="99" />
<glyph unicode="&#x2010;" d="M115 589.5q0 28.5 18.5 47t46.5 18.5h492q27 0 46 -19.5t19 -46t-19.5 -46t-45.5 -19.5h-492q-29 0 -47 18.5t-18 47z" />
<glyph unicode="&#x2011;" d="M115 589.5q0 28.5 18.5 47t46.5 18.5h492q27 0 46 -19.5t19 -46t-19.5 -46t-45.5 -19.5h-492q-29 0 -47 18.5t-18 47z" />
<glyph unicode="&#x2012;" d="M115 589.5q0 28.5 18.5 47t46.5 18.5h492q27 0 46 -19.5t19 -46t-19.5 -46t-45.5 -19.5h-492q-29 0 -47 18.5t-18 47z" />
<glyph unicode="&#x2013;" horiz-adv-x="1024" d="M-66 589.5q0 26.5 19.5 46t46.5 19.5h1024q29 0 47.5 -18.5t18.5 -47t-18.5 -47t-47.5 -18.5h-1024q-27 0 -46.5 19.5t-19.5 46z" />
<glyph unicode="&#x2014;" horiz-adv-x="2048" d="M-66 589.5q0 26.5 19.5 46t46.5 19.5h2048q29 0 47.5 -18.5t18.5 -47t-18.5 -47t-47.5 -18.5h-2048q-27 0 -46.5 19.5t-19.5 46z" />
<glyph unicode="&#x2018;" horiz-adv-x="393" d="M100 1049v98q0 51 29 93t76 63q23 10 47 -0.5t35 -32.5q10 -25 0 -49.5t-35 -32.5q-27 -12 -27 -41v-37h4q25 0 43.5 -17.5t18.5 -44t-18.5 -45t-43.5 -18.5h-65q-27 0 -45.5 18.5t-18.5 45.5z" />
<glyph unicode="&#x2019;" horiz-adv-x="393" d="M100 1237q0 27 18.5 44t45.5 17h65q25 0 43.5 -17t18.5 -44v-98q0 -51 -29 -93t-76 -63q-23 -10 -47 0t-35 33q-10 25 0 49.5t35 32.5q27 10 27 41v35h-2q-27 0 -45.5 18t-18.5 45z" />
<glyph unicode="&#x201a;" horiz-adv-x="391" d="M100 98.5q0 26.5 18.5 44t45.5 17.5h65q25 0 43.5 -17.5t18.5 -44.5v-98q0 -51 -29 -93t-76 -63q-23 -10 -47 0.5t-35 32.5q-10 25 0.5 49.5t34.5 32.5q27 10 27 41v35h-2q-27 0 -45.5 18.5t-18.5 45z" />
<glyph unicode="&#x201c;" horiz-adv-x="759" d="M100 1049v98q0 51 28 93t75 63q25 10 48 -0.5t34 -32.5q10 -25 0 -48.5t-33 -33.5q-27 -12 -27 -41v-37h2q27 0 45.5 -17.5t18.5 -44t-18.5 -45t-45.5 -18.5h-65q-27 0 -44.5 18.5t-17.5 45.5zM469 1049v98q0 51 27.5 93t74.5 63q25 10 48.5 -0.5t33.5 -32.5 q10 -25 0.5 -48.5t-32.5 -33.5q-27 -12 -27 -41v-37h2q27 0 45 -17.5t18 -44t-18 -45t-45 -18.5h-66q-27 0 -44 18.5t-17 45.5z" />
<glyph unicode="&#x201d;" horiz-adv-x="761" d="M102 1237q0 27 17.5 44t44.5 17h65q27 0 45.5 -17t18.5 -44v-98q0 -51 -28.5 -93t-76.5 -63q-25 -10 -48 0t-34 33q-10 25 0 48.5t33 33.5q29 10 29 41v35h-4q-27 0 -44.5 18t-17.5 45zM471 1237q0 27 17.5 44t43.5 17h66q27 0 45.5 -17t18.5 -44v-98q0 -51 -29 -93 t-76 -63q-25 -10 -48.5 0t-33.5 33q-10 25 0 48t33 34q29 10 29 41v35h-5q-27 0 -44 18t-17 45z" />
<glyph unicode="&#x201e;" horiz-adv-x="761" d="M100 98.5q0 26.5 18.5 44t45.5 17.5h65q27 0 44.5 -17.5t17.5 -44.5v-98q0 -51 -28 -93.5t-75 -62.5q-25 -10 -48 0.5t-34 32.5q-10 25 0.5 48.5t32.5 33.5q27 10 27 41v35h-2q-27 0 -45.5 18.5t-18.5 45zM469 98.5q0 26.5 18.5 44t44.5 17.5h66q27 0 44 -17.5t17 -44.5 v-98q0 -51 -27.5 -93t-74.5 -63q-25 -10 -48.5 0.5t-33.5 32.5q-10 25 0 48.5t33 33.5q27 10 27 41v35h-3q-27 0 -45 18.5t-18 45z" />
<glyph unicode="&#x2022;" horiz-adv-x="524" d="M61 578q0 84 59.5 143t141.5 59q84 0 143.5 -59t59.5 -143t-59.5 -143.5t-143.5 -59.5t-142.5 59.5t-58.5 143.5zM178 577.5q0 -34.5 24.5 -59t59.5 -24.5t60.5 24.5t25.5 59t-25.5 59.5t-60.5 25t-59.5 -25t-24.5 -59.5z" />
<glyph unicode="&#x2026;" horiz-adv-x="1179" d="M94 78q0 35 25.5 60.5t60.5 25.5q37 0 61.5 -25.5t24.5 -60.5t-24.5 -60.5t-61.5 -25.5q-35 0 -60.5 25.5t-25.5 60.5zM504 78q0 35 25.5 60.5t60.5 25.5q37 0 61.5 -25.5t24.5 -60.5t-24.5 -60.5t-61.5 -25.5q-35 0 -60.5 25.5t-25.5 60.5zM913 78q0 35 26 60.5t60 25.5 q37 0 61.5 -25.5t24.5 -60.5t-24.5 -60.5t-61.5 -25.5q-35 0 -60.5 25.5t-25.5 60.5z" />
<glyph unicode="&#x202f;" horiz-adv-x="357" />
<glyph unicode="&#x2039;" horiz-adv-x="489" d="M106 565q-16 33 0 64l132 237q14 25 39.5 33t50.5 -6q32 -20 32 -57q0 -20 -8 -31q-86 -160 -112 -207l120 -223q8 -14 9 -31q0 -37 -33 -57q-25 -14 -50.5 -6t-39.5 32z" />
<glyph unicode="&#x203a;" horiz-adv-x="489" d="M121 344q0 10 8 31q96 174 123 223l-115 207q-8 16 -8 31q0 39 35 57q23 14 49.5 6t38.5 -33l131 -237q18 -31 0 -64l-139 -252q-12 -25 -39 -33t-49 7q-35 18 -35 57z" />
<glyph unicode="&#x205f;" horiz-adv-x="447" />
<glyph unicode="&#x20ac;" d="M37 487.5q0 28.5 18.5 47t46.5 18.5h99v197h-99q-29 0 -47 18t-18 47t18.5 47.5t46.5 18.5h99v118q0 106 63.5 189.5t165.5 111.5q102 27 199.5 -14t150.5 -131l21 -35q14 -25 7 -50.5t-30 -39.5q-25 -14 -50.5 -7t-39.5 32l-20 35q-31 53 -88.5 75.5t-114.5 8.5 q-59 -14 -96 -63.5t-37 -111.5v-118h262q27 0 46 -19.5t19 -46.5t-19 -46t-46 -19h-262v-197h180q27 0 46.5 -19.5t19.5 -46t-19.5 -46t-46.5 -19.5h-180v-119q0 -61 37 -110.5t96 -63.5q57 -14 114.5 8.5t88.5 75.5l20 35q14 25 40 32t50 -8q23 -14 30 -39.5t-7 -50.5 l-21 -35q-51 -92 -149.5 -133t-200.5 -12t-165.5 112t-63.5 189v119h-99q-29 0 -47 18.5t-18 47z" />
<glyph unicode="&#x2122;" horiz-adv-x="1372" d="M55 1237q0 27 17.5 44t44.5 17h409q27 0 45.5 -17t18.5 -44t-18.5 -45t-45.5 -18h-141v-543q0 -27 -18.5 -45.5t-45 -18.5t-44 18.5t-17.5 45.5v543h-143q-27 0 -44.5 18t-17.5 45zM711 631v614q0 47 43 60q40 12 69 -23q96 -135 154 -217l153 217q29 35 72 23 q43 -14 43 -60v-614q0 -27 -18.5 -45.5t-45 -18.5t-44 18.5t-17.5 45.5v420l-92 -129q-20 -27 -51 -27t-51 27q-45 66 -90 129v-420q0 -27 -18.5 -45.5t-45.5 -18.5t-44 18.5t-17 45.5z" />
<glyph unicode="&#xe000;" horiz-adv-x="940" d="M0 940h940v-940h-940v940z" />
<glyph unicode="&#xfb01;" horiz-adv-x="1015" d="M729 1184q0 33 24.5 57.5t57.5 24.5t57.5 -24.5t24.5 -57.5t-24.5 -57.5t-57.5 -24.5t-57.5 24.5t-24.5 57.5zM749 57v820q0 27 18.5 44t43.5 17q27 0 44 -17.5t17 -43.5v-820q0 -27 -17.5 -44t-43.5 -17q-25 0 -43.5 17.5t-18.5 43.5zM53 868.5q0 26.5 17.5 44 t44.5 17.5h102v151q0 111 78 189t188 78q27 0 44.5 -17.5t17.5 -44t-17.5 -44t-44.5 -17.5q-59 0 -101 -42t-42 -102v-151h143q27 0 44.5 -17.5t17.5 -44t-17.5 -44t-44.5 -17.5h-143v-750q0 -27 -17.5 -44t-44 -17t-44 17.5t-17.5 43.5v750h-102q-27 0 -44.5 17.5t-17.5 44 z" />
<glyph unicode="&#xfb02;" horiz-adv-x="1015" d="M743 199v1087q0 27 18.5 44.5t43.5 17.5q27 0 44 -17.5t17 -44.5v-1087q0 -57 51 -88q23 -12 30 -38q2 -9 2 -17q0 -16 -9 -29q-12 -23 -36 -29q-8 -2 -17 -2q-16 0 -31 8q-113 68 -113 195zM53 868.5q0 26.5 17.5 44t44.5 17.5h102v151q0 111 78 189t188 78 q27 0 44.5 -17.5t17.5 -44t-17.5 -44t-44.5 -17.5q-59 0 -101 -42t-42 -102v-151h143q27 0 44.5 -17.5t17.5 -44t-17.5 -44t-44.5 -17.5h-143v-750q0 -27 -17.5 -44t-44 -17t-44 17.5t-17.5 43.5v750h-102q-27 0 -44.5 17.5t-17.5 44z" />
<glyph unicode="&#xfb03;" horiz-adv-x="1621" d="M1335 1184q0 33 24.5 57.5t57.5 24.5t57.5 -24.5t24.5 -57.5t-24.5 -57.5t-57.5 -24.5t-57.5 24.5t-24.5 57.5zM1355 57v820q0 27 18.5 44t43.5 17q27 0 44 -17.5t17 -43.5v-820q0 -27 -17.5 -44t-43.5 -17q-25 0 -43.5 17.5t-18.5 43.5zM659 868.5q0 26.5 17.5 44 t44.5 17.5h102v151q0 111 78 189t188 78q27 0 44.5 -17.5t17.5 -44t-17.5 -44t-44.5 -17.5q-59 0 -101 -42t-42 -102v-151h143q27 0 44.5 -17.5t17.5 -44t-17.5 -44t-44.5 -17.5h-143v-750q0 -27 -17.5 -44t-44 -17t-44 17.5t-17.5 43.5v750h-102q-27 0 -44.5 17.5t-17.5 44 zM53 868.5q0 26.5 17.5 44t44.5 17.5h102v151q0 111 78 189t188 78q27 0 44.5 -17.5t17.5 -44t-17.5 -44t-44.5 -17.5q-59 0 -101 -42t-42 -102v-151h143q27 0 44.5 -17.5t17.5 -44t-17.5 -44t-44.5 -17.5h-143v-750q0 -27 -17.5 -44t-44 -17t-44 17.5t-17.5 43.5v750h-102 q-27 0 -44.5 17.5t-17.5 44z" />
<glyph unicode="&#xfb04;" horiz-adv-x="1621" d="M1349 199v1087q0 27 18.5 44.5t43.5 17.5q27 0 44 -17.5t17 -44.5v-1087q0 -57 51 -88q23 -12 30 -38q2 -9 2 -17q0 -16 -9 -29q-12 -23 -36 -29q-8 -2 -17 -2q-16 0 -31 8q-113 68 -113 195zM659 868.5q0 26.5 17.5 44t44.5 17.5h102v151q0 111 78 189t188 78 q27 0 44.5 -17.5t17.5 -44t-17.5 -44t-44.5 -17.5q-59 0 -101 -42t-42 -102v-151h143q27 0 44.5 -17.5t17.5 -44t-17.5 -44t-44.5 -17.5h-143v-750q0 -27 -17.5 -44t-44 -17t-44 17.5t-17.5 43.5v750h-102q-27 0 -44.5 17.5t-17.5 44zM53 868.5q0 26.5 17.5 44t44.5 17.5 h102v151q0 111 78 189t188 78q27 0 44.5 -17.5t17.5 -44t-17.5 -44t-44.5 -17.5q-59 0 -101 -42t-42 -102v-151h143q27 0 44.5 -17.5t17.5 -44t-17.5 -44t-44.5 -17.5h-143v-750q0 -27 -17.5 -44t-44 -17t-44 17.5t-17.5 43.5v750h-102q-27 0 -44.5 17.5t-17.5 44z" />
</font>
</defs>
</svg>
