<?xml version="1.0" standalone="no"?>
<!DOCTYPE svg PUBLIC "-//W3C//DTD SVG 1.1//EN" "http://www.w3.org/Graphics/SVG/1.1/DTD/svg11.dtd" >
<svg xmlns="http://www.w3.org/2000/svg">
<metadata>
This is a custom SVG webfont generated by Font Squirrel.
Copyright   : Copyright c 2009 Dave Crossland davelab6com
Designer    : Dave Crossland
Foundry URL : httpabattisorg
</metadata>
<defs>
<font id="webfont3PgZ7J9k" horiz-adv-x="1298" >
<font-face units-per-em="2048" ascent="1513" descent="-535" />
<missing-glyph horiz-adv-x="559" />
<glyph unicode=" "  horiz-adv-x="559" />
<glyph unicode="&#x09;" horiz-adv-x="559" />
<glyph unicode="&#xa0;" horiz-adv-x="559" />
<glyph unicode="!" horiz-adv-x="649" d="M225 0l58 201h198l-55 -201h-201zM371 459l276 962h170l-276 -962h-170z" />
<glyph unicode="&#x22;" horiz-adv-x="794" d="M422 1083l121 428h184l-121 -428h-184zM811 1083l123 428h184l-123 -428h-184z" />
<glyph unicode="#" horiz-adv-x="1400" d="M156 379l43 149h315l100 353h-317l43 149h317l113 391h160l-113 -391h359l112 391h160l-113 -391h318l-43 -149h-318l-100 -353h315l-43 -149h-315l-117 -410h-160l117 410h-358l-117 -410h-160l117 410h-315zM674 528h358l101 353h-359z" />
<glyph unicode="$" horiz-adv-x="1198" d="M313 299l82 125q82 -39 140 -55q51 -14 118 -15q43 0 105 8q55 8 90 23q41 18 72 51q31 35 43 78q4 20 4 25q0 31 -27 53q-29 27 -63 39q-74 29 -89 33q-20 6 -96 34q-41 16 -86 43q-43 27 -65 64q-25 39 -25 88q0 27 10 68q14 45 37 77q31 43 72 82t115 74q57 27 157 45 l78 272h121l-74 -260q57 0 105 -6q49 -6 71 -12q18 -4 76 -23l-78 -125q-123 37 -225 37q-76 0 -127 -14q-49 -14 -86 -43q-31 -25 -45 -45q-16 -25 -23 -43q-2 -8 -2 -21q0 -39 47 -69q41 -27 113 -53q90 -33 135 -52q72 -29 115 -75q47 -51 47 -113q0 -29 -8 -59 q-12 -45 -41 -91q-27 -41 -74 -88t-120.5 -79.5t-172.5 -45.5l-86 -297h-121l84 291q-141 0 -303 74z" />
<glyph unicode="%" horiz-adv-x="1327" d="M86 0l1374 1421h170l-1374 -1421h-170zM391 969q0 57 21 125q23 82 77 149q52 65 111 92q61 29 119 29q20 0 53 -8q31 -8 53 -21q28 -15 43 -49q16 -37 17 -80q0 -53 -19 -114q-37 -132 -123 -209q-84 -76 -186 -76q-78 0 -121 37q-45 39 -45 125zM494 999q0 -57 26 -77 q29 -23 66 -23q29 0 47 8q20 8 47 29q27 18 49 57q23 37 39 97q14 45 14 84q0 94 -92 94q-25 0 -47 -8q-27 -10 -49 -27q-29 -20 -47 -53q-22 -37 -37 -86q-16 -60 -16 -95zM838 227q0 57 20 125q37 131 125 201t180 70q28 0 56 -7q25 -6 55 -22q28 -15 43 -49 q14 -31 14 -80q0 -59 -16 -115q-35 -127 -125 -207q-88 -78 -186 -77q-72 0 -121 38q-45 37 -45 123zM940 258q0 -57 26.5 -77.5t63.5 -20.5q29 0 47 8q33 14 49 27q23 18 50 59q23 37 38 94q14 45 15 82q0 55 -26.5 75.5t-67.5 20.5q-25 0 -48 -8q-27 -10 -49 -26 q-29 -20 -47 -54q-22 -37 -37 -86q-14 -49 -14 -94z" />
<glyph unicode="&#x26;" horiz-adv-x="1587" d="M246 180q0 53 14 103q16 49 29 73q18 37 37 68q14 23 47 63l49 56l55 53q14 12 24.5 19.5t15.5 12.5t13 11q16 14 58 41l51 35l47 30q8 6 18.5 12.5l15.5 9.5l5 3l-2 3q-2 3 -5 9t-7 11q-2 4 -6.5 10t-7.5 9t-3 5q-2 2 -6 7t-10 16q-12 18 -16 26l-13 25q-10 20 -12 27 l-10 26q-2 6 -9 31q-2 8 -6 29q-2 10 -2 32q0 33 15 86q39 139 182 230q139 88 313 88q129 0 197 -54q70 -55 69 -145q0 -29 -10 -65q-12 -43 -26 -66q-25 -41 -37 -57q-16 -23 -53 -56q-49 -47 -56 -51q-27 -23 -63 -49q-47 -33 -64 -43q-20 -12 -67 -43t-62 -39l244 -371 l424 353l65 -95l-426 -358l197 -301h-203l-135 201l-88 -66l-100 -63q-66 -41 -119 -62q-61 -23 -133 -41q-68 -16 -152 -16q-133 0 -204.5 61.5t-71.5 165.5zM432 266q0 -74 51 -119q53 -47 140 -47q49 0 98 15q57 16 92 32q39 18 90 52q55 35 76 51l68 49l-254 373 q-135 -88 -197 -137q-127 -104 -156 -207q-8 -27 -8 -62zM782 1071q0 -20 11 -51q10 -29 20 -45l15.5 -20.5t21.5 -30.5q10 -14 22 -34l13 -20q8 6 24.5 16.5l38.5 24.5l60 37q4 2 19 13.5t28 19.5l47 31l14 14t19 16q23 20 32 33q9 12 19 31q12 25 16 37q4 10 4 37 q0 53 -37 84q-39 33 -106 32q-92 0 -172 -53t-103 -129q-6 -21 -6 -43z" />
<glyph unicode="'" horiz-adv-x="403" d="M422 1083l121 428h184l-121 -428h-184z" />
<glyph unicode="(" horiz-adv-x="741" d="M328 152q0 225 57 423q40 138 111 283q76 158 155 272q98 145 162 226q76 96 162 192l110 -69q-287 -322 -438 -668q-150 -338 -149 -680q0 -227 71 -455l-153 -84q-88 273 -88 560z" />
<glyph unicode=")" horiz-adv-x="741" d="M-12 -324q88 102 151 185q74 98 156 229q84 137 141 272q57 137 99 312q39 168 38 344q0 233 -69 461l151 69q90 -276 90 -553q0 -217 -59 -420q-39 -135 -111 -284q-68 -141 -157 -277q-82 -123 -166 -229q-94 -121 -160 -193z" />
<glyph unicode="*" horiz-adv-x="1193" d="M422 844l326 143l-244 141l127 150l217 -176l72 319h170l-109 -319l315 176l43 -150l-323 -141l241 -143l-127 -150l-217 176l-71 -317h-170l108 317l-315 -176z" />
<glyph unicode="+" horiz-adv-x="1398" d="M295 590l39 137h500l147 506h147l-147 -506h502l-39 -137h-502l-143 -506h-150l146 506h-500z" />
<glyph unicode="," horiz-adv-x="569" d="M-20 -219l270 389h178l-268 -389h-180z" />
<glyph unicode="-" horiz-adv-x="1208" d="M344 590l41 137h858l-39 -137h-860z" />
<glyph unicode="." horiz-adv-x="569" d="M180 0l60 211h211l-62 -211h-209z" />
<glyph unicode="/" horiz-adv-x="724" d="M14 -90l928 1511h170l-928 -1511h-170z" />
<glyph unicode="0" d="M268 408q0 145 51 319q45 154 119 287q70 125 150 205q77 77 166 129q84 49 164 71q74 20 145 21q51 0 104 -13q49 -12 102.5 -42.5t90.5 -77.5t61 -119q23 -68 23 -166q0 -131 -47 -297q-49 -172 -121 -299q-74 -132 -154 -215q-74 -78 -168 -135q-86 -53 -163 -76 q-70 -20 -146 -20q-51 0 -104 12q-45 10 -101 45q-51 33 -88 78q-39 47 -59 123q-25 88 -25 170zM442 449q0 -82 23 -150q23 -66 57.5 -100.5t79.5 -51.5q51 -18 86 -18q49 0 100 18q63 23 117 60q55 39 119 108q49 55 111 170q59 111 94 238q41 147 41 254q0 84 -23 147 q-20 59 -61 96t-80 52q-41 14 -88 14q-51 0 -100.5 -14.5t-114.5 -57.5q-63 -41 -119 -102q-57 -63 -109 -160q-55 -104 -88 -223q-45 -155 -45 -280z" />
<glyph unicode="1" d="M293 0l43 150h334l315 1107l-346 -122l-23 145l385 141h195l-362 -1271h329l-43 -150h-827z" />
<glyph unicode="2" d="M225 0l27 92q72 119 166 229.5t176 180.5q76 66 172 137q66 49 164 115q104 70 137 94q61 45 102 90q41 43 58 96q8 25 8 53q0 86 -72 142q-71 55 -184 55q-150 0 -397 -82l-11 131q258 98 482 99q172 0 272 -78q98 -76 98 -201q0 -43 -12 -88q-20 -72 -68 -137 q-46 -65 -110 -117q-57 -47 -139 -104l-156 -109l-164 -117q-74 -55 -158 -147q-80 -86 -141 -184h701l-43 -150h-908z" />
<glyph unicode="3" d="M184 33l88 137q186 -57 310 -57q157 0 288 80t168 206q10 37 11 68q0 37 -8.5 61.5t-34.5 57.5q-20 27 -68 51q-35 18 -111 33q-78 14 -159 14l43 145q82 0 163 17q68 14 127 43q51 27 86 57q35 33 56 66q20 35 28 61q8 33 9 49q0 70 -60 117q-57 45 -166 45 q-145 0 -350 -84l-16 135q240 102 432 103q154 0 250 -72q94 -70 94 -184q0 -37 -12 -80q-31 -113 -117 -199q-90 -90 -195 -125q199 -59 199 -233q0 -49 -16 -109q-61 -215 -256 -348t-432 -133q-185 0 -351 78z" />
<glyph unicode="4" d="M219 344l33 113l850 964h237l-266 -927h250l-43 -150h-250l-98 -344h-164l98 344h-647zM459 494h450l219 766z" />
<glyph unicode="5" d="M176 14l78 152q152 -33 309 -33q104 0 187 21q90 23 141 51t96 73.5t64 79.5q25 47 34 78q10 41 11 76q0 39 -17 82q-14 39 -53 74q-37 34 -104 55q-63 20 -164 20q-123 0 -318 -22l201 700h856l-43 -149h-692l-111 -389q125 14 207 14q90 0 176 -20q84 -20 125 -48 q45 -29 76 -73q29 -39 41 -84q10 -37 10 -90q0 -61 -18 -127q-16 -49 -27 -76q-14 -37 -47 -86q-31 -45 -72 -90q-35 -37 -98 -84q-49 -37 -127 -72q-68 -31 -164 -49q-94 -18 -201 -18q-178 -1 -356 34z" />
<glyph unicode="6" d="M291 311q0 115 43 267q55 195 141 346q90 158 178 245q92 92 209 156q106 57 225 84q100 23 230 23q52 0 123 -7l-56 -147q-35 4 -104 4q-106 0 -182 -16q-78 -16 -146 -47q-70 -31 -118 -70q-45 -35 -91 -84q-29 -31 -69.5 -94.5t-52.5 -89.5l-37 -86q72 63 168 100 t198 37q156 0 246 -84t90 -225q0 -72 -20 -142q-61 -211 -241.5 -358.5t-395.5 -147.5q-47 0 -90 7q-33 4 -88 30q-51 25 -82 58q-34 37 -56 98q-22 63 -22 143zM457 371q0 -109 61.5 -182.5t167.5 -73.5q129 0 248 104q123 106 162 246q14 51 14 98q0 106 -66 166 q-70 63 -174 64q-129 0 -243 -91q-117 -92 -156 -227q-14 -51 -14 -104z" />
<glyph unicode="7" d="M307 0l1016 1262h-829l45 159h1038l-31 -106l-1040 -1315h-199z" />
<glyph unicode="8" d="M248 291q0 49 14 98q35 123 143.5 231.5t256.5 170.5q-129 78 -130 219q0 47 13 88q41 145 182 243.5t330 98.5q170 0 256 -62q88 -63 88 -176q0 -47 -19 -108q-25 -84 -94 -158q-63 -66 -192 -143q186 -98 186 -283q0 -72 -31 -150q-29 -72 -90 -143q-57 -68 -137 -121 q-86 -59 -174 -86q-98 -31 -201 -30q-180 0 -290.5 86t-110.5 225zM430 340q0 -90 72 -150q74 -61 198 -61q139 0 248 78q106 76 142 190q12 43 12 78q0 39 -17 78q-14 35 -40.5 61.5t-61.5 47.5q-37 22 -74 36q-14 6 -43.5 15.5t-38.5 11.5q-150 -39 -254 -129 q-106 -90 -133 -190q-10 -37 -10 -66zM705 1049q0 -31 18 -62q23 -37 37 -49q25 -20 59 -37q8 -4 62 -27l61 -22q126 68 191 117q63 49 86 118q8 25 8 58q0 72 -60 112q-57 39 -151 39q-106 0 -193 -59q-90 -61 -110 -139q-8 -33 -8 -49z" />
<glyph unicode="9" d="M264 -8l55 147q43 -6 107 -6q98 0 184 19q82 18 148 47q61 28 116 73q59 49 91 86q34 40 67 99q35 59 53 100q2 4 41 98q-80 -63 -176 -98q-92 -33 -182 -33q-158 0 -248 84q-94 88 -94 226q0 53 20 124q37 131 132 240q96 111 229 176q139 68 272 68q51 0 90 -8 q45 -10 91 -31q41 -18 77 -60q31 -35 54 -96q20 -59 20 -141q0 -117 -43 -270q-53 -190 -139 -344q-80 -145 -178 -244q-92 -92 -209 -156q-109 -57 -224 -84q-102 -23 -231 -22q-62 0 -123 6zM602 893q0 -100 70 -166q66 -63 172 -63q129 0 243 88q117 88 150 211 q12 43 12 84q0 109 -63 180q-63 74 -168 73q-123 0 -244 -100q-123 -102 -160 -225q-12 -43 -12 -82z" />
<glyph unicode=":" horiz-adv-x="569" d="M180 0l60 211h211l-62 -211h-209zM406 782l59 211h211l-62 -211h-208z" />
<glyph unicode=";" horiz-adv-x="569" d="M-20 -219l270 389h178l-268 -389h-180zM406 782l59 211h211l-62 -211h-208z" />
<glyph unicode="&#x3c;" horiz-adv-x="1071" d="M254 532l45 166l997 430l-45 -155l-798 -352l602 -336l-47 -164z" />
<glyph unicode="=" horiz-adv-x="1398" d="M322 350l43 152h958l-43 -152h-958zM451 805l43 149h960l-43 -149h-960z" />
<glyph unicode="&#x3e;" horiz-adv-x="1071" d="M133 121l49 164l795 336l-598 352l45 155l750 -430l-48 -166z" />
<glyph unicode="?" horiz-adv-x="1044" d="M311 0l58 201h198l-55 -201h-201zM438 391q25 84 66 158q35 61 88 115q31 31 100 84q16 12 103 71q66 45 94 68q45 35 78 80q37 49 51 102q8 27 8 59q0 37 -10 60q-12 27 -39 51q-29 25 -82 41q-49 14 -127 14q-45 0 -131 -14q-80 -12 -127 -33l-16 121q162 70 342 70 q176 0 274 -62q96 -59 96 -178q0 -49 -14 -100q-20 -78 -64 -148q-39 -61 -86 -106q-53 -49 -96 -80l-102 -70q-45 -31 -94 -73q-49 -41 -84 -99q-35 -55 -58 -131h-170z" />
<glyph unicode="@" horiz-adv-x="2099" d="M250 109q0 125 47 294q25 94 70 199q43 100 100 197q68 113 133 188q76 90 172 164q96 76 211 131t256 86q145 31 303 31q633 0 633 -502q0 -164 -59 -367q-46 -157 -111 -276q-63 -117 -131 -188q-65 -68 -135 -111q-76 -45 -125 -57q-53 -12 -103 -13q-86 0 -139 47 q-51 45 -57 123q-150 -76 -291 -75q-145 0 -233 81q-86 80 -86 226q0 66 26 166q63 225 230 366q168 143 368 144q127 0 230 -60l43 66h112l-207 -717q-27 -94 -26 -139q0 -92 90 -93q35 0 82 25q43 23 98 82q51 53 102 154q51 98 89 229q49 172 49 301q0 426 -537 426 q-129 0 -237 -27q-106 -27 -203 -75q-80 -41 -168 -113q-76 -61 -137 -135q-57 -68 -105 -152q-45 -78 -78 -153q-25 -57 -51 -144q-37 -131 -37 -243q0 -119 39 -209q39 -92 107 -150q70 -59 157 -90q90 -31 195 -31q154 0 309 68l31 -121q-197 -88 -406 -88q-68 0 -102 4 q-39 4 -115 23q-68 16 -118 39q-57 25 -109 67q-57 47 -90 96q-37 55 -62 134q-24 77 -24 172zM868 342q0 -111 68 -172t176 -61q102 0 215 53l182 633q-88 45 -190 45q-143 0 -262 -96.5t-168 -268.5q-21 -70 -21 -133z" />
<glyph unicode="A" horiz-adv-x="1382" d="M129 0l913 1421h193l98 -1421h-172l-26 414h-586l-262 -414h-158zM643 561h483l-43 694z" />
<glyph unicode="B" horiz-adv-x="1423" d="M291 0l405 1421h502q72 0 131 -16q55 -16 88 -39q31 -23 53 -57q20 -31 27 -66q8 -41 8 -65q0 -53 -14 -99q-25 -88 -109 -174t-155 -110q100 -18 155 -90q55 -71 56 -173q0 -53 -15 -102q-8 -29 -24 -63q-16 -37 -43 -78q-23 -37 -66 -82q-35 -39 -90 -78 q-53 -39 -117 -66q-61 -27 -149 -45q-86 -18 -182 -18h-461zM504 150h264h61q23 0 72 6q41 4 82 16q33 8 82 29q35 14 76 47q33 27 63 69q27 37 43 97q12 43 13 78q0 100 -82 151q-84 53 -228 53q-39 0 -295 -14zM692 813q4 0 26.5 1t41.5 1q16 0 39.5 1t31.5 1q10 0 76 4 l48 5t30 3q31 3 74 13q41 8 71 22q18 8 64 33q34 18 55 43q31 37 45 57q16 25 31 74q10 37 10 66q0 68 -53 110q-52 43 -178 43h-275z" />
<glyph unicode="C" horiz-adv-x="1449" d="M442 481.5q0 104.5 31 214.5q29 100 88 217q57 111 141 201q92 98 189 164q113 76 233 113q135 41 273 41q195 0 364 -76l-94 -142q-170 66 -319 66q-117 0 -236 -47q-117 -45 -207 -127q-90 -80 -157 -182q-68 -100 -99 -213q-27 -100 -26 -174q0 -178 114 -289 q117 -113 320 -113q154 0 338 62l16 -127q-236 -90 -442 -90q-131 0 -236 40q-109 43 -166 109q-66 76 -94 158q-31 90 -31 194.5z" />
<glyph unicode="D" horiz-adv-x="1605" d="M291 0l405 1421h441q125 0 223 -24q104 -27 162 -62q61 -37 102 -98q43 -63 57 -119q16 -66 17 -135q0 -113 -35 -229q-31 -104 -66 -179q-43 -94 -100 -176q-66 -94 -133 -159q-78 -74 -174 -127q-98 -53 -217 -82q-68 -16 -131 -23q-94 -8 -117 -8h-127h-307zM504 150 h207q16 0 40.5 1t32.5 1q31 0 82 6q61 8 92 14q27 6 91 29q51 18 96 47q55 37 92 67q39 35 90 97q102 129 154 309q31 104 30 192q0 78 -24 144q-23 61 -64 104t-88 68q-53 27 -104 35q-39 8 -131 8h-277z" />
<glyph unicode="E" horiz-adv-x="1282" d="M291 0l405 1421h834l-43 -149h-664l-133 -465h608l-43 -150h-608l-143 -507h661l-43 -150h-831z" />
<glyph unicode="F" horiz-adv-x="1247" d="M291 0l405 1421h824l-43 -149h-654l-133 -465h594l-43 -150h-594l-186 -657h-170z" />
<glyph unicode="G" horiz-adv-x="1589" d="M383 479.5q0 106.5 31 216.5q29 100 88 217q51 98 141 199q84 94 188 166q98 68 232 113q123 41 266 41q236 0 422 -121l-102 -127q-72 45 -156 69q-96 29 -197 29q-109 0 -213 -39q-117 -43 -206 -110q-98 -74 -172 -177q-76 -106 -113 -235q-29 -98 -29 -180 q0 -186 119 -299q117 -111 317 -111q195 0 349 117l102 362h-403l40 140h570l-162 -557q-53 -45 -80 -62q-51 -33 -117 -65q-74 -37 -174 -62q-101 -25 -209 -24q-137 0 -239.5 38.5t-165.5 108.5q-68 74 -96 158q-31 88 -31 194.5z" />
<glyph unicode="H" horiz-adv-x="1599" d="M291 0l405 1421h170l-174 -612h760l174 612h170l-405 -1421h-170l188 657h-760l-188 -657h-170z" />
<glyph unicode="I" horiz-adv-x="729" d="M319 0l408 1421h170l-408 -1421h-170z" />
<glyph unicode="J" horiz-adv-x="952" d="M113 6l67 144q70 -16 135 -17q61 0 112.5 12.5t88.5 30.5q35 16 66 45q14 12 47 51q12 14 30 56l21 49q6 14 12 41l289 1003h170l-287 -995q-33 -117 -71 -184q-45 -78 -117 -136q-154 -123 -375 -122q-106 -1 -188 22z" />
<glyph unicode="K" horiz-adv-x="1415" d="M291 0l405 1421h170l-405 -1421h-170zM692 729l801 692h213l-795 -678l426 -743h-219z" />
<glyph unicode="L" horiz-adv-x="1132" d="M291 0l405 1421h170l-362 -1271h637l-43 -150h-807z" />
<glyph unicode="M" horiz-adv-x="1882" d="M291 0l405 1421h242l209 -862l708 862h226l-408 -1421h-170l338 1178l-657 -770h-170l-217 770l-336 -1178h-170z" />
<glyph unicode="N" horiz-adv-x="1658" d="M291 0l405 1421h215l435 -1190l340 1190h169l-405 -1421h-215l-432 1192l-342 -1192h-170z" />
<glyph unicode="O" horiz-adv-x="1685" d="M381 459q0 113 37 248q96 332 339.5 530.5t538.5 198.5q231 0 365 -125q135 -127 135 -344q0 -115 -37 -240q-96 -332 -344 -536.5t-543 -204.5q-109 0 -192 28q-90 31 -156 88q-68 59 -106 148q-37 86 -37 209zM565 514q0 -178 99 -278q98 -102 264 -103q68 0 145 23 q82 25 152 65q63 37 141 113q70 66 123 162q59 104 90 213q33 113 33 209q0 78 -21 137q-22 61 -55 104t-82 72q-53 33 -100 43q-52 12 -111 12q-92 0 -184 -33q-86 -31 -182 -100q-90 -66 -164 -176q-76 -113 -115 -250q-33 -113 -33 -213z" />
<glyph unicode="P" horiz-adv-x="1337" d="M291 0l405 1421h469h62q27 0 69 -6q49 -6 74 -14q35 -10 68 -27q39 -18 59 -43q25 -29 39 -65q16 -43 16 -88q0 -68 -20 -136q-20 -63 -49 -124.5t-62 -102.5q-41 -51 -73 -78q-49 -39 -84 -57q-43 -25 -90 -41q-43 -16 -93 -27q-33 -6 -98 -14q-74 -8 -96 -8h-94 q-68 0 -162 6l-170 -596h-170zM674 745q84 -8 180 -8q18 0 45 1t37 1q35 0 84 6q37 4 84 17q20 4 76 33q39 18 71 49q27 25 58 71q27 41 43 101q14 45 14 88t-20 78q-18 33 -45 49t-70 26q-43 8 -78 13q-23 2 -82 2h-248z" />
<glyph unicode="Q" horiz-adv-x="1705" d="M379 459q0 106 39 246q63 219 198 387q133 168 312 256q176 88 370 88q127 0 226 -37q96 -37 155 -105q59 -70 86 -151.5t27 -184.5q0 -195 -90 -395q-94 -209 -238 -344l129 -178l-118 -96l-138 176q-211 -135 -452 -135q-233 0 -369 123q-137 125 -137 350zM565 512 q0 -180 105 -279q106 -100 276 -100q158 0 309 94l-229 297l137 109l219 -301q129 139 191 352q37 129 37 236q0 78 -23 145q-23 66 -59 106q-33 35 -86 66q-45 27 -99 39q-41 10 -102 10q-90 0 -180 -33q-94 -35 -182 -98q-90 -66 -164 -176q-80 -119 -117 -254 q-33 -113 -33 -213z" />
<glyph unicode="R" horiz-adv-x="1437" d="M291 0l405 1421h523q35 0 79 -4q29 -2 84 -16q51 -12 84 -37q31 -23 58 -72q25 -47 24.5 -112.5t-24.5 -149.5q-25 -78 -56 -133q-39 -68 -88 -123q-51 -55 -129 -100q-76 -43 -166 -64l226 -610h-191l-215 592h-274l-170 -592h-170zM674 741h246q29 0 73 4q53 4 80 11 q51 10 84 26q45 23 78 47q37 27 65 76q31 51 48 107q14 43 14 88q0 172 -250 172h-287z" />
<glyph unicode="S" horiz-adv-x="1359" d="M262 76l105 166q229 -94 368 -95q154 0 266.5 61.5t141.5 164.5q8 23 8 53q0 49 -33 88q-31 37 -88 64q-74 35 -117 49l-127 49q-61 23 -118 57q-49 29 -86 82q-33 47 -33 115q0 53 12 92q49 170 237.5 291t434.5 121q166 0 336 -58l-101 -153q-160 51 -297 51 q-150 0 -268 -64q-121 -66 -147 -159q-8 -29 -8 -47q0 -49 32.5 -84t87.5 -62q52 -25 117 -49l127 -51q80 -35 119 -60q52 -34 86 -86q33 -51 33 -118q0 -47 -15 -97q-14 -55 -51 -114q-34 -55 -92 -111q-59 -57 -131 -98q-74 -43 -176 -68q-111 -27 -219 -26 q-117 0 -205 24q-107 29 -199 72z" />
<glyph unicode="T" horiz-adv-x="1208" d="M449 1272l43 149h1120l-43 -149h-475l-365 -1272h-170l365 1272h-475z" />
<glyph unicode="U" horiz-adv-x="1581" d="M393 281v18q4 70 37 188l266 934h170l-264 -921q-27 -92 -27 -150q0 -59 29 -110q68 -113 262 -113q141 0 254 61.5t172 173.5q31 57 54 138l264 921h168l-267 -936q-12 -46 -24 -79q-14 -37 -41 -93q-23 -43 -60 -96q-33 -45 -86 -90q-57 -47 -116.5 -75.5t-157.5 -51.5 q-88 -20 -201 -20q-80 0 -145 12q-78 14 -111 28q-39 16 -77 46q-29 20 -52 51q-12 16 -28 57q-10 27 -15 55q-4 34 -4 52z" />
<glyph unicode="V" horiz-adv-x="1400" d="M547 1421h203l51 -1241l760 1241h188l-903 -1421h-211z" />
<glyph unicode="W" horiz-adv-x="2164" d="M547 1421h180l14 -1194l703 1194h172l26 -1194l691 1194h180l-846 -1421h-180l-35 1188l-688 -1188h-180z" />
<glyph unicode="X" horiz-adv-x="1366" d="M111 0l725 741l-258 680h204l209 -534l502 534h197l-643 -676l290 -745h-219l-227 598l-572 -598h-208z" />
<glyph unicode="Y" horiz-adv-x="1261" d="M508 1421h201l192 -587l539 587h190l-698 -747l-193 -674h-170l193 674z" />
<glyph unicode="Z" horiz-adv-x="1357" d="M156 0l30 111l1207 1161h-844l43 149h1085l-30 -108l-1223 -1163h917l-43 -150h-1142z" />
<glyph unicode="[" horiz-adv-x="757" d="M131 -410l551 1921h459l-41 -149h-295l-465 -1622h293l-43 -150h-459z" />
<glyph unicode="\" horiz-adv-x="724" d="M426 1421h172l61 -1511h-170z" />
<glyph unicode="]" horiz-adv-x="757" d="M-68 -410l43 150h293l467 1622h-295l43 149h457l-551 -1921h-457z" />
<glyph unicode="^" horiz-adv-x="1478" d="M801 1245l366 295l174 -285l-118 -88l-119 197l-238 -197z" />
<glyph unicode="_" horiz-adv-x="1159" d="M150 0l43 150h860l-43 -150h-860z" />
<glyph unicode="`" horiz-adv-x="1120" d="M694 1462l107 123l413 -309l-94 -109z" />
<glyph unicode="a" horiz-adv-x="1056" d="M184 195q0 35 9 61q22 71 67 123q49 57 109 86q61 31 145 49q96 20 168 27q111 8 184 8l23 74q16 59 16 94q0 129 -190 129q-95 0 -271 -43l2 119q172 59 334 59q164 0 232 -53q70 -55 69 -154q0 -57 -20 -131l-187 -643h-114l-12 90q-150 -111 -306 -110 q-119 0 -188.5 61.5t-69.5 153.5zM354 233q0 -49 49 -88q47 -37 121 -36q123 0 244 98l63 217h-59q-70 0 -98 -2q-61 -4 -99 -10q-45 -8 -96 -27q-39 -14 -73.5 -47t-47.5 -74q-4 -17 -4 -31z" />
<glyph unicode="b" horiz-adv-x="1167" d="M184 0l434 1511h164l-170 -596q145 68 279 68q57 0 113 -16q59 -18 100 -47q49 -37 76 -95q27 -59 26 -143q0 -90 -28 -188q-68 -238 -236 -377q-164 -137 -369 -137q-133 0 -241 65l-33 -45h-115zM393 154q92 -45 193 -45q43 0 90 10q37 8 94 34.5t96 63.5q43 41 82 102 q39 63 62 146q25 86 24 158q0 61 -22 110q-20 43 -59.5 69.5t-75.5 35.5q-45 10 -82 10q-109 0 -217 -51z" />
<glyph unicode="c" horiz-adv-x="985" d="M229 276q0 78 29 183q33 111 86 205q47 84 117 149q61 58 135 98q68 37 143.5 53.5t139.5 16.5q139 0 254 -59l-74 -117q-92 35 -201 35q-63 0 -125 -17q-59 -16 -119 -51q-57 -35 -108 -108q-55 -80 -80 -170q-25 -86 -25 -152q0 -61 23 -111q20 -45 61 -69 q33 -20 84 -35q43 -12 99 -12q84 0 192 32l6 -112q-157 -55 -295 -55q-68 0 -122 14q-51 14 -109 47q-51 31 -82 92q-29 57 -29 143z" />
<glyph unicode="d" horiz-adv-x="1173" d="M231 283q0 78 29 182q49 166 143 285q92 115 213 176q115 57 248 57q117 0 219 -53l166 581h164l-432 -1511h-115l-8 61q-158 -82 -307 -81q-57 0 -117 16q-53 14 -102 51q-47 35 -74 94.5t-27 141.5zM403 342q0 -61 23 -110.5t57 -71.5q39 -27 76 -35q45 -10 82 -10 q109 0 225 55l183 639q-90 45 -197 45q-43 0 -90 -10q-37 -8 -94 -35q-53 -25 -95 -64q-37 -35 -81 -106q-41 -66 -66 -150q-23 -79 -23 -147z" />
<glyph unicode="e" horiz-adv-x="1087" d="M229 274q0 88 27 177q41 141 109 239q70 102 157 166q92 66 174 94q90 31 181 31q266 0 266 -236q0 -90 -49 -264l-23 -75h-665q-10 -41 -11 -68q0 -96 74 -162q76 -66 215 -65q94 0 229 34l-2 -110q-174 -55 -325 -55q-78 0 -144 16q-63 16 -100 41q-43 31 -66 65 q-31 49 -36 80q-11 47 -11 92zM444 528h504q25 86 25 150q0 162 -172 162q-125 0 -223 -92q-95 -91 -134 -220z" />
<glyph unicode="f" horiz-adv-x="798" d="M-260 -494l57 121q84 -23 148 -22q61 0 104 14q41 14 74 39q25 18 47.5 51t28.5 49q2 4 7 17.5t7 21.5l297 1037h-139l37 129h139l31 106q40 138 98 209q57 72 145 113q84 39 185 39q106 0 221 -39l-60 -125q-86 27 -147 26q-58 0 -105 -18q-53 -23 -75 -41 q-29 -27 -49 -57q-18 -29 -29 -54q-12 -29 -17 -43l-32 -116h323l-37 -129h-323l-295 -1031q-37 -133 -94 -194q-57 -66 -142 -103q-86 -37 -184 -36q-107 -1 -221 36z" />
<glyph unicode="g" horiz-adv-x="1161" d="M63 -477l80 119q104 -45 222 -45q336 0 444 378l20 72q-145 -68 -274 -67q-66 0 -121 18q-61 20 -102 53q-47 39 -74 96q-27 59 -27 144q0 82 31 188q31 113 90.5 203t120.5 143q70 59 135 93q70 35 135 51q57 14 113 14q119 0 248 -80l37 60h114l-297 -1033 q-6 -20 -18 -57t-33 -78q-29 -57 -55 -92q-35 -45 -78 -88q-47 -47 -108.5 -80t-141.5 -53q-86 -23 -178 -23q-154 1 -283 64zM406 352q0 -109 57 -172q59 -66 176 -65q109 0 225 55l178 627q-113 53 -213 53q-137 0 -245 -96q-113 -100 -158 -256q-20 -70 -20 -146z" />
<glyph unicode="h" horiz-adv-x="1177" d="M184 0l434 1511h164l-178 -622q199 92 348 92q240 0 240 -215q0 -82 -39 -213l-160 -553h-168l166 580q18 63 19 108q0 147 -164 148q-117 0 -279 -74l-219 -762h-164z" />
<glyph unicode="i" horiz-adv-x="522" d="M180 0l283 987h164l-283 -987h-164zM518 1233l53 188h195l-53 -188h-195z" />
<glyph unicode="j" horiz-adv-x="518" d="M-100 -410q182 78 231 256l328 1141h164l-322 -1124q-12 -43 -25 -76q-14 -35 -38 -82q-31 -57 -66 -92q-33 -33 -100 -78q-61 -41 -148 -70zM514 1233l53 188h195l-53 -188h-195z" />
<glyph unicode="k" horiz-adv-x="1060" d="M176 0l432 1511h164l-432 -1511h-164zM512 547l557 461h180l-551 -445l289 -563h-196z" />
<glyph unicode="l" horiz-adv-x="563" d="M201 0l432 1511h164l-432 -1511h-164z" />
<glyph unicode="m" horiz-adv-x="1710" d="M176 0l277 963h114l11 -82q203 100 333 100q150 0 201 -109q227 109 377 109q233 0 233 -207q0 -84 -32 -196l-166 -578h-164l168 588q16 55 16 104q0 139 -151 139q-90 0 -260 -75q-4 -59 -39 -187l-162 -569h-164l168 590q16 59 16 100q0 141 -149 141q-83 0 -246 -73 l-217 -758h-164z" />
<glyph unicode="n" horiz-adv-x="1161" d="M176 0l277 963h114l13 -84q219 104 370 104q229 0 230 -203q0 -88 -35 -205l-166 -575h-164l166 584q20 76 20 108q0 143 -165 144q-115 0 -279 -74l-217 -762h-164z" />
<glyph unicode="o" horiz-adv-x="1193" d="M236 299q0 76 26 172q68 233 238 373q168 137 381 137q162 0 256 -82t94 -233q0 -76 -25 -164q-68 -238 -243 -381q-176 -141 -385 -141q-160 0 -250 83q-92 86 -92 236zM410 367q0 -109 59 -179q59 -68 168 -67q131 0 242 96q115 100 157 252q20 63 21 131 q0 113 -66 178q-63 63 -164 64q-77 0 -153 -37t-146 -119q-68 -80 -98 -188q-20 -68 -20 -131z" />
<glyph unicode="p" horiz-adv-x="1161" d="M23 -530l430 1493h112l10 -64q158 82 310 82q51 0 90 -8q37 -8 86 -33q39 -20 72 -55q31 -34 49 -86q18 -53 18 -119q0 -88 -29 -188q-45 -156 -139 -275q-88 -113 -213 -176q-120 -61 -252 -61q-117 0 -219 53l-162 -563h-163zM385 156q94 -47 195 -47q43 0 90 10 q41 8 96 35q53 25 94 63q43 41 82 102q39 63 62 146q25 86 24 156q0 63 -22 112q-20 43 -60 70q-37 25 -74 33q-45 10 -84 10q-104 0 -221 -53z" />
<glyph unicode="q" horiz-adv-x="1161" d="M231 285q0 92 29 190q39 131 105 225q70 100 149 160q84 63 170 92q89 31 172 31q119 0 248 -80l37 60h114l-428 -1493h-163l165 579q-156 -70 -282 -69q-55 0 -115 16q-53 14 -100 49q-45 33 -74 96q-27 60 -27 144zM403 342q0 -66 21 -109q20 -45 57 -69.5t76 -36.5 q33 -10 84 -10q106 0 223 53l178 627q-113 53 -213 53q-137 0 -245.5 -96.5t-157.5 -261.5q-23 -87 -23 -150z" />
<glyph unicode="r" horiz-adv-x="788" d="M176 0l277 963h114l11 -74q147 92 294 92q104 0 175 -39l-86 -129q-70 29 -150 29q-123 0 -250 -68l-221 -774h-164z" />
<glyph unicode="s" horiz-adv-x="1003" d="M143 55l80 121q88 -35 152 -51q66 -16 121 -16q240 0 282 151q2 8 2 23q0 41 -45 67q-46 28 -110 49q-86 29 -129 45q-66 25 -111 70t-45 113q0 35 8 65q8 29 33 72q18 33 65 76q49 45 97 71q51 29 139 52q72 18 180 18h39q23 0 35 -2t29 -2q6 0 26 -4q4 -2 12.5 -4 t10.5 -2t10 -2t12 -4q16 -4 21 -5l3 -1q3 -1 7 -3t10 -4q18 -6 21 -6l-78 -125q-126 37 -221 37q-68 0 -127 -16q-47 -12 -84 -43q-27 -20 -45 -47q-14 -20 -21 -41q-4 -12 -4 -21q0 -31 35 -59q27 -20 84 -43q102 -39 108 -41q66 -27 109 -49q49 -25 82 -66q35 -45 35 -94 q0 -25 -10 -60q-14 -45 -33 -77q-23 -39 -62 -78q-37 -37 -96 -70q-57 -33 -135 -49q-92 -20 -182 -20q-146 -1 -310 75z" />
<glyph unicode="t" horiz-adv-x="761" d="M258 156q0 53 27 145l151 533h-129l37 129h129l88 309h164l-86 -309h293l-37 -129h-295l-149 -529q-16 -61 -17 -92q0 -104 117 -104q47 0 156 18l-11 -111q-154 -37 -231 -36q-207 0 -207 176z" />
<glyph unicode="u" horiz-adv-x="1163" d="M252 184q0 86 35 203l166 576h163l-167 -584q-18 -59 -19 -107q0 -145 166 -145q109 0 278 76l218 760h163l-274 -963h-117l-10 84q-215 -104 -373 -104q-229 -1 -229 204z" />
<glyph unicode="v" horiz-adv-x="978" d="M340 963h180l19 -803l481 803h170l-619 -963h-165z" />
<glyph unicode="w" horiz-adv-x="1652" d="M336 963h174l29 -807l481 807h156l26 -807l492 807h176l-633 -963h-162l-33 780l-477 -780h-159z" />
<glyph unicode="x" horiz-adv-x="1032" d="M76 0l477 473l-213 490h188l164 -381l373 381h174l-502 -492l207 -471h-190l-156 362l-348 -362h-174z" />
<glyph unicode="y" horiz-adv-x="1048" d="M111 -530l333 473l-118 1020h180l76 -824l522 824h170l-987 -1493h-176z" />
<glyph unicode="z" horiz-adv-x="1056" d="M145 0l25 86l739 748h-524l37 129h735l-24 -86l-742 -748h551l-37 -129h-760z" />
<glyph unicode="{" horiz-adv-x="796" d="M227 479l39 139q59 10 94 29q41 20 78 47q27 18 62 62q27 31 49 69q23 37 39 76q6 12 16 34.5t14 33.5q6 14 10.5 30.5t10.5 32.5q2 6 18 47q41 106 97 187q53 78 108 123q57 47 113 73q57 27 96 37q35 8 74 12l-6 -129q-121 -14 -221 -120q-43 -47 -76 -109 q-35 -68 -56 -125q-18 -51 -49 -131q-18 -47 -59 -129q-27 -55 -88 -119q-57 -59 -131 -100q96 -74 96 -215q0 -68 -31 -209q-29 -131 -28 -201q0 -53 14 -88q16 -45 57 -80q39 -33 95 -39l-68 -129q-37 4 -53 9q-27 6 -66 26q-41 23 -67 51q-28 31 -50 86q-20 53 -20 127 q0 66 10 119q0 6 17 76q16 78 20 100q6 43 6 82q0 111 -63 168q-38 35 -101 47z" />
<glyph unicode="|" horiz-adv-x="882" d="M272 -307l547 1909h164l-547 -1909h-164z" />
<glyph unicode="}" horiz-adv-x="796" d="M-33 -412l8 129q121 14 220 119q49 53 86 131q35 74 63 156q31 88 62 156q35 78 96 149.5t151 120.5q-94 74 -94 215q0 76 29 207q31 141 30 200q0 53 -14 91q-18 49 -57 81.5t-94 38.5l65 129q23 -2 57 -10q33 -6 66 -26q45 -27 66 -50q28 -31 49 -86q18 -47 18 -126.5 t-12 -133.5q-2 -4 -5 -18l-7 -33q-8 -43 -13 -61q-8 -39 -10 -52q-4 -29 -4 -77q0 -98 43 -154q41 -53 119 -66l-39 -139q-55 -10 -94 -28q-47 -23 -78 -48q-33 -27 -64 -63q-29 -35 -49 -72q-31 -55 -39 -75q-25 -57 -28 -70l-23 -66q-6 -20 -11 -32.5t-7 -18.5 q-41 -104 -97 -180q-55 -74 -110 -121q-49 -39 -114.5 -69.5t-94.5 -36.5q-23 -7 -70 -11z" />
<glyph unicode="~" horiz-adv-x="1398" d="M717 1255l16 37q16 37 19 41q10 20 20 37q4 8 11.5 21.5t11.5 17.5l24 35q10 14 29 33q4 4 12 11t19 15q23 18 35 22.5t40 12.5q14 4 45 4q43 0 80 -18q39 -20 60 -45q4 -6 20.5 -24.5t22.5 -29.5q16 -23 41 -45q22 -18 43 -18q16 0 24 2q4 0 21 12l20 15q2 2 17 20 q12 16 16 23l14 28q4 10 8.5 16.5t6.5 10.5t6 11t8 18q8 18 12 26l103 -16l-17 -37l-20 -39q-2 -2 -8.5 -16.5t-10.5 -22.5q-12 -27 -22 -39q-8 -12 -25 -35q-14 -20 -28 -34q-4 -4 -15.5 -12.5t-15.5 -12.5q-20 -16 -37 -23q-12 -4 -41 -12q-20 -6 -45 -6q-43 0 -80 18 q-39 20 -59 46l-43 55q-18 27 -39 45t-45 18q-6 0 -22.5 -4t-22.5 -10l-19 -14q-8 -6 -18 -23q-6 -8 -9 -13t-6 -9q-12 -18 -16 -27q-6 -10 -9 -17.5t-3 -9.5t-5 -10l-10 -16l-12 -27z" />
<glyph unicode="&#xa1;" horiz-adv-x="649" d="M123 -410l364 1272h170l-364 -1272h-170zM547 1120l57 201h201l-60 -201h-198z" />
<glyph unicode="&#xa2;" horiz-adv-x="1019" d="M326 532q0 78 28 181q61 218 203 356q143 141 340 168l80 274h121l-78 -270q111 0 225 -57l-74 -121q-106 39 -206 39q-166 0 -279 -92q-117 -94 -164 -262q-23 -76 -22 -152q0 -63 22 -115q20 -47 64 -73q40 -25 86 -37q39 -10 100 -11q96 0 197 33l6 -112 q-141 -51 -246 -52l-84 -295h-121l84 295q-129 14 -207 90q-75 74 -75 213z" />
<glyph unicode="&#xa3;" d="M152 0l38 135h244l152 527h-176l39 135h176l41 141q37 123 86 203q49 78 118 141q59 53 138 88q82 37 143 47q78 14 141 15q111 0 224 -39l-82 -121q-76 23 -158 22q-84 0 -141 -16q-61 -16 -109 -49q-46 -31 -80 -68q-35 -39 -59 -84q-18 -33 -39 -84q-12 -33 -27 -82 l-33 -114h531l-39 -135h-530l-152 -527h590l-39 -135h-997z" />
<glyph unicode="&#xa4;" d="M301 401l213 166q-12 39 -12 82q0 137 112 266l-118 166l159 125l119 -166q98 47 189 47q92 0 157 -47l215 164l88 -125l-213 -164q10 -31 11 -79q0 -143 -111 -267l119 -166l-162 -124l-117 165q-94 -49 -186 -49q-94 0 -160 47l-215 -166zM653 684q0 -61 41 -106 q39 -41 109 -41q82 0 157.5 61t100.5 143q8 27 8 58q0 68 -41 106q-45 41 -106 41q-84 0 -158 -59q-80 -63 -102 -146q-9 -24 -9 -57z" />
<glyph unicode="&#xa5;" d="M358 250l37 125h275l57 198h-274l34 125h269l-205 723h184l150 -604l504 604h176l-635 -723h282l-34 -125h-289l-60 -198h289l-35 -125h-288l-72 -250h-160l72 250h-277z" />
<glyph unicode="&#xa6;" horiz-adv-x="882" d="M272 -307l220 768h163l-219 -768h-164zM600 838l219 764h164l-219 -764h-164z" />
<glyph unicode="&#xa7;" horiz-adv-x="1134" d="M172 45l82 125q154 -61 287 -61q274 0 327 178q4 16 4 28q0 39 -34 68q-31 25 -88 45l-113 39q-57 20 -115 47q-55 27 -88 68q-35 45 -35 100q0 31 13 70q31 106 143 192q-47 51 -47 115q0 27 10 67q16 55 51 101q39 51 101 98q65 49 166 80q94 29 227 29h51q18 0 47 -4 q12 -2 22.5 -4.5t14.5 -2.5q2 0 15.5 -2t21.5 -4q10 -4 16 -6t11 -2q6 -4 30 -10l12.5 -4t10.5 -3t6 -1l-84 -131q-111 39 -240 38q-111 0 -190 -38q-83 -40 -105 -111q-4 -16 -4 -29q0 -37 37 -67q35 -29 88 -52l117 -45q68 -27 115 -49q51 -25 90 -69q35 -41 35 -99 q0 -31 -9 -57q-33 -123 -145 -209q45 -49 45 -108q0 -33 -8 -60q-6 -25 -37 -84q-16 -35 -65 -86q-35 -37 -105 -78q-59 -35 -145 -55q-94 -23 -193 -22h-12q-184 -1 -334 65zM592 743q0 -33 16 -51q18 -23 54 -41q41 -23 69 -33q8 -2 37 -14t49 -18q76 -27 84 -31 q57 45 76 107q4 20 4 30q0 29 -18 51q-16 18 -54 39q-23 12 -67 29q-20 8 -86 29l-82 30q-61 -41 -78 -100q-4 -17 -4 -27z" />
<glyph unicode="&#xa8;" horiz-adv-x="1198" d="M637 1235l53 186h184l-53 -186h-184zM1085 1235l54 186h184l-51 -186h-187z" />
<glyph unicode="&#xa9;" horiz-adv-x="1759" d="M340 496q0 98 27 186q52 184 190 344q135 156 330 256q190 98 389 98q240 0 389 -145q147 -145 147 -365q0 -100 -26 -188q-41 -139 -131 -266t-215 -223q-123 -94 -269 -150q-154 -57 -294 -57q-242 0 -392 145q-145 144 -145 365zM477 532q0 -180 119 -296 q121 -117 317 -117q160 0 314 76q156 76 270 206q113 127 156 281q23 80 22 152q0 180 -118.5 296.5t-319.5 116.5q-160 0 -313 -76q-152 -74 -269 -206q-111 -125 -155 -283q-23 -80 -23 -150zM731 540.5q0 59.5 23 133.5q27 102 80 180q51 76 116 119q55 37 129 61 q61 20 129 21q106 0 189 -43l-56 -86q-68 27 -149 26q-49 0 -92 -12q-49 -14 -88 -39q-43 -28 -80 -80q-35 -49 -58 -127q-18 -63 -18 -112q0 -90 55 -127q59 -39 140 -39q68 0 143 24l8 -82q-109 -39 -217 -39q-43 0 -90 11q-35 8 -80 35q-41 27 -61 67q-23 49 -23 108.5z " />
<glyph unicode="&#xaa;" horiz-adv-x="757" d="M426 862q0 33 6 53q31 111 123 150q88 37 272 37l9 22q8 25 8 52q0 84 -111 84q-82 0 -174 -27l2 70q106 37 207 36q182 0 182 -125q0 -33 -14 -84l-109 -370h-69l-6 53q-88 -72 -168 -72q-70 0 -115 33q-43 31 -43 88zM528 897q0 -33 25 -53q27 -23 70 -23q74 0 147 80 l35 119h-29q-31 0 -71 -4q-49 -4 -72 -10q-39 -8 -66 -33q-29 -25 -37 -55q-2 -9 -2 -21z" />
<glyph unicode="&#xab;" horiz-adv-x="935" d="M254 623l358 364h187l-379 -364l170 -365h-187zM625 623l358 364h186l-378 -364l170 -365h-187z" />
<glyph unicode="&#xac;" horiz-adv-x="1398" d="M293 584l43 147h1149l-129 -448h-148l86 301h-1001z" />
<glyph unicode="&#xad;" horiz-adv-x="1073" d="M389 590l39 137h635l-39 -137h-635z" />
<glyph unicode="&#xae;" horiz-adv-x="1230" d="M369 903q0 76 20 139q39 137 146 261q109 123 247 190q141 68 283 68q178 0 287 -107q111 -106 110 -270q0 -72 -20 -142q-39 -137 -146 -260q-104 -121 -247 -188q-145 -70 -281 -70q-182 0 -290.5 108.5t-108.5 270.5zM483 934q0 -127 86 -213q84 -84 230 -84 q172 0 327 119q152 117 203 286q16 59 17 109q0 129 -86 215q-84 84 -228 84q-170 0 -327 -121q-156 -119 -205 -287q-17 -59 -17 -108zM649 776l158 545h221q29 0 39 -2q6 -2 19.5 -5t19.5 -5q23 -6 39 -25q14 -16 20 -47q2 -10 2 -23q0 -33 -16 -77q-14 -39 -53 -82 t-90 -58l49 -221h-101l-43 207h-110l-60 -207h-94zM823 1061h64h28q127 0 152 86q4 14 4 33q0 59 -98 59h-96z" />
<glyph unicode="&#xaf;" horiz-adv-x="1398" d="M713 1491l43 149h829l-43 -149h-829z" />
<glyph unicode="&#xb0;" horiz-adv-x="587" d="M420 1171q0 33 8 64q29 94 111 158q84 66 174 65q74 0 119 -45t45 -117q0 -31 -9 -61q-28 -95 -110 -160q-84 -66 -172 -65q-74 0 -119 45q-47 46 -47 116zM512 1196q0 -37 27 -68q25 -27 71 -26q55 0 102.5 39t63.5 94q6 18 6 39q0 37 -26 67q-25 27 -70 27 q-55 0 -102 -39q-51 -41 -66 -94q-6 -19 -6 -39z" />
<glyph unicode="&#xb1;" horiz-adv-x="1398" d="M262 150l39 137h961l-39 -137h-961zM469 872l41 138h405l119 411h146l-117 -411h405l-38 -138h-406l-119 -411h-145l117 411h-408z" />
<glyph unicode="&#xb2;" horiz-adv-x="798" d="M365 758l18 65q53 88 115 154q63 68 127 117q61 49 114 84q43 29 90 71q35 33 45 62q2 8 3 22q0 37 -31 62q-33 27 -84 26q-61 0 -203 -51l-10 90q141 63 258 64q84 0 141 -41q55 -41 56 -109q0 -16 -9 -49q-16 -53 -53 -96q-45 -53 -90 -84l-104 -76q-59 -39 -115 -92 q-68 -63 -101 -115h345l-31 -104h-481z" />
<glyph unicode="&#xb3;" horiz-adv-x="798" d="M352 795l62 96q111 -33 161 -33q72 0 134 37q63 37 77 92q4 10 5 35q0 31 -19 49q-20 20 -49 29q-18 6 -61 10q-37 4 -66 4l31 103q106 0 161 32q53 31 66 74q2 6 2 20q0 31 -27 52q-25 18 -75 18q-76 0 -185 -45l-12 94q141 59 238 60q90 0 137 -41q45 -39 45 -101 q0 -57 -37 -112.5t-98 -87.5q74 -33 73 -121q0 -51 -26 -105q-23 -45 -76 -98q-43 -43 -119 -76q-72 -31 -151 -30q-91 0 -191 45z" />
<glyph unicode="&#xb4;" horiz-adv-x="1120" d="M639 1276l594 309l35 -123l-596 -295z" />
<glyph unicode="&#xb5;" horiz-adv-x="1173" d="M68 -410l393 1373h164l-156 -541q-23 -86 -23 -141q0 -168 172 -168q86 0 263 73l221 777h164l-277 -963h-115l-10 68q-168 -94 -311 -95q-123 0 -188 80l-134 -463h-163z" />
<glyph unicode="&#xb6;" horiz-adv-x="1337" d="M428 973q0 63 27 160q23 78 43 112q23 39 57 86q31 41 66 66q55 37 71 47q41 23 78 33q68 18 74 20q39 8 71 10q53 4 64 4h55h547l-432 -1511h-170l389 1362h-240l-391 -1362h-170l197 686q-40 0 -80 6q-35 6 -86 25q-45 16 -84 49q-37 31 -61 82q-25 53 -25 125z" />
<glyph unicode="&#xb7;" horiz-adv-x="589" d="M371 629l59 209h209l-59 -209h-209z" />
<glyph unicode="&#xb8;" horiz-adv-x="1099" d="M258 -446l51 92q147 -47 195 -47q43 0 78 22q33 20 43 53q4 16 4 23q0 8 -4 20q-2 6 -15 19q-4 4 -11 7t-9 5q-4 4 -31 14q-23 10 -35 13q-14 4 -43 14l-49 16l121 218h127l-84 -158l12 -4q14 -2 21 -6l18 -9q10 -4 23 -10l18 -12q14 -12 19 -17q2 -4 6 -9t8 -11 q8 -16 10 -25q4 -16 4 -28q0 -14 -8 -47q-23 -74 -90 -127q-74 -57 -166 -58q-12 0 -45 4q-6 0 -49 11q-10 2 -24.5 7t-18.5 5l-43 14q-31 11 -33 11z" />
<glyph unicode="&#xb9;" horiz-adv-x="542" d="M449 760l184 643l-158 -41l2 96l207 53h92l-215 -751h-112z" />
<glyph unicode="&#xba;" horiz-adv-x="749" d="M367 973q0 80 26 174q51 176 172 274q120 98 246 99q39 0 76 -11q35 -10 71.5 -30.5t57.5 -65.5q20 -43 20 -110q0 -72 -24 -158q-53 -184 -170 -287q-123 -106 -252 -106q-98 0 -162 53q-61 51 -61 168zM485 1004q0 -86 39 -119t97 -33q35 0 69 12t74 43q41 33 74 90 q37 68 59 146q20 70 21 129q0 82 -41 112q-40 31 -99 31q-35 0 -71 -12q-31 -10 -72 -41q-39 -31 -72 -82q-31 -49 -53 -131q-25 -84 -25 -145z" />
<glyph unicode="&#xbb;" horiz-adv-x="935" d="M125 258l379 365l-170 364h184l152 -364l-361 -365h-184zM496 258l378 365l-169 364h186l149 -364l-360 -365h-184z" />
<glyph unicode="&#xbc;" horiz-adv-x="1798" d="M358 0l1229 1421h174l-1226 -1421h-177zM498 618l192 672l-151 -39l4 117l205 53h112l-229 -803h-133zM1081 195l25 90l524 551h158l-154 -531h109l-33 -110h-106l-56 -195h-133l55 195h-389zM1262 305h239l111 383z" />
<glyph unicode="&#xbd;" horiz-adv-x="1845" d="M358 0l1229 1421h174l-1226 -1421h-177zM494 608l196 682l-151 -39l4 117l205 53h112l-233 -813h-133zM1155 0l23 72q57 92 127 168q76 82 137 129l125 94q80 59 100 78q40 37 49 67q4 16 4 25q0 39 -34 67q-33 27 -93 27q-74 0 -221 -53l-12 98q168 70 282 70 q94 0 158 -45q59 -41 60 -117q0 -33 -9 -55q-16 -59 -57 -107q-45 -51 -100 -92l-117 -84q-61 -43 -125 -100q-59 -55 -111 -125h379l-32 -117h-533z" />
<glyph unicode="&#xbe;" horiz-adv-x="1949" d="M381 649l68 107q121 -35 178 -35q80 0 145.5 39t83.5 102q6 22 6 37q0 102 -215 102l35 113q121 0 178 37q59 37 72 82q2 8 2 20q0 35 -29 58q-27 20 -84 20q-80 0 -200 -51l-15 104q154 66 262 66q98 0 148 -43q51 -45 51 -113q0 -59 -41 -123q-39 -61 -108 -98 q84 -41 83 -127q0 -23 -10 -63q-37 -127 -149 -203q-119 -80 -254 -80q-101 0 -207 49zM518 0l1229 1421h174l-1227 -1421h-176zM1231 195l24 90l527 551h155l-151 -531h106l-30 -110h-109l-55 -195h-133l57 195h-391zM1411 305h242l108 383z" />
<glyph unicode="&#xbf;" horiz-adv-x="1046" d="M113 -53l88 123q156 -70 264 -70q131 0 221 66q94 70 119 159q8 31 8 64q0 41 -22 80q-20 35 -53 67.5t-64 69.5q-37 45 -56 96q-20 59 -20 139q0 111 39 246h170q-31 -106 -31 -184q0 -66 23 -123q18 -49 53 -90l63 -70q35 -37 54 -76q20 -41 20 -98q0 -53 -16 -104 q-33 -109 -123 -197q-90 -86 -201 -137q-109 -49 -198 -49q-100 0 -181 22q-75 21 -157 66zM688 1221l57 200h201l-57 -200h-201z" />
<glyph unicode="&#xc0;" horiz-adv-x="1382" d="M129 0l913 1421h193l98 -1421h-172l-26 414h-586l-262 -414h-158zM643 561h483l-43 694zM975 1806l104 123l414 -309l-92 -109z" />
<glyph unicode="&#xc1;" horiz-adv-x="1382" d="M129 0l913 1421h193l98 -1421h-172l-26 414h-586l-262 -414h-158zM643 561h483l-43 694zM895 1620l592 309l35 -123l-596 -295z" />
<glyph unicode="&#xc2;" horiz-adv-x="1382" d="M129 0l913 1421h193l98 -1421h-172l-26 414h-586l-262 -414h-158zM643 561h483l-43 694zM936 1628l367 295l174 -285l-119 -88l-119 197l-238 -197z" />
<glyph unicode="&#xc3;" horiz-adv-x="1382" d="M129 0l913 1421h193l98 -1421h-172l-26 414h-586l-262 -414h-158zM643 561h483l-43 694zM844 1589q0 2 7 14.5t11 22.5q8 18 19 39q2 2 4 9t6 14.5l8 15.5t11.5 21.5t11.5 17.5l24 35q10 14 29 32l31 25q20 16 36 23q25 8 39 12q20 6 47 6q43 0 80 -18q39 -20 60 -46 q39 -49 41 -53q16 -23 41 -45q23 -18 45 -18q16 0 28 6q20 10 27 16l23 23q12 12 22 31q4 8 9 19t7 13q4 10 19 39l16 35l105 -16q0 -2 -7.5 -14.5t-11.5 -22.5q-16 -37 -18 -41q-10 -20 -21 -37l-11 -21.5t-11 -17.5q-2 -2 -7 -12t-16 -23q-10 -14 -28 -33q-4 -4 -12.5 -11 l-18.5 -15q-20 -16 -37 -23q-12 -4 -41 -12q-14 -4 -45 -4q-43 0 -80 18q-39 20 -59 45q-6 8 -21.5 24.5t-21.5 27.5q-18 27 -39 45q-23 18 -45 18q-18 0 -27 -4q-4 -2 -11 -5t-11 -5q-12 -8 -23 -21q-4 -4 -10 -11t-8 -11q-2 -2 -7.5 -12.5t-9.5 -16.5q-14 -20 -16 -29 q-10 -27 -14 -34q-4 -10 -11 -20l-6 -9z" />
<glyph unicode="&#xc4;" horiz-adv-x="1382" d="M129 0l913 1421h193l98 -1421h-172l-26 414h-586l-262 -414h-158zM643 561h483l-43 694zM907 1712l54 184h184l-53 -184h-185zM1356 1712l53 184h184l-53 -184h-184z" />
<glyph unicode="&#xc5;" horiz-adv-x="1382" d="M129 0l891 1384q-96 49 -96 160q0 59 26 115q29 61 74 106q49 49 109 78q63 31 137 31q88 0 145.5 -53.5t57.5 -134.5q0 -31 -11 -68q-20 -76 -84 -141q-59 -63 -141 -95l96 -1382h-172l-26 414h-586l-262 -414h-158zM643 561h483l-43 694zM1036 1577q0 -49 31 -80 q33 -33 88 -33q63 0 121 47q59 49 76 107q6 20 6 41q0 45 -33 77.5t-84 32.5q-61 0 -123 -45q-55 -41 -76 -106q-6 -21 -6 -41z" />
<glyph unicode="&#xc6;" horiz-adv-x="1914" d="M129 0l963 1421h1071l-43 -149h-619l-133 -465h563l-43 -150h-563l-145 -507h618l-43 -150h-788l118 414h-514l-278 -414h-164zM672 561h456l203 711h-182z" />
<glyph unicode="&#xc7;" horiz-adv-x="1449" d="M442 481q0 129 43 260t127 256q80 119 197 220q113 96 266 155q156 59 322 60q195 0 364 -76l-94 -142q-170 66 -319 66q-117 0 -236 -47q-117 -45 -207 -127q-90 -80 -157 -182q-68 -100 -99 -213q-27 -100 -26 -174q0 -178 114 -289q117 -113 320 -113q154 0 338 62 l16 -127q-236 -90 -442 -90h-29l-61 -115l10 -2q2 0 7 -1t7 -3q14 -6 19 -9q12 -4 20 -8q8 -6 21 -14q8 -4 20 -16.5t16 -20.5q8 -16 11 -27q4 -20 4 -32q0 -23 -6 -47q-20 -76 -99 -134q-76 -57 -168 -57q-41 0 -73 8q-47 12 -150 45l60 105q158 -51 200 -51q45 0 74 20.5 t39 50.5q4 16 4 21q0 6 -4 14q-6 12 -8 14.5t-5.5 6.5t-5.5 6t-18 10q-4 2 -23 8q-2 0 -12 4t-16 6l-31 11q-14 4 -39 12l-41 14l113 199q-180 43 -273 172q-90 127 -90 311z" />
<glyph unicode="&#xc8;" horiz-adv-x="1282" d="M291 0l405 1421h834l-43 -149h-664l-133 -465h608l-43 -150h-608l-143 -507h661l-43 -150h-831zM926 1806l106 123l416 -309l-94 -109z" />
<glyph unicode="&#xc9;" horiz-adv-x="1282" d="M291 0l405 1421h834l-43 -149h-664l-133 -465h608l-43 -150h-608l-143 -507h661l-43 -150h-831zM911 1620l594 309l35 -123l-598 -295z" />
<glyph unicode="&#xca;" horiz-adv-x="1282" d="M291 0l405 1421h834l-43 -149h-664l-133 -465h608l-43 -150h-608l-143 -507h661l-43 -150h-831zM907 1636l367 295l174 -284l-119 -88l-119 194l-237 -194z" />
<glyph unicode="&#xcb;" horiz-adv-x="1282" d="M291 0l405 1421h834l-43 -149h-664l-133 -465h608l-43 -150h-608l-143 -507h661l-43 -150h-831zM881 1712l53 186h184l-51 -186h-186zM1329 1712l53 186h185l-54 -186h-184z" />
<glyph unicode="&#xcc;" horiz-adv-x="729" d="M319 0l408 1421h170l-408 -1421h-170zM653 1804l107 123l416 -309l-95 -107z" />
<glyph unicode="&#xcd;" horiz-adv-x="729" d="M319 0l408 1421h170l-408 -1421h-170zM516 1620l592 309l35 -123l-596 -295z" />
<glyph unicode="&#xce;" horiz-adv-x="729" d="M319 0l408 1421h170l-408 -1421h-170zM578 1628l366 295l174 -285l-121 -88l-116 197l-238 -197z" />
<glyph unicode="&#xcf;" horiz-adv-x="669" d="M291 0l405 1421h170l-405 -1421h-170zM557 1638l53 187h187l-54 -187h-186zM946 1638l53 187h187l-53 -187h-187z" />
<glyph unicode="&#xd0;" horiz-adv-x="1603" d="M305 657l43 152h219l174 612h437q55 0 79 -2q33 -2 97 -12q61 -9 110 -24.5t105 -49.5q49 -31 90 -78q37 -43 61.5 -110.5t24.5 -153.5q0 -98 -39 -237q-41 -141 -109 -269q-61 -115 -137 -196q-66 -72 -160 -133q-88 -57 -163 -86q-92 -35 -164 -47q-88 -14 -146 -19 q-74 -4 -120 -4h-371l188 657h-219zM549 150h207q57 0 82 2q10 0 90 10q53 6 96 18q61 18 98 33q55 23 97 49q35 23 90 74q57 53 86 96q41 59 71 129q37 80 60 160q31 104 30 194q0 59 -12 109q-14 55 -41 96q-31 47 -76 80t-118 51q-82 20 -164 21h-277l-131 -463h256 l-43 -152h-256z" />
<glyph unicode="&#xd1;" horiz-adv-x="1658" d="M291 0l405 1421h215l435 -1190l340 1190h169l-405 -1421h-215l-432 1192l-342 -1192h-170zM987 1589q6 6 23 45q16 41 24 52l27 45q27 45 31 49l14 14t18 21q20 25 43 34q16 8 47 19q25 8 58 8q43 0 80 -18.5t57 -45.5q4 -6 20.5 -24.5t22.5 -28.5q16 -23 41 -45 q22 -18 43 -18q16 0 29 6q4 2 11 5t11 5l21 21q10 10 18 22q6 9 19 31q2 6 6 12t7 10t3 7q4 10 14 32q4 10 11 21l6 10l102 -16l-18 -37q-8 -16 -12.5 -26.5t-6.5 -14.5l-18 -37q-18 -35 -23 -39l-24 -35q-10 -14 -29 -33q-4 -4 -12.5 -11l-18.5 -15q-20 -16 -37 -23 q-12 -4 -41 -12q-14 -4 -45 -4q-43 0 -79 18q-39 20 -60 45q-6 8 -21.5 24.5t-21.5 27.5q-16 23 -41 45q-22 18 -43 18q-20 0 -29 -4q-16 -8 -26 -18l-23 -23q-6 -6 -20 -31q-6 -12 -11.5 -20t-7.5 -12l-18 -37q-12 -27 -16 -35z" />
<glyph unicode="&#xd2;" horiz-adv-x="1685" d="M381 459q0 113 37 248q96 332 339.5 530.5t538.5 198.5q231 0 365 -125q135 -127 135 -344q0 -115 -37 -240q-96 -332 -344 -536.5t-543 -204.5q-109 0 -192 28q-90 31 -156 88q-68 59 -106 148q-37 86 -37 209zM565 514q0 -178 99 -278q98 -102 264 -103q68 0 145 23 q82 25 152 65q63 37 141 113q70 66 123 162q59 104 90 213q33 121 33 209q0 92 -31 165q-31 72 -84 117q-55 45 -116.5 65.5t-139.5 20.5q-74 0 -143 -20q-76 -23 -150 -64t-141 -108q-70 -70 -121 -158q-59 -102 -88 -209q-33 -113 -33 -213zM1186 1808l104 123l416 -309 l-94 -109z" />
<glyph unicode="&#xd3;" horiz-adv-x="1685" d="M381 459q0 113 37 248q96 332 339.5 530.5t538.5 198.5q231 0 365 -125q135 -127 135 -344q0 -115 -37 -240q-96 -332 -344 -536.5t-543 -204.5q-109 0 -192 28q-90 31 -156 88q-68 59 -106 148q-37 86 -37 209zM565 514q0 -178 99 -278q98 -102 264 -103q68 0 145 23 q82 25 152 65q63 37 141 113q70 66 123 162q59 104 90 213q33 121 33 209q0 92 -31 165q-31 72 -84 117q-55 45 -116.5 65.5t-139.5 20.5q-74 0 -143 -20q-76 -23 -150 -64t-141 -108q-70 -70 -121 -158q-59 -102 -88 -209q-33 -113 -33 -213zM1067 1620l594 309l35 -123 l-598 -295z" />
<glyph unicode="&#xd4;" horiz-adv-x="1685" d="M381 459q0 113 37 248q96 332 339.5 530.5t538.5 198.5q231 0 365 -125q135 -127 135 -344q0 -115 -37 -240q-96 -332 -344 -536.5t-543 -204.5q-109 0 -192 28q-90 31 -156 88q-68 59 -106 148q-37 86 -37 209zM565 514q0 -178 99 -278q98 -102 264 -103q68 0 145 23 q82 25 152 65q63 37 141 113q70 66 123 162q59 104 90 213q33 121 33 209q0 92 -31 165q-31 72 -84 117q-55 45 -116.5 65.5t-139.5 20.5q-74 0 -143 -20q-76 -23 -150 -64t-141 -108q-70 -70 -121 -158q-59 -102 -88 -209q-33 -113 -33 -213zM1098 1628l366 295l174 -285 l-118 -88l-119 197l-238 -197z" />
<glyph unicode="&#xd5;" horiz-adv-x="1685" d="M381 459q0 113 37 248q96 332 339.5 530.5t538.5 198.5q231 0 365 -125q135 -127 135 -344q0 -115 -37 -240q-96 -332 -344 -536.5t-543 -204.5q-109 0 -192 28q-90 31 -156 88q-68 59 -106 148q-37 86 -37 209zM565 514q0 -178 99 -278q98 -102 264 -103q68 0 145 23 q82 25 152 65q63 37 141 113q70 66 123 162q59 104 90 213q33 121 33 209q0 182 -107 276q-104 92 -264 92q-74 0 -143 -20q-76 -23 -150 -64t-141 -108q-70 -70 -121 -158q-59 -102 -88 -209q-33 -113 -33 -213zM1006 1589l16 37q4 10 12 25l8 14q2 2 4.5 9t6.5 14.5 l8 15.5l11 21.5t11 17.5q8 12 25 35q10 14 29 32l30 25q23 18 35 22.5t41 12.5q23 6 45 6q43 0 80 -18q39 -20 59 -46q4 -6 20.5 -24.5t22.5 -28.5q16 -23 41 -45q22 -18 43 -18q18 0 31 6q20 10 27 16l22 23q6 6 21 31q4 6 7 13t6 12t5 7q4 10 19 39l16 35l102 -16 q0 -2 -4 -11.5t-12 -25.5l-20 -41l-19 -37q-18 -35 -22 -39q-8 -12 -25 -35q-10 -14 -29 -33q-4 -4 -12 -11t-18 -15q-20 -16 -37 -23q-25 -8 -39 -12t-47 -4q-43 0 -80 18q-39 20 -60 45q-6 8 -21 24.5t-22 27.5q-18 27 -38 45q-23 18 -45 18q-20 0 -29 -4q-16 -8 -27 -18 l-22 -23q-6 -6 -21 -31q-6 -12 -11 -20t-7 -12l-19 -37q-12 -27 -16 -35z" />
<glyph unicode="&#xd6;" horiz-adv-x="1685" d="M381 459q0 113 37 248q96 332 339.5 530.5t538.5 198.5q231 0 365 -125q135 -127 135 -344q0 -115 -37 -240q-96 -332 -344 -536.5t-543 -204.5q-109 0 -192 28q-90 31 -156 88q-68 59 -106 148q-37 86 -37 209zM565 514q0 -178 99 -278q98 -102 264 -103q68 0 145 23 q82 25 152 65q63 37 141 113q70 66 123 162q59 104 90 213q33 121 33 209q0 92 -31 165q-31 72 -84 117q-55 45 -116.5 65.5t-139.5 20.5q-74 0 -143 -20q-76 -23 -150 -64t-141 -108q-70 -70 -121 -158q-59 -102 -88 -209q-33 -113 -33 -213zM1067 1712l53 186h185 l-54 -186h-184zM1516 1712l53 186h184l-51 -186h-186z" />
<glyph unicode="&#xd7;" d="M268 299l457 354l-248 346l135 107l256 -363l457 357l76 -107l-457 -354l248 -346l-135 -107l-258 363l-455 -354z" />
<glyph unicode="&#xd8;" horiz-adv-x="1755" d="M174 70l244 182q-37 88 -37 204.5t37 250.5q96 332 339.5 530.5t538.5 198.5q137 0 250 -50q115 -49 180 -153l234 176l45 -66l-244 -182q33 -86 33 -194q0 -123 -35 -240q-96 -332 -344 -536.5t-543 -204.5q-53 0 -114 10q-63 10 -94 22.5t-74 36.5q-4 2 -55 39 q-18 12 -41 39q-6 6 -12.5 13.5t-10.5 10.5t-4 5q-2 2 -5 8t-7 12l-240 -178zM565 512q0 -74 19 -135l983 737q-49 88 -131 129q-86 43 -193 43q-92 0 -184 -33q-86 -31 -182 -100q-90 -66 -164 -176q-76 -113 -115 -250q-33 -106 -33 -215zM614 301q45 -82 129 -125 t185 -43q68 0 145 23q82 25 152 65q63 37 141 113q70 66 123 162q59 104 90 213q33 113 33 211q0 63 -15 118z" />
<glyph unicode="&#xd9;" horiz-adv-x="1579" d="M391 281q0 77 37 202l268 938h170l-264 -921q-25 -94 -24 -152q0 -221 288 -221q113 0 191 29q84 31 137 84q61 61 90 116q43 82 59 144l265 921h170l-271 -938q-12 -47 -16 -59q-16 -43 -27 -68q-27 -61 -34 -75l-52 -72q-25 -35 -65 -72q-31 -27 -88 -61 q-61 -37 -109 -51q-72 -23 -135 -33q-76 -12 -164 -12q-426 0 -426 301zM1069 1804l109 123l413 -309l-94 -107z" />
<glyph unicode="&#xda;" horiz-adv-x="1579" d="M391 281q0 77 37 202l268 938h170l-264 -921q-25 -94 -24 -152q0 -221 288 -221q113 0 191 29q84 31 137 84q61 61 90 116q43 82 59 144l265 921h170l-271 -938q-12 -47 -16 -59q-16 -43 -27 -68q-27 -61 -34 -75l-52 -72q-25 -35 -65 -72q-31 -27 -88 -61 q-61 -37 -109 -51q-72 -23 -135 -33q-76 -12 -164 -12q-426 0 -426 301zM1024 1620l594 309l35 -123l-598 -295z" />
<glyph unicode="&#xdb;" horiz-adv-x="1579" d="M391 281q0 77 37 202l268 938h170l-264 -921q-25 -94 -24 -152q0 -221 288 -221q113 0 191 29q84 31 137 84q61 61 90 116q43 82 59 144l265 921h170l-271 -938q-12 -47 -16 -59q-16 -43 -27 -68q-27 -61 -34 -75l-52 -72q-25 -35 -65 -72q-31 -27 -88 -61 q-61 -37 -109 -51q-72 -23 -135 -33q-76 -12 -164 -12q-426 0 -426 301zM1028 1628l369 295l174 -285l-121 -88l-119 197l-235 -197z" />
<glyph unicode="&#xdc;" horiz-adv-x="1579" d="M391 281q0 77 37 202l268 938h170l-264 -921q-25 -94 -24 -152q0 -221 288 -221q113 0 191 29q84 31 137 84q61 61 90 116q43 82 59 144l265 921h170l-271 -938q-12 -47 -16 -59q-16 -43 -27 -68q-27 -61 -34 -75l-52 -72q-25 -35 -65 -72q-31 -27 -88 -61 q-61 -37 -109 -51q-72 -23 -135 -33q-76 -12 -164 -12q-426 0 -426 301zM1004 1712l53 186h184l-51 -186h-186zM1452 1712l53 186h187l-54 -186h-186z" />
<glyph unicode="&#xdd;" horiz-adv-x="1261" d="M508 1421h201l192 -587l539 587h190l-698 -747l-193 -674h-170l193 674zM831 1620l592 309l35 -123l-596 -295z" />
<glyph unicode="&#xde;" horiz-adv-x="1325" d="M291 0l405 1421h170l-78 -274q135 12 275 12q104 0 166 -10q76 -12 131 -39q61 -29 90 -76q33 -53 33 -121q0 -47 -21 -122q-18 -57 -35 -97q-18 -43 -57 -102q-35 -51 -78 -96q-47 -49 -104 -82q-61 -37 -133 -56q-127 -33 -338 -32q-82 0 -162 6l-94 -332h-170z M598 483q119 -10 193 -10h28q14 0 36 1t30 1q25 0 71 6q35 4 78 17q34 9 74 30q37 20 70 50q25 20 57 73q31 47 45 101q12 47 12 82q0 47 -20.5 79.5t-50.5 51.5q-33 20 -76 28q-46 9 -86 13q-27 2 -88 2q-106 0 -226 -11z" />
<glyph unicode="&#xdf;" horiz-adv-x="1249" d="M195 0l292 1024q23 78 70 156q41 68 94 114q55 49 113 78q70 35 119 45q59 12 112 13q133 0 196.5 -70t63.5 -174q0 -43 -12 -84q-18 -66 -59 -119q-33 -45 -88 -84q-37 -27 -95 -61q-39 -23 -81 -60q-35 -29 -46 -65q-4 -16 -4 -29q0 -29 27 -55q20 -20 64 -37 q61 -25 83 -35l82 -43q39 -20 64 -63q27 -47 27 -97q0 -39 -17 -94q-10 -37 -26 -67q-23 -43 -52 -76q-35 -41 -78 -72q-41 -29 -110 -51q-63 -20 -146 -21q-141 0 -288 47l63 117q147 -31 230 -31q190 0 233 152q8 33 8 45q0 41 -24 70q-23 27 -64 43l-80 35q-29 12 -82 38 q-37 18 -61.5 55.5t-24.5 86.5q0 31 13 74q18 59 57 108q37 47 88 80l94 59q37 23 82 64q37 33 49 76q8 33 9 47q0 66 -45.5 104.5t-108.5 38.5q-27 0 -41 -2q-16 -2 -59 -20q-37 -15 -68 -43q-39 -35 -66 -78q-33 -53 -51 -117l-293 -1022h-163z" />
<glyph unicode="&#xe0;" horiz-adv-x="1056" d="M184 195q0 35 9 61q22 71 67 123q47 53 109 84q68 35 145 51q96 20 168 27q83 6 184 6l23 76q16 59 16 94q0 129 -190 129q-95 0 -271 -43l2 119q170 59 334 59q158 0 230 -53q70 -51 69 -154q0 -66 -20 -135l-185 -639h-114l-12 90q-150 -111 -306 -110 q-119 0 -188.5 61.5t-69.5 153.5zM356 233q0 -51 47.5 -87.5t120.5 -36.5q123 0 244 98l63 217h-59q-70 0 -98 -2q-61 -4 -99 -10q-45 -8 -96 -27q-39 -14 -73 -47q-33 -29 -46 -74q-4 -17 -4 -31zM758 1425l121 113l260 -338l-111 -104z" />
<glyph unicode="&#xe1;" horiz-adv-x="1056" d="M184 195q0 35 9 61q22 71 67 123q47 53 109 84q68 35 145 51q96 20 168 27q83 6 184 6l23 76q16 59 16 94q0 129 -190 129q-95 0 -271 -43l2 119q170 59 334 59q158 0 230 -53q70 -51 69 -154q0 -66 -20 -135l-185 -639h-114l-12 90q-150 -111 -306 -110 q-119 0 -188.5 61.5t-69.5 153.5zM356 233q0 -51 47.5 -87.5t120.5 -36.5q123 0 244 98l63 217h-59q-70 0 -98 -2q-61 -4 -99 -10q-45 -8 -96 -27q-39 -14 -73 -47q-33 -29 -46 -74q-4 -17 -4 -31zM655 1210l453 338l57 -112l-463 -330z" />
<glyph unicode="&#xe2;" horiz-adv-x="1056" d="M184 195q0 35 9 61q22 71 67 123q47 53 109 84q68 35 145 51q96 20 168 27q83 6 184 6l23 76q16 59 16 94q0 129 -190 129q-95 0 -271 -43l2 119q170 59 334 59q158 0 230 -53q70 -51 69 -154q0 -66 -20 -135l-185 -639h-114l-12 90q-150 -111 -306 -110 q-119 0 -188.5 61.5t-69.5 153.5zM356 233q0 -51 47.5 -87.5t120.5 -36.5q123 0 244 98l63 217h-59q-70 0 -98 -2q-61 -4 -99 -10q-45 -8 -96 -27q-39 -14 -73 -47q-33 -29 -46 -74q-4 -17 -4 -31zM598 1180l365 311l163 -301l-118 -92l-111 205l-238 -205z" />
<glyph unicode="&#xe3;" horiz-adv-x="1056" d="M184 195q0 35 9 61q22 71 67 123q47 53 109 84q68 35 145 51q96 20 168 27q83 6 184 6l23 76q16 59 16 94q0 129 -190 129q-95 0 -271 -43l2 119q170 59 334 59q158 0 230 -53q70 -51 69 -154q0 -66 -20 -135l-185 -639h-114l-12 90q-150 -111 -306 -110 q-119 0 -188.5 61.5t-69.5 153.5zM356 233q0 -51 47.5 -87.5t120.5 -36.5q123 0 244 98l63 217h-59q-70 0 -98 -2q-61 -4 -99 -10q-45 -8 -96 -27q-39 -14 -73 -47q-33 -29 -46 -74q-4 -17 -4 -31zM508 1147l43 88q12 29 18 41t31 49q20 31 49 59q20 20 62 39q39 18 80 19 q45 0 77 -19q37 -20 58 -47q29 -37 41 -55q20 -33 39 -47q25 -20 43 -21q8 0 20 4q4 0 10 4.5t8 4.5q9 3 19 12l16 16q6 6 13 19q2 4 7 10t5 8t4 8.5t6 10.5l8 16q4 8 6 14l7 11l24 53l103 -17l-41 -88q-47 -94 -88 -135q-68 -72 -154 -71q-43 0 -78 18q-37 20 -57 47 q-29 37 -41 55q-18 29 -41 47q-25 20 -41 21q-8 0 -25 -4q-4 0 -20 -12q-2 -2 -8 -7.5t-11 -7.5q-4 -4 -16 -18l-14 -21l-11 -20q-4 -6 -6 -10t-4 -9q0 -2 -3 -6t-5 -10l-4 -12l-25 -51z" />
<glyph unicode="&#xe4;" horiz-adv-x="1060" d="M184 195q0 35 9 61q22 71 67 123q45 51 111 84q70 35 145 51q100 23 168 27q82 6 186 6l23 76q16 59 16 92q0 131 -192 131q-98 0 -273 -43l2 119q172 59 336 59t232 -53q72 -55 71 -154q0 -57 -22 -135l-184 -639h-115l-12 90q-151 -111 -308 -110q-115 0 -188 63 q-72 62 -72 152zM356 233q0 -51 47.5 -87.5t122.5 -36.5q126 0 246 98l64 217h-60q-70 0 -98 -2q-66 -4 -100 -10q-45 -8 -97 -27q-41 -16 -75 -47q-33 -29 -46 -74q-4 -17 -4 -31zM610 1235l54 186h184l-53 -186h-185zM1053 1235l53 186h184l-53 -186h-184z" />
<glyph unicode="&#xe5;" horiz-adv-x="1060" d="M184 195q0 35 9 61q22 71 67 123q47 53 109 84q70 35 147 51q100 23 168 27q82 6 186 6l23 76q14 51 14 94q0 129 -190 129q-98 0 -273 -43l2 119q172 59 336 59t232 -53q70 -55 69 -154q0 -66 -20 -135l-184 -639h-117l-12 90q-152 -111 -306 -110q-117 0 -188.5 61.5 t-71.5 153.5zM356 233q0 -51 47.5 -87.5t120.5 -36.5q127 0 248 98l64 217h-62q-68 0 -96 -2q-66 -4 -100 -10q-45 -8 -97 -27q-41 -16 -75 -47q-33 -29 -46 -74q-4 -17 -4 -31zM700 1272q0 31 11 67q29 98 110 166q83 68 172 68q74 0 117 -45t43 -119q0 -39 -8 -70 q-27 -94 -113 -163q-83 -68 -172 -68q-72 0 -115 45q-45 49 -45 119zM795 1296q0 -43 24 -71q25 -27 68 -27q51 0 100 43q51 45 66 98q6 22 6 43q0 43 -24.5 72t-65.5 29q-53 0 -103 -43q-47 -41 -65 -101q-6 -21 -6 -43z" />
<glyph unicode="&#xe6;" horiz-adv-x="1648" d="M184 197q0 27 11 63q31 111 143.5 186.5t290.5 94.5q80 8 237 8l17 49q14 43 14 92q0 156 -184 156q-92 0 -258 -43l-9 117q180 61 349 61q117 0 180 -45t80 -127q90 80 190 125q106 47 207 47q240 0 240 -254q0 -113 -54 -303h-643q-12 -43 -12 -82q0 -100 78 -166 q76 -63 203 -63q68 0 211 34l-5 -110q-172 -57 -307 -57q-106 0 -192 36q-88 37 -127 113q-156 -150 -385 -149q-115 0 -195 61.5t-80 155.5zM356 238q0 -53 49.5 -90t122.5 -37q126 0 240 92l63 221q-174 0 -274 -20.5t-143 -53.5q-37 -29 -54 -82q-4 -16 -4 -30zM1040 547 h476q20 70 20 131q0 162 -154 162q-117 0 -213 -86q-94 -86 -129 -207z" />
<glyph unicode="&#xe7;" horiz-adv-x="987" d="M213 -446l53 90q145 -47 187 -47q43 0 77 22q33 20 43 55q2 8 2 23q0 8 -4 20q-2 4 -14 17q-6 6 -18 14q-16 10 -29 14q-20 8 -34.5 12.5t-43.5 14.5q-16 6 -27.5 9t-17.5 5l96 177q-115 18 -184 88q-72 72 -72 202q0 78 29 183q33 111 86 204q47 84 117 150 q57 53 135 96q74 41 143 55q76 16 140 17q137 0 256 -60l-72 -118q-98 37 -203 37q-47 0 -98 -11q-49 -10 -98 -32q-55 -27 -96.5 -62t-80.5 -100q-37 -63 -59 -144q-25 -84 -25 -151q0 -59 22.5 -108.5t59.5 -71.5q33 -20 84 -35q35 -10 101 -10q88 0 192 30l8 -110 q-141 -49 -264 -56l-59 -108q6 -2 14 -4q4 0 19 -8q2 0 8 -2.5t10 -4.5q2 -2 11 -5t11 -5q10 -10 19 -14q10 -6 18 -17l15 -18q8 -16 10 -24.5t2 -31t-6 -46.5q-23 -74 -90 -127q-70 -55 -162 -56q-16 0 -45 4q-18 2 -49 11l-41 10l-43 14q-4 2 -10.5 4t-9.5 3l-6 2t-5 3z " />
<glyph unicode="&#xe8;" horiz-adv-x="1087" d="M229 274q0 88 27 177q41 141 109 239q70 102 157 166q92 66 174 94q90 31 181 31q266 0 266 -236q0 -90 -49 -264l-23 -75h-665q-10 -41 -11 -68q0 -96 74 -162q76 -66 215 -65q94 0 229 34l-2 -110q-174 -55 -325 -55q-78 0 -144 16q-63 16 -100 41q-43 31 -66 65 q-31 49 -36 80q-11 47 -11 92zM444 528h504q25 86 25 150q0 162 -172 162q-125 0 -223 -92q-95 -91 -134 -220zM774 1436l123 112l258 -338l-108 -104z" />
<glyph unicode="&#xe9;" horiz-adv-x="1087" d="M229 274q0 88 27 177q41 141 109 239q70 102 157 166q92 66 174 94q90 31 181 31q266 0 266 -236q0 -90 -49 -264l-23 -75h-665q-10 -41 -11 -68q0 -96 74 -162q76 -66 215 -65q94 0 229 34l-2 -110q-174 -55 -325 -55q-78 0 -144 16q-63 16 -100 41q-43 31 -66 65 q-31 49 -36 80q-11 47 -11 92zM444 528h504q25 86 25 150q0 162 -172 162q-125 0 -223 -92q-95 -91 -134 -220zM754 1210l450 338l60 -112l-463 -330z" />
<glyph unicode="&#xea;" horiz-adv-x="1087" d="M229 274q0 88 27 177q41 141 109 239q70 102 157 166q92 66 174 94q90 31 181 31q266 0 266 -236q0 -90 -49 -264l-23 -75h-665q-10 -41 -11 -68q0 -96 74 -162q76 -66 215 -65q94 0 229 34l-2 -110q-174 -55 -325 -55q-78 0 -144 16q-63 16 -100 41q-43 31 -66 65 q-31 49 -36 80q-11 47 -11 92zM444 528h504q25 86 25 150q0 162 -172 162q-125 0 -223 -92q-95 -91 -134 -220zM682 1180l365 311l165 -301l-118 -92l-113 205l-236 -205z" />
<glyph unicode="&#xeb;" horiz-adv-x="1093" d="M229 276q0 86 27 175q31 109 84 198q51 86 117 150q63 61 135 102q74 43 145 62q70 18 144 18q268 0 268 -236q0 -90 -49 -264l-23 -75h-669q-10 -41 -11 -68q0 -96 74 -162q76 -66 217 -65q98 0 234 34l-4 -110q-176 -55 -328 -55q-98 0 -172 22q-72 23 -113 66 q-39 41 -57 94q-19 51 -19 114zM442 528h512q25 83 25 148q0 164 -174 164q-129 0 -227.5 -92.5t-135.5 -219.5zM645 1235l53 186h187l-54 -186h-186zM1087 1235l56 186h184l-53 -186h-187z" />
<glyph unicode="&#xec;" horiz-adv-x="514" d="M176 0l283 987h164l-283 -987h-164zM414 1440l121 108l266 -323l-109 -101z" />
<glyph unicode="&#xed;" horiz-adv-x="514" d="M176 0l283 987h164l-283 -987h-164zM461 1225l450 323l60 -108l-461 -316z" />
<glyph unicode="&#xee;" horiz-adv-x="520" d="M176 0l283 987h164l-283 -987h-164zM358 1194l332 297l141 -287l-116 -88l-90 187l-203 -187z" />
<glyph unicode="&#xef;" horiz-adv-x="522" d="M180 0l283 987h164l-283 -987h-164zM340 1237l51 184h187l-54 -184h-184zM709 1237l53 184h184l-53 -184h-184z" />
<glyph unicode="&#xf0;" horiz-adv-x="1234" d="M227 287q0 104 49 221q51 123 127 213q80 96 193 160q109 61 229 61q141 0 299 -108q8 49 9 98q0 126 -68 221l-205 -102l-26 94l161 82q-68 61 -170 102l97 129q150 -47 245 -145l211 104l27 -94l-176 -86q72 -113 71 -256q0 -117 -51 -295q-20 -70 -49 -151 q-23 -66 -59 -146q-35 -78 -74 -133q-45 -66 -90 -111q-49 -49 -111 -88q-55 -35 -133 -57q-70 -20 -160 -20q-176 0 -260 83q-86 87 -86 224zM406 358q0 -109 61 -176t160 -67q33 0 65.5 6t77.5 29q39 20 84 57q37 31 82 92q41 55 74 137q37 88 65 193l19 61 q-152 117 -283 117q-127 0 -236 -90q-113 -94 -151 -236q-18 -62 -18 -123z" />
<glyph unicode="&#xf1;" horiz-adv-x="1163" d="M176 0l277 963h114l13 -84q219 104 370 104q231 0 232 -205q0 -80 -37 -203l-164 -575h-166l166 584q20 76 20 108q0 143 -165 144q-115 0 -279 -74l-217 -762h-164zM594 1151l41 88l20 41q10 20 31 51t47 58q20 20 61.5 38.5t79.5 18.5q43 0 78 -19q37 -20 58 -47 q29 -37 41 -55q20 -33 39 -47q25 -20 43 -21q8 0 20 4.5t18 8.5l19 12q4 4 8 9t6 7q10 10 15 19q2 4 7 10t5 8t4 8.5t6 10.5l8 16q4 8 6 14q4 10 5 11l26 55l103 -18l-41 -89q-47 -94 -88 -135q-68 -72 -154 -71q-45 0 -78 18q-37 20 -57 47q-29 37 -41 55q-18 29 -41 48 q-20 18 -41 18q-16 0 -24.5 -2t-20.5 -10l-17 -17l-7 -7l-11 -11q-4 -6 -7 -10t-5 -9q-4 -6 -13 -22q-2 -4 -6 -10t-4 -8l-8 -17l-4 -10l-25 -53z" />
<glyph unicode="&#xf2;" horiz-adv-x="1193" d="M236 299q0 76 26 172q68 233 238 373q168 137 381 137q162 0 256 -82t94 -233q0 -76 -25 -164q-68 -238 -243 -381q-176 -141 -385 -141q-160 0 -250 83q-92 86 -92 236zM410 367q0 -109 59 -179q59 -68 168 -67q131 0 242 96q115 100 157 252q20 63 21 131 q0 113 -66 178q-63 63 -164 64q-77 0 -153 -37t-146 -119q-68 -80 -98 -188q-20 -68 -20 -131zM842 1436l123 112l258 -338l-109 -104z" />
<glyph unicode="&#xf3;" horiz-adv-x="1193" d="M236 299q0 76 26 172q68 233 238 373q168 137 381 137q162 0 256 -82t94 -233q0 -76 -25 -164q-68 -238 -243 -381q-176 -141 -385 -141q-160 0 -250 83q-92 86 -92 236zM410 367q0 -109 59 -179q59 -68 168 -67q131 0 242 96q115 100 157 252q20 63 21 131 q0 113 -66 178q-63 63 -164 64q-77 0 -153 -37t-146 -119q-68 -80 -98 -188q-20 -68 -20 -131zM684 1210l453 338l57 -112l-463 -330z" />
<glyph unicode="&#xf4;" horiz-adv-x="1193" d="M236 299q0 76 26 172q68 233 238 373q168 137 381 137q162 0 256 -82t94 -233q0 -76 -25 -164q-68 -238 -243 -381q-176 -141 -385 -141q-160 0 -250 83q-92 86 -92 236zM410 367q0 -109 59 -179q59 -68 168 -67q131 0 242 96q115 100 157 252q20 63 21 131 q0 113 -66 178q-63 63 -164 64q-77 0 -153 -37t-146 -119q-68 -80 -98 -188q-20 -68 -20 -131zM676 1180l364 311l162 -301l-115 -92l-112 205l-238 -205z" />
<glyph unicode="&#xf5;" horiz-adv-x="1196" d="M236 301q0 74 26 170q68 238 238 373q170 137 383 137q162 0 256 -82q96 -84 96 -235q0 -66 -27 -162q-68 -242 -241 -381q-175 -141 -387 -141q-162 0 -252 83q-92 86 -92 238zM410 367q0 -113 59 -179q61 -68 170 -67q127 0 241.5 96t157.5 252q20 63 21 129 q0 115 -66 180q-63 63 -164 64q-80 0 -155.5 -37t-145.5 -119q-68 -80 -98 -188q-20 -68 -20 -131zM573 1151l23 47q18 41 25 53q2 4 11 19.5t15 27.5q14 27 31 48l35 38q18 23 41 33q29 14 47 21q25 8 55 8q45 0 78 -19q37 -20 57 -47q29 -37 41 -55q20 -33 39 -47 q25 -20 43 -21q16 0 29 7q16 8 26 18l23 23q6 6 20 34q12 23 18.5 33t18.5 39q8 20 17 37l102 -16q0 -2 -3 -8.5t-7 -16.5t-10 -23q-18 -41 -25 -53q-2 -4 -11 -19.5l-16 -27.5q-14 -27 -30 -47l-35 -39q-23 -25 -41 -35q-16 -8 -47 -18q-25 -8 -56 -8q-43 0 -77 18 q-37 20 -58 47q-29 37 -41 55q-20 33 -39 48q-22 18 -43 18q-18 0 -26 -4q-16 -8 -23 -12l-20 -21q-6 -6 -19 -24q-8 -12 -16 -29q-10 -20 -16 -31l-17 -35q-10 -23 -14 -30z" />
<glyph unicode="&#xf6;" horiz-adv-x="1202" d="M236 301q0 74 26 170q68 238 238 373q170 137 387 137q162 0 256 -82q96 -84 96 -235q0 -74 -25 -162q-68 -238 -243 -381q-176 -141 -389 -141q-164 0 -254 83q-92 86 -92 238zM410 367q0 -111 61 -178.5t168 -67.5q131 0 246 96q117 98 159 252q20 68 21 129 q0 115 -68 180q-66 63 -166 64q-76 0 -155 -37q-74 -35 -146 -119q-70 -84 -100 -188q-20 -68 -20 -131zM670 1235l53 186h184l-53 -186h-184zM1112 1235l53 186h185l-54 -186h-184z" />
<glyph unicode="&#xf7;" horiz-adv-x="1398" d="M295 588l39 139h1149l-39 -139h-1149zM627 84l55 195h195l-56 -195h-194zM899 1038l57 195h195l-55 -195h-197z" />
<glyph unicode="&#xf8;" horiz-adv-x="1193" d="M119 41l147 117q-31 68 -30 147q0 72 26 168q68 231 238 371q168 137 381 137q193 0 284 -119l135 109l41 -58l-141 -108q31 -72 31 -146q0 -66 -27 -159q-68 -238 -239.5 -379t-384.5 -141q-187 0 -277 116l-143 -110zM410 367q0 -51 12 -88l596 469q-61 94 -191 94 q-82 0 -165 -45q-82 -43 -136 -113q-51 -66 -83.5 -153.5t-32.5 -163.5zM449 213q59 -92 188 -92q94 0 172 45q80 45 133 119q53 72 84 155t31 160q0 49 -10 82z" />
<glyph unicode="&#xf9;" horiz-adv-x="1163" d="M254 186q0 84 37 211l168 590h164l-172 -602q-20 -72 -21 -113q0 -145 166 -145q111 0 278 78l226 782h164l-283 -987h-117l-10 84q-215 -104 -373 -104q-227 -1 -227 206zM793 1440l120 108l263 -323l-107 -101z" />
<glyph unicode="&#xfa;" horiz-adv-x="1163" d="M254 186q0 84 37 211l168 590h164l-172 -602q-20 -72 -21 -113q0 -145 166 -145q111 0 278 78l226 782h164l-283 -987h-117l-10 84q-215 -104 -373 -104q-227 -1 -227 206zM748 1225l446 323l59 -108l-456 -316z" />
<glyph unicode="&#xfb;" horiz-adv-x="1163" d="M254 186q0 84 37 211l168 590h164l-172 -602q-20 -72 -21 -113q0 -145 166 -145q111 0 278 78l226 782h164l-283 -987h-117l-10 84q-215 -104 -373 -104q-227 -1 -227 206zM668 1194l358 297l170 -287l-117 -88l-116 197l-232 -197z" />
<glyph unicode="&#xfc;" horiz-adv-x="1169" d="M254 186q0 80 37 211l168 590h164l-172 -602q-20 -72 -21 -111q0 -147 168 -147q111 0 283 78l225 782h164l-285 -987h-115l-10 84q-218 -104 -375 -104q-231 -1 -231 206zM627 1235l53 186h184l-53 -186h-184zM1067 1235l53 186h185l-54 -186h-184z" />
<glyph unicode="&#xfd;" horiz-adv-x="1038" d="M100 -530l344 491l-112 1026h170l71 -837l529 837h170l-996 -1517h-176zM752 1225l448 323l60 -108l-459 -316z" />
<glyph unicode="&#xfe;" horiz-adv-x="1204" d="M33 -530l561 1951h164l-162 -561q137 119 313 119q147 0 240 -86q90 -84 90 -234q0 -76 -25 -161q-63 -225 -235 -373t-367 -148q-76 0 -137 27t-102 80l-176 -614h-164zM444 299q0 -182 193 -182q47 0 82 10q33 10 92 39q55 29 94 63q41 39 80 103q43 72 62 137 q20 63 20 129q0 111 -66 176q-63 63 -161 64q-260 0 -369 -383q-27 -101 -27 -156z" />
<glyph unicode="&#xff;" horiz-adv-x="1042" d="M100 -530l344 491l-112 1026h170l73 -837l531 837h170l-1000 -1517h-176zM573 1235l54 186h184l-51 -186h-187zM1018 1235l51 186h186l-53 -186h-184z" />
<glyph unicode="&#x152;" horiz-adv-x="1996" d="M377 442q0 115 41 260q98 340 323 523q55 45 146 92q57 31 143 57q70 23 152 31q125 14 143 14q39 2 143 2h777l-43 -149h-619l-133 -465h563l-43 -150h-561l-145 -507h616l-43 -150h-864q-121 0 -213 12.5t-164 44.5q-219 106 -219 385zM555 510q0 -215 168 -311 q49 -29 108 -39q61 -10 136 -10h127l319 1122h-55q-119 0 -191 -10q-205 -31 -360 -181q-154 -147 -221 -381q-31 -104 -31 -190z" />
<glyph unicode="&#x153;" horiz-adv-x="1775" d="M236 293q0 86 26 180q66 231 230 369q164 135 370 135q121 0 201 -51q76 -49 104 -144q51 55 119 101q63 41 119 59q43 14 96 22.5t76 8.5q252 0 252 -234q0 -92 -51 -270l-23 -74h-637q-8 -31 -8 -67q0 -90 68 -156q66 -63 206 -63q86 0 215 34l-4 -110 q-160 -55 -311 -56q-262 0 -319 181q-172 -178 -406 -178q-152 0 -240 83q-83 83 -83 230zM408 354q0 -108 55 -172q55 -63 153 -63q84 0 160 45q72 43 125 119q53 78 80 157q29 90 29 164q0 100 -52 168q-49 66 -151 66q-123 0 -232 -99q-106 -96 -149 -250 q-18 -57 -18 -135zM1157 518h477q27 100 27 156q0 158 -160 157q-121 0 -213 -92q-94 -94 -131 -221z" />
<glyph unicode="&#x178;" horiz-adv-x="1261" d="M508 1421h201l192 -587l539 587h190l-698 -747l-193 -674h-170l193 674zM834 1712l53 186h184l-51 -186h-186zM1284 1712l53 186h185l-54 -186h-184z" />
<glyph unicode="&#x2c6;" horiz-adv-x="1478" d="M801 1245l366 295l174 -285l-118 -88l-119 197l-238 -197z" />
<glyph unicode="&#x2dc;" horiz-adv-x="1398" d="M674 1284q2 2 5 7t10 14.5t15.5 19.5t13.5 17.5t8 10.5l6 6l5 5t4 6t14.5 17.5t20.5 23.5q27 33 39 43q37 33 41 35q25 20 47 31q29 12 47 16q29 6 51 6q47 0 80 -18q39 -20 58 -45q39 -49 41 -54q12 -18 43 -45q23 -18 47 -18q8 0 28 4q14 2 29 14l27 21q6 4 28 31 l27 32l31 39q10 12 18 22.5t12 16.5l93 -47q-8 -8 -26.5 -34.5t-33.5 -41.5q-2 -2 -10 -11t-20 -26l-33 -39q-6 -4 -14.5 -12l-20.5 -20q-23 -23 -39 -31l-41 -20q-23 -12 -45 -17q-29 -4 -45 -4q-47 0 -80 18q-39 20 -57 46q-29 37 -41.5 55t-42.5 45q-23 18 -47 18 q-18 0 -35 -8q-27 -12 -31 -16q-8 -6 -33 -31q-12 -12 -30 -37q-4 -6 -13.5 -16t-21.5 -29l-23.5 -29.5t-13.5 -17.5z" />
<glyph unicode="&#x2000;" horiz-adv-x="964" />
<glyph unicode="&#x2001;" horiz-adv-x="1931" />
<glyph unicode="&#x2002;" horiz-adv-x="964" />
<glyph unicode="&#x2003;" horiz-adv-x="1931" />
<glyph unicode="&#x2004;" horiz-adv-x="643" />
<glyph unicode="&#x2005;" horiz-adv-x="481" />
<glyph unicode="&#x2006;" horiz-adv-x="321" />
<glyph unicode="&#x2007;" horiz-adv-x="321" />
<glyph unicode="&#x2008;" horiz-adv-x="239" />
<glyph unicode="&#x2009;" horiz-adv-x="385" />
<glyph unicode="&#x200a;" horiz-adv-x="106" />
<glyph unicode="&#x2010;" horiz-adv-x="1208" d="M344 590l41 137h858l-39 -137h-860z" />
<glyph unicode="&#x2011;" horiz-adv-x="1208" d="M344 590l41 137h858l-39 -137h-860z" />
<glyph unicode="&#x2012;" horiz-adv-x="1208" d="M344 590l41 137h858l-39 -137h-860z" />
<glyph unicode="&#x2013;" horiz-adv-x="1157" d="M170 590l39 137h1159l-41 -137h-1157z" />
<glyph unicode="&#x2014;" horiz-adv-x="1382" d="M170 590l39 137h1384l-41 -137h-1382z" />
<glyph unicode="&#x2018;" horiz-adv-x="448" d="M522 1511h197v-434h-195z" />
<glyph unicode="&#x2019;" horiz-adv-x="448" d="M348 1077l250 434h195l-248 -434h-197z" />
<glyph unicode="&#x201a;" horiz-adv-x="448" d="M-23 -215l250 432h195l-250 -432h-195z" />
<glyph unicode="&#x201c;" horiz-adv-x="829" d="M348 1077l250 434h195l-248 -434h-197zM729 1077l250 434h195l-250 -434h-195z" />
<glyph unicode="&#x201d;" horiz-adv-x="829" d="M348 1077l250 434h195l-248 -434h-197zM729 1077l250 434h195l-250 -434h-195z" />
<glyph unicode="&#x201e;" horiz-adv-x="829" d="M-23 -219l248 432h197l-250 -432h-195zM356 -219l250 432h195l-248 -432h-197z" />
<glyph unicode="&#x2022;" horiz-adv-x="638" d="M362 602l74 260h260l-73 -260h-261z" />
<glyph unicode="&#x2026;" horiz-adv-x="1718" d="M180 0l60 211h211l-62 -211h-209zM745 0l60 211h211l-62 -211h-209zM1311 0l59 211h209l-59 -211h-209z" />
<glyph unicode="&#x202f;" horiz-adv-x="385" />
<glyph unicode="&#x2039;" horiz-adv-x="563" d="M254 623l358 364h187l-379 -364l170 -365h-187z" />
<glyph unicode="&#x203a;" horiz-adv-x="563" d="M125 258l379 365l-170 364h184l152 -364l-361 -365h-184z" />
<glyph unicode="&#x205f;" horiz-adv-x="481" />
<glyph unicode="&#x20ac;" horiz-adv-x="1333" d="M195 504l36 131h205q0 2 6 27l13 47q4 18 18 63q12 37 31 76h-148l37 131h176q125 205 320 330q194 123 411 123q174 0 326 -76l-88 -142q-152 66 -285 66q-150 0 -282 -82q-137 -84 -234 -219h451l-37 -131h-492q-51 -98 -69 -213h436l-37 -131h-407q6 -166 100 -266 q96 -102 274 -103q138 0 308 62l12 -127q-215 -90 -402 -90q-219 0 -339 129q-119 127 -119 344q0 27 2 51h-223z" />
<glyph unicode="&#x2122;" horiz-adv-x="1423" d="M520 1432l23 79h448l-22 -79h-176l-140 -490h-98l139 490h-174zM961 942l161 569h117l82 -317l256 317h121l-164 -569h-98l129 447l-244 -293h-70l-63 297l-129 -451h-98z" />
<glyph unicode="&#xe000;" horiz-adv-x="965" d="M0 965h965v-965h-965v965z" />
<glyph unicode="&#xfb01;" horiz-adv-x="1343" d="M999 0l283 987h164l-283 -987h-164zM1337 1233l53 188h195l-53 -188h-195zM-260 -494l57 121q84 -23 148 -22q61 0 104 14q41 14 74 39q25 18 47.5 51t28.5 49q2 4 7 17.5t7 21.5l297 1037h-139l37 129h139l31 106q40 138 98 209q57 72 145 113q84 39 185 39 q106 0 221 -39l-60 -125q-86 27 -147 26q-58 0 -105 -18q-53 -23 -75 -41q-29 -27 -49 -57q-18 -29 -29 -54q-12 -29 -17 -43l-32 -116h323l-37 -129h-323l-295 -1031q-37 -133 -94 -194q-57 -66 -142 -103q-86 -37 -184 -36q-107 -1 -221 36z" />
<glyph unicode="&#xfb02;" horiz-adv-x="1382" d="M1020 0l432 1511h164l-432 -1511h-164zM-260 -494l57 121q84 -23 148 -22q61 0 104 14q41 14 74 39q25 18 47.5 51t28.5 49q2 4 7 17.5t7 21.5l297 1037h-139l37 129h139l31 106q40 138 98 209q57 72 145 113q84 39 185 39q106 0 221 -39l-60 -125q-86 27 -147 26 q-58 0 -105 -18q-53 -23 -75 -41q-29 -27 -49 -57q-18 -29 -29 -54q-12 -29 -17 -43l-32 -116h323l-37 -129h-323l-295 -1031q-37 -133 -94 -194q-57 -66 -142 -103q-86 -37 -184 -36q-107 -1 -221 36z" />
<glyph unicode="&#xfb03;" horiz-adv-x="2162" d="M1820 0l283 987h164l-283 -987h-164zM2158 1233l53 188h195l-53 -188h-195zM559 -494l57 121q84 -23 148 -22q61 0 104 14q41 14 74 39q25 18 47.5 51t28.5 49q2 4 7 17.5t7 21.5l297 1037h-139l37 129h139l31 106q40 138 98 209q57 72 145 113q84 39 185 39 q106 0 221 -39l-60 -125q-86 27 -147 26q-58 0 -105 -18q-53 -23 -75 -41q-29 -27 -49 -57q-18 -29 -29 -54q-12 -29 -17 -43l-32 -116h323l-37 -129h-323l-295 -1031q-37 -133 -94 -194q-57 -66 -142 -103q-86 -37 -184 -36q-107 -1 -221 36zM-260 -494l57 121 q84 -23 148 -22q61 0 104 14q41 14 74 39q25 18 47.5 51t28.5 49q2 4 7 17.5t7 21.5l297 1037h-139l37 129h139l31 106q40 138 98 209q57 72 145 113q84 39 185 39q106 0 221 -39l-60 -125q-86 27 -147 26q-58 0 -105 -18q-53 -23 -75 -41q-29 -27 -49 -57q-18 -29 -29 -54 q-12 -29 -17 -43l-32 -116h323l-37 -129h-323l-295 -1031q-37 -133 -94 -194q-57 -66 -142 -103q-86 -37 -184 -36q-107 -1 -221 36z" />
<glyph unicode="&#xfb04;" horiz-adv-x="2203" d="M1841 0l432 1511h164l-432 -1511h-164zM559 -494l57 121q84 -23 148 -22q61 0 104 14q41 14 74 39q25 18 47.5 51t28.5 49q2 4 7 17.5t7 21.5l297 1037h-139l37 129h139l31 106q40 138 98 209q57 72 145 113q84 39 185 39q106 0 221 -39l-60 -125q-86 27 -147 26 q-58 0 -105 -18q-53 -23 -75 -41q-29 -27 -49 -57q-18 -29 -29 -54q-12 -29 -17 -43l-32 -116h323l-37 -129h-323l-295 -1031q-37 -133 -94 -194q-57 -66 -142 -103q-86 -37 -184 -36q-107 -1 -221 36zM-260 -494l57 121q84 -23 148 -22q61 0 104 14q41 14 74 39 q25 18 47.5 51t28.5 49q2 4 7 17.5t7 21.5l297 1037h-139l37 129h139l31 106q40 138 98 209q57 72 145 113q84 39 185 39q106 0 221 -39l-60 -125q-86 27 -147 26q-58 0 -105 -18q-53 -23 -75 -41q-29 -27 -49 -57q-18 -29 -29 -54q-12 -29 -17 -43l-32 -116h323l-37 -129 h-323l-295 -1031q-37 -133 -94 -194q-57 -66 -142 -103q-86 -37 -184 -36q-107 -1 -221 36z" />
</font>
</defs>
</svg>
